<?xml version="1.0" encoding="utf-8"?>
<!-- Generator: Adobe Illustrator 16.0.0, SVG Export Plug-In . SVG Version: 6.00 Build 0)  -->
<!DOCTYPE svg PUBLIC "-//W3C//DTD SVG 1.1//EN" "http://www.w3.org/Graphics/SVG/1.1/DTD/svg11.dtd">
<svg version="1.1" id="oSvg" xmlns="http://www.w3.org/2000/svg" xmlns:xlink="http://www.w3.org/1999/xlink" x="0px" y="0px"
	 width="1000px" height="464px" viewBox="40 728 1000 464" enable-background="new 40 728 1000 464" xml:space="preserve">
<g transform="rotate(0,456 221) translate(456 221) scale(1,1)">
	<path fill="#D2EEFF" stroke="#37A8DB" d="M199.265,626.642c3.924-1.344,4.646,1.138,7.847,0.725
		c3.203-0.414,8.469-0.621,13.013,0.724c2.065,0.62,2.891,1.344,2.994,2.171l0.413-0.31c1.756-1.138,4.956-4.136,5.783-5.48
		c0.723-1.344,3.099-2.895,3.099-4.86c0-1.964,4.026-1.861,7.125-2.791c3.097-0.931,6.092-4.55,8.363-6.618
		c2.272-2.068,2.479-3.102-0.412-4.239c-2.891-1.137-7.85,0-10.534,1.033c-2.685,1.034-3.2,2.585-3.613,5.377
		c-0.414,2.792-2.065,1.758-5.163,0.931c-3.099-0.828-5.37,0.31-8.365,0.31c-3.097,0-8.57-3.619-8.982-5.479
		c-0.414-1.862-2.893-4.446-2.479-7.031c0.412-2.585,0.206-2.792,0.206-6.41c0-3.619,1.962-5.274,4.026-7.549
		c2.065-2.275,0.725-3.412,0-5.376c-0.723-2.068,6.609-3.826,6.609-3.826l0.413-0.103c-0.825-0.31-1.756-0.621-2.685-0.621
		c-3.512-0.207-4.13,0-4.751-1.861c-0.618-1.861-4.75-2.274-7.641-3.308c-2.893-0.931-7.85-2.481-3.305-2.792
		c4.544-0.413,15.076-2.999,16.315-5.79c1.24-2.792,1.24-6.411,4.337-6.824c3.098-0.414,4.131-1.345,3.512-3.102
		c-0.62-1.758-0.206-6.514,4.13-8.169c4.338-1.654,7.642-1.654,10.636-4.239c3.099-2.481,4.442-4.342,6.92-3.101
		c2.479,1.241,5.886-1.034,8.57-2.172c2.685-1.034,3.306-1.55,6.092-1.448c2.893,0.104,3.512-0.93,1.86-1.86
		c-1.652-0.931-3.924-1.448-2.066-4.033c1.859-2.584,6.61-9.823,0.931-9.823c-5.681,0-10.224,0.208-11.463-1.033
		c-1.239-1.345-1.859-2.172-4.338-2.172c-2.478,0-1.238-4.343-5.473-3.102c-4.234,1.344-10.016,1.551-12.598,3.309
		c-2.685,1.758-4.028,4.033-7.125,3.516c-3.099-0.518-8.984-2.999-9.811-2.172c-0.825,0.828,2.065,4.033-1.445,4.033
		c-3.512,0-15.077-0.828-19.208,0c-4.13,0.827-11.255,3.516-11.255,1.551c0-1.965,3.511-4.963,0.723-6.308
		c-2.788-1.344-4.854-3.205-4.854-4.756c0-1.55-4.44-3.412-7.435-2.481c-3.098,0.931-4.957,3.103-7.229,4.86
		c-2.271,1.758-5.988,5.273-10.12,4.963c-4.027-0.311-5.473-2.172-10.739-0.621c-5.37,1.551-11.049,2.688-13.527,1.758
		c-2.376-0.93-4.854-2.688-10.74-2.688s-10.43,0-12.907-2.378c-2.581-2.378-9.397-8.271-12.494-7.962
		c-3.099,0.207-6.506,0.207-9.191,1.448c-2.687,1.136-7.745-0.208-7.849,2.377c-0.103,2.585-0.413,3.516-3.82,4.033
		c-3.511,0.517-5.267,4.135-9.19,4.239c-3.925,0.104-7.539,0.207-9.295,1.551c-1.549,1.241-2.685,3.309-5.679,2.481
		c-2.995-0.827-6.402-2.171-6.506-0.621c-0.103,1.552-2.066,4.24,1.962,5.687c4.027,1.448,6.3,1.035,9.913,0.931
		c3.718-0.103,7.539,1.344,6.196,2.481c-1.239,1.241-7.951,3.102-4.957,5.377c2.995,2.275,1.137,5.79,2.272,7.857
		c1.137,2.172,2.376,5.998-1.962,6.928c-0.104,0-0.104,0-0.206,0l0.31,0.31c5.473,0,6.092,4.86,2.581,6.411
		c-3.511,1.55-2.478,3.928-6.608,5.79c-4.131,1.861-4.75,3.206-4.027,5.583c0.723,2.378-2.272,4.756-3.511,7.135
		s1.033,2.895,3.511,4.239c2.478,1.344,7.022,4.136,10.12,6.204c3.099,2.068,5.473-0.207,7.022-1.861
		c1.55-1.758,11.05-2.067,16.213-1.551c5.163,0.517,9.19,1.861,12.392,1.241c3.201-0.724,5.782,0.208,8.262,2.275
		c2.479,2.068,9.913-0.827,13.423-1.861c3.512-1.034,6.403-1.241,10.121-0.724c3.718,0.518,5.473,0.724,10.016,2.792
		c4.544,2.068,9.398,3.413,12.495,3.723c3.098,0.31,8.881,5.066,8.57,6.72c-0.206,1.655-0.825,5.17,5.682,6.618
		c6.608,1.447,4.439,5.066,1.548,5.583c-2.995,0.517-4.337,4.86-4.337,7.135c0,2.274-8.365,5.687-12.289,7.548
		s2.065,5.583,4.132,6.824c1.962,1.241,9.19-0.104,12.804-2.482c3.512-2.275,7.022-1.551,12.805-1.757
		c4.75-0.207,11.05-0.104,12.907-0.104C187.389,626.849,195.65,627.882,199.265,626.642z"/>
</g>
<g transform="rotate(0,346 243) translate(346 243) scale(1,1)">
	<path fill="#70CBFF" stroke="#37A8DB" d="M45.218,586.651c1.651-0.827,1.548-1.861,2.168-4.032c0.62-2.172,2.582-3.826,6.196-0.828
		c3.614,2.999,8.365,5.584,12.392,4.55c3.924-0.932,11.773-4.963,11.049-7.652c-0.723-2.688-4.13-8.065-0.516-8.065
		c3.614,0,3.717,1.447,8.158,2.585c4.44,1.034,7.125,1.344,9.707,3.929c2.582,2.584,5.782,5.687,4.13,9.306
		c-1.652,3.619-4.646,7.238-0.31,7.238c4.337,0,5.266,0.103,5.266,3.102c0,2.999-2.168,8.375,1.963,8.479
		c4.13,0.103,5.472,0,8.158,1.654c2.685,1.654,6.092,1.964,8.983,2.068c2.995,0.104,3.614,0.827,4.131,3.619
		c0.516,2.792,0.516,6.617,2.065,11.167c1.549,4.55,1.343,4.964,4.028,6.101c2.685,1.137,1.239,2.895,2.478,4.342
		c1.239,1.345,1.756,5.377,3.614,5.997c0.517-1.654,1.342-0.62,5.37,0.207c4.234,0.931,2.479,2.792,1.858,4.55
		c-0.619,1.861,0.621,2.171,2.893,2.171c1.549,0,3.201,2.688,5.059,4.963c1.137-0.517,15.386-7.031,19.001-7.134
		c3.82-0.103,8.261-1.964,8.364-3.619c0.104-1.654,0.723-4.653,5.783-4.859c4.957-0.207,12.082-2.895,12.805-4.757
		c0.62-1.86,7.538-4.238,9.811-3.205s10.946,2.895,17.244,2.171c6.3-0.724,9.812-2.792,7.436-5.377
		c-2.375-2.585-2.064-6.824,1.962-7.238c4.027-0.31,11.772-0.93,14.045-2.895c2.063-1.862,6.195-4.24,6.814-4.55
		c-0.517-0.104-1.031-0.207-1.342-0.413c-1.962-1.241-7.951-4.963-4.132-6.825c3.926-1.861,12.289-5.273,12.289-7.548
		c0-2.274,1.446-6.618,4.337-7.134c2.994-0.517,5.061-4.136-1.548-5.583c-6.61-1.448-5.888-4.963-5.68-6.618
		c0.206-1.654-5.473-6.411-8.571-6.721c-3.098-0.31-7.952-1.655-12.496-3.722c-4.542-2.068-6.298-2.275-10.016-2.792
		c-3.717-0.517-6.609-0.31-10.119,0.724c-3.512,1.034-10.844,3.929-13.425,1.86c-2.479-2.067-5.061-2.895-8.262-2.274
		c-3.2,0.724-7.229-0.724-12.392-1.241c-5.163-0.518-14.768-0.208-16.213,1.55c-1.549,1.758-3.924,3.93-7.022,1.861
		c-3.097-2.068-7.537-4.756-10.12-6.204c-2.478-1.344-4.853-1.861-3.511-4.24c1.239-2.378,4.338-4.755,3.511-7.133
		c-0.723-2.379-0.102-3.723,4.028-5.584c4.13-1.861,3.097-4.239,6.608-5.791c3.511-1.55,2.892-6.41-2.581-6.41l-0.311-0.311
		c-4.44,1.034-14.457,3.103-16.832,2.585c-2.479-0.517-8.262-5.791-8.365-8.169s-2.685-9.719-6.196-9.719s-8.158-0.517-11.669-0.208
		c-3.511,0.208-7.745-0.62-10.12-1.654c-2.375-1.034-7.228-5.376-13.837-4.239c-6.609,1.034-8.054,1.448-12.082,0
		c-3.924-1.447-9.913-2.274-10.636,0.828c-0.62,3.102-2.272,7.548-5.68,10.029c-3.511,2.482-2.685,5.688-0.93,6.824
		c1.756,1.241,6.196,4.86,3.821,6.825c-2.479,2.068-3.718,3.309-7.745,3.722c-3.924,0.516-7.951,4.135-11.152,5.066
		c-3.202,0.93-14.664,7.134-13.424,9.823c1.239,2.688,6.609,4.652,7.538,6.617c0.826,1.964-3.098,4.653-0.103,6.307
		c2.995,1.551,3.82,1.758,6.092,4.757c2.271,3.101,1.136,5.893-2.892,7.651c-1.858,0.827-5.989,2.275-9.913,3.929l0.206,0.207
		C36.13,581.378,43.565,587.478,45.218,586.651z"/>
</g>
<g transform="rotate(-1,706 337) translate(621 272) scale(1,1)">
	<path fill="#70CBFF" stroke="#37A8DB" d="M48.48,583.095c-2.168,2.172-1.342,6.204-1.343,8.272c0.001,2.068,1.859,4.239,6.816,6.1
		c4.853,1.861,7.538,0.931,13.218,0.517c5.782-0.413,8.054,10.961,10.532,13.132c2.478,2.171,6.299,0,11.05,1.344
		c4.751,1.344-3.409,8.272-1.653,9.306c1.859,0.931,4.957,2.584,5.472,4.549c0.518,1.965,5.886,3.722,9.295,3.929
		c3.407,0.31,1.652,3.825,5.265,5.376c3.614,1.551,3.615,2.378,3.718,4.86c0.001,2.482,3.202,3.722,6.402,3.722
		c3.202,0,2.376-6.204,5.061-8.065c2.684-1.758,1.549-2.999,1.445-6.204c-0.102-3.205,3.409-1.344,6.094-0.001
		c2.788,1.344,6.505,0.104,9.189-1.345c2.686-1.55,8.675-2.998,21.79-3.826c13.012-0.827,7.745,2.895,9.603,4.653
		c1.859,1.758,7.539,3.722,10.119,4.549c2.48,0.827,1.963,4.446,1.963,4.446l-0.001,0.207c3.512-0.62,2.994-1.551,6.919-3.722
		c4.338-2.482,5.475-11.064,5.475-11.064s1.032,0.414,1.858,0c-2.581,0.62-6.299-5.067-8.778-7.341
		c-2.788-2.585-0.207-5.791,0.105-12.201c0.413-6.411-4.028-7.961-5.887-10.443c-1.859-2.481-5.058-0.724-7.848-1.24
		c-2.787-0.517-0.516-2.068,2.686-2.999c3.2-0.931-2.995-1.241,0.308-2.999c3.202-1.758,3.203-5.996,6.094-9.513
		c2.892-3.515-2.065-7.547-3.202-9.512c-1.135-1.964,1.756-4.447,4.131-5.48c2.272-0.931,5.059,0.723,8.468,0.931
		c3.408,0.103,0.928-2.585,0.516-3.723c-0.517-1.137,1.548-0.103,4.645-0.724c3.099-0.62-0.307-1.861-1.341-2.895
		c-1.032-1.034,2.066-1.448,4.543-2.378c2.376-0.931-3.717-5.377-4.75-7.651c-1.031-2.378,1.239-5.171,2.892-7.548
		c1.756-2.274,0-2.896-2.684-3.722c-2.684-0.827-8.159-4.239-9.293-5.479c-1.239-1.241,6.196-9.203,6.196-9.203l0.206-0.62
		c-0.412-0.31-0.825-0.62-1.032-0.931c-1.136-1.55-10.844-8.375-14.355-8.065c-3.51,0.414-5.576,0.621-5.886,2.172
		c-0.309,1.551-1.754,2.274-4.543,1.138c-2.685-1.241-3.097-1.344-6.609-0.518c-3.511,0.828-10.636,2.792-13.526,4.138
		c-2.892,1.343-3.305-0.001-4.545,1.24c-1.239,1.241-5.783,0.62-7.435-0.517c-1.651-1.137-2.891-0.516-6.194,0.001
		c-3.305,0.517-4.338,1.551-7.023,1.344c-2.685-0.207-7.435,0.827-7.436,2.482c0.001,1.551,0.103,5.997-3.201,5.79
		c-2.994-0.31-10.945-3.929-15.077-2.378c-4.13,1.55-2.478,4.136-4.75,4.653c-2.272,0.517-4.749,0.516-5.99-0.931
		c-1.239-1.447-2.064-1.861-4.955-0.723c-2.893,1.138-5.577,1.861-9.915,1.758c-4.337-0.104-7.641,0.62-10.532,2.379
		c-2.891,1.757-7.228,0.414-8.467-0.827c-0.929-0.931-2.892-2.689-5.267-3.619l-0.412-0.104c0,0-7.436,1.758-6.609,3.827
		c0.722,2.067,2.063,3.101-0.001,5.377c-2.065,2.274-4.028,3.928-4.027,7.548c-0.001,3.619,0.206,3.825-0.207,6.41
		c-0.413,2.584,2.065,5.273,2.478,7.031c0.412,1.861,5.886,5.48,8.983,5.48c3.098,0,5.37-1.137,8.365-0.31
		c3.098,0.827,4.75,1.861,5.163-0.932c0.414-2.688,0.93-4.342,3.615-5.376c2.684-1.034,7.641-2.172,10.532-1.034
		c2.893,1.137,2.685,2.171,0.413,4.239c-2.272,2.069-5.37,5.687-8.365,6.617c-3.099,0.931-7.125,0.828-7.126,2.793
		c0.001,1.965-2.271,3.412-3.096,4.86c-0.724,1.344-4.029,4.343-5.784,5.48l-0.414,0.31
		C50.546,580.924,49.617,581.958,48.48,583.095z"/>
</g>
<g transform="rotate(0,276 303) translate(276 303) scale(1.04,0.63)">
	<path fill="#29ACF6" stroke="#37A8DB" d="M42.826,957.583c1.859-0.826,1.755-2.482,2.065-4.962
		c0.207-2.482,1.446-2.793,3.304-2.793c1.859,0,4.543,3.413,4.957,4.756c0.309,1.344,0.207,3.826-0.207,5.997
		c-0.413,2.172-0.93,3.826,3.511,5.481c4.337,1.654,6.712,2.378,8.261,5.066c1.549,2.689,4.441,3.826,9.088,4.343
		c4.543,0.515,10.739,0.93,16.109,0.93c5.37,0,7.435,0.103,10.533,2.689c3.098,2.585,10.74,5.996,13.734,5.273
		c2.995-0.724,8.675-1.344,11.36-1.137c2.787,0.207,4.337,1.034,8.364-2.172c4.027-3.102,7.745-6.203,8.674-4.653
		c0.826,1.551,1.239,3.93,0.414,5.893c-0.826,1.965-1.136,4.136-1.033,6.515c0.104,2.377,0,4.239-1.652,6.514
		c-1.652,2.274-2.788,3.309,0.103,5.997c2.892,2.792,4.234,5.377,2.479,7.135c-1.755,1.757-3.098,4.445,0,5.377
		c3.098,0.931,4.337,0.827,4.337,3.206c0,2.377-1.652,2.274,3.098,4.031c4.75,1.759,5.163,3.93,5.163,3.93l0.31,0.105
		c1.136-1.346,3.82-1.138,5.989-1.138c2.995,0,3.924-2.896,7.126-4.239c3.201-1.449,5.989-4.861,9.603-8.065
		c3.511-3.206,5.164-2.482,9.914-3.206c4.75-0.724,8.364-7.445,11.359-9.927c2.995-2.481,2.271-6.41,2.271-9.098
		c0-2.689-1.548-13.338-1.755-16.337c-0.207-2.998,2.169-10.339,2.479-13.339c0.309-2.997,0.309-11.062-1.549-14.991
		c-1.963-3.93-0.516-8.065,1.032-10.547c1.549-2.482,1.032-10.135,1.446-13.546c0-0.207,0-0.413,0.103-0.518
		c-1.859-0.93-2.479-7.134-3.821-9.305c-1.343-2.171,0-5.067-2.581-6.721c-2.582-1.756-2.376-2.377-4.131-9.615
		c-1.755-7.238-1.962-13.339-2.582-17.682c-0.619-4.342-1.342-5.48-4.131-5.687c-2.788-0.206-6.093-0.619-8.674-3.308
		c-2.581-2.585-3.924-2.379-7.848-2.585c-3.925-0.207-2.169-8.684-2.375-13.546c-0.206-4.756-1.136-5.066-5.266-5.066
		c-4.13,0-1.549-5.687-0.206-11.581c1.342-5.894-1.962-10.96-4.544-15.096c-2.581-4.136-5.266-4.548-9.603-6.307
		c-4.337-1.758-4.543-4.136-8.055-4.136s0.207,8.685,1.136,13.131c0.826,4.343-6.299,10.961-10.016,12.408
		c-3.718,1.551-8.467-2.585-12.185-7.444c-3.718-4.756-5.473-2.172-5.887,1.344c-0.413,3.516-0.206,5.273-1.755,6.514
		c-1.548,1.344-9.19-8.479-9.19-8.479l-0.206-0.31c-4.441,3.308-8.674,7.031-8.882,9.926c-0.413,5.17-0.619,11.478,3.615,16.646
		c4.233,5.171,6.815,10.858,1.755,13.236c-5.06,2.379-8.261,4.033-9.397,6.617c-1.239,2.586-0.413,9.204-4.647,9.823
		c-4.233,0.62-16.212-0.412-18.69,2.171c-2.375,2.586-2.169,4.446-1.033,7.858c1.239,3.413,1.033,12.615-3.407,13.856
		c-4.441,1.241-10.017,2.585-12.599,6.617c-2.581,4.033-1.962,10.03-6.608,13.442c-4.647,3.412-9.81,13.441-10.223,16.233
		c-0.103,1.034-0.206,4.239-0.103,8.064l0.62,1.966C32.086,953.344,40.864,958.41,42.826,957.583z"/>
</g>
<g transform="rotate(0,753 259) translate(753 259) scale(1,1)">
	<path fill="#29ACF6" stroke="#37A8DB" d="M82.977,628.243c2.995,0,3.718-1.034,5.784-3.412c2.063-2.379,6.401-2.896,8.054-2.689
		c1.549,0.31,6.712,0.104,9.5-1.861c2.685-1.964,4.751-1.241,3.718-2.999c-1.033-1.757,0.62-3.412,2.272-4.756
		c1.651-1.344,2.994-1.758,5.061-0.828c2.063,0.932,6.092,2.482,7.435,1.241c1.342-1.241,4.749-1.344,7.021-0.517
		c2.272,0.724,2.376,2.171,7.85,1.655c5.369-0.621,8.157,0.62,12.494-1.655c4.338-2.378,10.121-4.549,12.599-6.824
		c2.479-2.275,6.402-4.859,10.223-3.205c3.821,1.654,5.681,1.654,8.055,0.827c2.375-0.827,7.333-0.413,10.326-0.93
		c2.995-0.518,5.267-2.068,4.338-3.619c-0.929-1.552-4.751-2.896-4.027-3.723c0.826-0.828,3.614-2.998,7.332-3.205
		s10.12-3.309,11.565-5.376s2.788-7.445,5.783-7.962c2.994-0.517,5.886-1.964,6.298-3.825c0.414-1.964-0.103-5.48,4.338-5.48
		s7.951-0.931,9.707-2.688c1.651-1.758,7.745-4.344,9.293-4.344l0.31-0.31c-3.717-2.171-7.951-5.066-8.468-6.513
		c-0.824-1.965-0.309-5.894-3.923-6.411s-4.337-2.171-4.337-4.756s-6.3-3.412-7.951-3.412c-1.653,0-3.409-3.516-2.479-6.515
		c1.031-2.896,4.232-4.136,3.201-5.687c-0.931-1.551-5.989-4.136-5.783-1.964c0.206,2.171-2.685,2.274-6.196,2.274
		c-3.511,0-15.18-0.518-16.419,1.241c-1.343,1.758-4.027,3.826-6.918,2.068c-2.789-1.757-2.272-4.859-5.061-6.72
		c-2.787-1.861-4.131-3.206-8.57-3.723c-4.338-0.621-9.707-3.102-7.333-4.136c2.376-0.931,8.365-3.825,4.441-4.756
		c-3.925-0.828-4.338,0.31-7.229,2.275c-2.994,1.964-4.544,3.308-9.294,2.791c-4.751-0.516-2.892-3.826-8.262-3.826
		c-5.369,0-9.087,0-11.669,0.414c-2.685,0.311-7.435-1.241-9.604-2.171c-2.065-0.931-8.262-3.516-13.114-3.516
		c-4.956,0-7.022,0-5.267,1.24c1.756,1.241,4.234,2.378,1.343,2.792c-2.892,0.31-4.131-0.517-5.681-1.654
		c-1.548-1.241-3.201-1.344-4.853,1.034c-1.756,2.378-6.3,10.03-3.924,11.374c2.374,1.344,2.374,2.274,2.479,4.342
		c0.104,2.068,1.651,4.033,4.13,4.86c2.582,0.827,4.75,3.619,1.239,4.239c-3.512,0.621-9.81,2.482-13.217,1.861
		c-3.305-0.621-4.75-3.826-9.501-4.239c-3.924-0.414-8.468-2.275-10.636-3.826l-0.206,0.621c0,0-7.437,7.962-6.197,9.203
		s6.712,4.652,9.294,5.48c2.685,0.827,4.338,1.344,2.582,3.723c-1.755,2.274-3.925,5.169-2.892,7.548
		c1.032,2.378,7.126,6.824,4.75,7.651c-2.374,0.931-5.473,1.241-4.544,2.378c1.033,1.035,4.338,2.275,1.343,2.896
		c-3.099,0.62-5.163-0.414-4.646,0.724c0.517,1.137,2.995,3.826-0.517,3.722c-3.408-0.103-6.195-1.861-8.468-0.931
		c-2.271,0.931-5.267,3.516-4.13,5.48c1.136,1.964,6.092,5.997,3.201,9.513c-2.893,3.516-2.893,7.755-6.094,9.512
		c-3.201,1.758,2.893,2.069-0.31,2.999c-3.098,0.931-5.474,2.585-2.685,2.999c2.788,0.517,6.093-1.241,7.849,1.24
		c1.858,2.482,6.196,4.032,5.886,10.443c-0.413,6.411-2.891,9.616-0.104,12.201c2.478,2.378,6.195,7.962,8.777,7.341l0,0
		c0.311-0.207,1.344-0.931,2.479-1.964c1.239-1.035,2.685-2.275,4.13-3.31c0.104-0.103,0.208-0.103,0.208-0.206l0,0
		C80.395,628.864,81.842,628.243,82.977,628.243z"/>
</g>
<g transform="rotate(0,464 337) translate(464 337) scale(1,1)">
	<path fill="#D2EEFF" stroke="#37A8DB" d="M71.787,647.54c0.723,1.241,6.404,6.411,8.674,9.099c2.272,2.688,3.926,4.343,8.159,4.032
		c4.13-0.207,12.598-1.344,11.152-3.723c-1.446-2.378-3.511-5.996-1.343-7.754s2.891-3.516,5.783-4.033
		c2.272-0.413,3.718-1.033,4.336-1.344c0.311-0.62,0.827-1.344,1.344-2.067c1.857-2.378,4.027-7.858,1.341-8.479
		c-2.58-0.724-2.786-3.31-3.407-5.377c-0.618-2.068-4.233-4.239-4.233-4.239s1.859-2.068,5.061-0.414
		c3.305,1.654,6.506,3.103,8.157,1.241c1.55-1.861-4.646-5.067-5.783-5.997c-1.032-0.931-17.142-7.755-13.32-7.755
		c3.718,0,4.853-0.103,7.229,1.448c2.375,1.654,11.669,5.48,12.186,3.412s-2.065-5.376-6.196-5.791
		c-4.131-0.414-6.093-2.171-6.506-3.929c-0.412-1.758-1.755-5.273-1.755-6.514s2.065-9.616-2.272-10.96
		c-4.336-1.344-5.989-2.791-9.707-2.895c-3.718-0.104-7.745-2.378-4.234-2.378c3.512,0,3.512,0.311,8.469,1.448
		c4.75,1.137,11.358,2.275,12.598,4.239V588.5c0,0,6.3-2.895,9.707-2.999c3.511-0.104,6.815-0.93,8.882-1.758
		c2.064-0.827,3.924-1.964,7.641-1.964c3.512,0,8.261,0.206,11.153,0.828c-1.55-0.828,6.712-2.275,10.325-3.516
		c4.234-1.447,1.859-7.549,0.827-11.581c-1.033-4.032,4.853-2.999,9.707-3.722c4.853-0.828,2.063-5.377-0.311-7.031
		c-2.374-1.758-0.206-2.171,2.479-3.412c2.685-1.344-8.054-2.689-12.598-4.549c-4.545-1.862-3.408-4.756-3.408-7.549
		c0.103-2.791-2.169-1.861-4.956-2.067c-2.789-0.31-2.789-4.446,0.103-4.446c2.788,0,4.646-2.275,9.5-3.826
		c4.854-1.551,18.484-6.411,21.066-6.204c2.582,0.207,3.407-1.448,1.859-4.757c-1.55-3.309,0.206-7.031,0.412-8.271
		c0-0.104,0.103-0.207,0.207-0.207c-1.86,0-8.056-0.103-12.908,0.103c-5.68,0.208-9.19-0.517-12.805,1.758
		c-2.994,1.964-8.468,3.205-11.462,2.791c-0.621,0.414-4.751,2.792-6.816,4.55c-2.272,1.964-10.016,2.584-14.044,2.895
		c-4.027,0.311-4.337,4.55-1.961,7.238c2.374,2.586-1.138,4.653-7.436,5.377c-6.3,0.724-14.974-1.138-17.246-2.172
		c-2.271-1.033-9.19,1.345-9.809,3.206c-0.621,1.861-7.85,4.446-12.806,4.756c-4.957,0.208-5.68,3.206-5.783,4.86
		c-0.103,1.654-4.543,3.515-8.364,3.618c-3.82,0.104-19.104,7.238-19.104,7.238l2.788,2.482c3.097,1.861,4.028,7.135,4.44,8.996
		c0.517,1.861,0.31,2.274,2.168,2.584c1.859,0.207,2.685-0.414,3.201-2.378s5.371-0.62,8.262,1.034
		c2.995,1.654,1.137,5.066,3.511,6.824c2.374,1.758,1.755,7.548,3.717,9.926c1.962,2.378,3.821,7.341,3.717,9.409
		c-0.104,2.067,1.239,3.206,4.957,4.859c3.718,1.551,0.412,4.343-1.033,6.411c-1.445,2.068,5.783,2.378,7.952,2.378
		c2.168,0,4.544,0.621,4.439,3.31c-0.102,2.688-6.918,4.756-9.293,4.963c-2.376,0.207-8.572,1.55-11.669-0.207
		c-3.099-1.86-7.126-0.517-7.849,1.24c-0.619,1.655-2.375,0.828-5.68-0.207c-3.303-1.034-1.239,5.274,0.723,6.411
		c1.86,1.139,5.577,6.928,5.577,10.547c0,3.412,5.783,8.582,6.506,9.306C67.967,644.955,71.271,646.609,71.787,647.54z"/>
</g>
<g transform="rotate(0,568 336) translate(568 336) scale(1,1)">
	<path fill="#29ACF6" stroke="#37A8DB" d="M245.362,568.924c-2.479-0.828-8.262-2.792-10.12-4.55
		c-1.859-1.757,3.407-5.48-9.603-4.652c-13.013,0.827-19.104,2.377-21.79,3.826c-2.685,1.55-6.505,2.792-9.19,1.344
		c-2.787-1.344-6.196-3.206-6.092,0c0.104,3.205,1.238,4.446-1.446,6.204s-1.859,7.962-5.061,7.962s-6.401-1.241-6.401-3.723
		c0-2.481-0.104-3.309-3.718-4.86c-3.613-1.55-1.859-5.066-5.267-5.377c-3.407-0.309-8.881-2.067-9.293-3.928
		c-0.517-1.964-3.615-3.516-5.474-4.55c-1.859-0.93,6.402-7.857,1.652-9.305c-4.751-1.345-8.57,0.724-11.049-1.345
		c-2.479-2.067-4.854-13.545-10.534-13.131c-5.783,0.413-8.363,1.344-13.218-0.518c-4.853-1.861-6.814-4.033-6.814-6.101
		c0-2.067-0.827-6.204,1.342-8.271c2.169-2.171,3.511-4.032-0.93-5.377c-4.646-1.24-9.913-1.137-13.114-0.62
		c-3.201,0.414-3.924-2.068-7.849-0.724c-3.924,1.344-13.217,0-13.423,1.138c-0.208,1.138-1.859,4.963-0.414,8.271
		c1.549,3.309,0.62,4.963-1.858,4.756c-2.582-0.207-16.213,4.652-21.065,6.204c-4.854,1.551-6.61,3.826-9.501,3.826
		c-2.788,0-2.893,4.239-0.104,4.447c2.788,0.31,5.061-0.622,4.956,2.068c-0.103,2.791-1.239,5.686,3.409,7.547
		c4.542,1.861,15.282,3.205,12.598,4.55c-2.685,1.344-4.854,1.757-2.479,3.412c2.375,1.758,5.163,6.307,0.309,7.031
		c-4.853,0.827-10.738-0.31-9.705,3.723c1.031,4.032,3.304,10.132-0.826,11.58c-4.234,1.654-14.87,3.412-8.469,4.136
		c6.402,0.724,9.501,0.31,14.768,1.034c5.266,0.827,8.364,2.585,11.049,1.344s3.821-1.861,5.783,0.517
		c1.962,2.481,7.229,4.859,9.501,5.583c2.168,0.724,3.097,1.137,5.781,2.896c2.685,1.757,5.577,1.86,6.196,4.755
		c0.62,2.896,2.376,6.617,0.62,8.892c-1.756,2.378-1.343,2.482,1.962,2.171c3.305-0.31,8.262-0.413,10.224,1.137
		c1.962,1.551,3.304,1.964,7.331,0.931c4.027-0.931,3.099-0.104,4.44,2.068c1.343,2.172,0.414,3.309,4.956,5.48
		c3.512,1.757,6.3,1.861,7.333,1.861c1.032-1.137,2.064-1.861,4.233-1.861c3.098,0,2.479-0.62,0.723-0.931
		c-1.755-0.413-3.924-2.584-0.826-2.688c3.099-0.103,16.213-3.619,20.549-4.239c4.338-0.621,7.333,0.311,7.952-1.551
		c0.62-1.86,1.239-2.999,3.408-1.447c2.168,1.551,6.608,2.895,1.342,4.033c-5.267,1.137-10.74,3.412-8.57,4.963
		c2.168,1.55,0.206,2.481,0.309,4.445c0,1.965,0.311,6.411,2.893,6.928c2.581,0.518,13.114-2.275,14.664-0.517
		c1.548,1.758,3.303,5.688,5.989,3.722c2.685-1.964-1.549-4.342,0.929-6.824c2.479-2.481,6.608-5.376,2.375-6.72
		c-4.234-1.344-11.255-2.481-10.637-3.929c0.62-1.447,1.652-1.654,2.892-0.931c1.239,0.828,4.441,1.655,6.3,0.621
		c1.859-1.034,1.445-0.414,2.994,1.447c1.55,1.861,2.892,4.549,7.022,2.895c2.272-0.93,2.479-1.757,2.479-2.377l-0.517-0.414
		c-0.414-1.551-4.027-3.619-8.055-5.998c-4.026-2.481-3.82-5.479-5.268-7.754c-1.341-2.275,4.234-4.343,7.745-4.653
		c3.512-0.207,1.962-2.482,6.506-3.102c4.44-0.621,5.577-1.964,7.745-3.412c2.169-1.448,3.924-1.241,6.299-0.104
		c2.479,1.137,3.408,0.311,4.647-1.137c1.239-1.448,4.337-3.103,10.43-4.653c6.092-1.55,4.337-5.17,4.234-7.03
		c-0.104-1.965,4.853-5.067,10.016-5.688c0.517-0.103,1.033-0.103,1.447-0.207v-0.206
		C247.324,573.267,247.84,569.752,245.362,568.924z"/>
</g>
<g transform="rotate(0,882 309) translate(882 309) scale(1,1)">
	<path fill="#A8DFFF" stroke="#37A8DB" d="M120.542,560.045c2.789-1.55,3.924-1.55,4.234-0.413c0.311,1.137,2.582,3.412,4.75,2.688
		c2.169-0.724,8.262-1.758,10.43-0.413c2.169,1.344,3.512,2.274,3.82,3.619c0.31,1.345,2.065,1.964,4.958,0
		c2.891-1.965,6.196-4.446,8.467-4.549c2.169-0.104-0.413-0.931-3.718-1.034c-3.304-0.103-11.152-3.619-13.32-5.997
		c-2.169-2.275-6.402-7.652-6.608-9.616c-0.207-2.068-0.931-5.687-3.306-8.064c-2.374-2.379-4.853-6.411-7.745-8.686
		c-2.891-2.275-5.989-4.033-4.336-6.101c1.651-2.172,10.842-7.238,6.919-8.685c-1.138-0.414-2.685-1.138-4.234-2.068l-0.311,0.31
		c-1.549,0-7.641,2.585-9.294,4.343c-1.651,1.758-5.163,2.688-9.705,2.688c-4.44,0-4.028,3.516-4.338,5.48
		c-0.413,1.964-3.306,3.31-6.3,3.826c-2.995,0.518-4.337,5.894-5.782,7.961c-1.445,2.068-7.849,5.171-11.566,5.377
		c-3.718,0.207-6.608,2.378-7.331,3.206c-0.826,0.828,2.995,2.068,4.027,3.722c0.93,1.551-1.343,3.102-4.338,3.619
		c-2.994,0.517-7.951,0.104-10.223,0.931c-1.033,0.31-1.962,0.518-3.098,0.518v0.103c0,0,2.995,2.171,8.364,2.998
		c5.369,0.828,11.152,2.999,13.528,5.584c2.374,2.584,6.298,7.444,7.435,10.132c1.136,2.792,2.685,4.343,4.854,5.583
		c2.168,1.137,4.233,2.584,6.093,1.964c1.756-0.621,2.993-2.378,3.614-4.86c0-0.207,0.104-0.517,0.206-0.724
		c0.414-1.964,0.929-5.272,2.271-7.341c0.311-0.62,0.723-1.034,1.136-1.138l0,0c0.31-0.206,0.723-0.413,1.137-0.516
		c1.135-0.208,2.58-0.724,3.924-1.344l0,0c0.62-0.311,1.343-0.621,2.271-1.034c1.756-0.828,3.407-1.552,4.646-1.861
		c0.517-0.104,0.93-0.208,1.344-0.208c0.412,0,0.723-0.103,1.032,0c1.548,0.104,2.787,0.828,4.337,1.551
		c0,0,0.104,0.103,0.206,0.103c0.517,0.208,0.931,0.415,1.447,0.621C120.44,561.493,118.374,561.286,120.542,560.045z"/>
</g>
<g transform="rotate(0,874 358) translate(874 358) scale(1,1)">
	<path fill="#D2EEFF" stroke="#37A8DB" d="M114.602,515.181c-2.272,1.034-2.581,1.241-5.059,1.861
		c-1.756,0.517-3.306,7.961-3.615,9.513c-1.342,6.824-6.299,4.446-6.299,4.446s-0.517,0.62-2.271,1.757
		c-1.756,1.241-2.893,3.309-5.783,1.654c-2.995-1.654-4.337-2.791-7.952-2.481c-3.613,0.207-7.847-0.93-8.983-2.377
		c-1.136-1.448-2.787-1.862-5.782-0.104s-4.647,2.792-3.925,4.756c0.723,1.964,2.478,4.963-1.136,8.065
		c-3.615,2.999-7.229,8.271-9.294,9.72c-2.064,1.447-4.131,3.826,1.032,5.169c5.267,1.344,11.05,5.273,16.213,5.273
		s6.506-2.172,10.326-2.688c3.615-0.517,7.022-0.517,8.262-0.413c-0.206-0.828-0.311-1.655-0.311-2.378
		c-0.103-1.861,1.445-3.825,3.924-4.756c2.479-0.93,3.202-3.308,1.239-3.619c-1.962-0.31-1.962-0.621-3.613,0.207
		c-1.55,0.827-4.44,0.621-5.783-0.414c-1.342-1.034-0.309-1.654,1.446-1.551c1.754,0.104,11.565-0.413,11.668,1.137
		c0.104,1.551-0.825,6.618,3.408,3.826c4.234-2.894,8.675-5.48,11.669-4.963c2.995,0.517,6.299,2.172,7.022,1.448
		c0.825-0.724,0.723-1.655-1.24-2.378c-1.962-0.724-6.402-1.758-5.474-3.619c0.931-1.757,1.653-2.378,0.104-2.791
		c-1.55-0.414-7.125-2.172-5.886-2.792c1.135-0.62,1.239-1.344,2.994-0.827c1.756,0.517,5.369,2.274,8.675-1.034
		c3.305-3.309,9.293-9.926,8.88-12.304c-0.412-2.378-1.859-5.791,0.207-7.238c0.412-0.31,0.62-0.517,0.62-0.724
		c-2.17-0.93-4.957-2.067-5.888-2.275C122.141,511.769,116.873,514.147,114.602,515.181z"/>
</g>
<g transform="rotate(0,789 349) translate(789 349) scale(1,1)">
	<path fill="#A8DFFF" stroke="#37A8DB" d="M52.554,538.346c1.136,0.621,2.581,1.344,4.13,1.964c2.789,1.035,3.718,4.757,3.822,6.618
		c0.102,1.861,3.924,0.311,8.157-0.207c4.234-0.517,4.853,0.31,8.157,0.518c3.306,0.206,3.924,1.033,3.306,2.583
		c-0.62,1.551-0.931,2.689,0.206,4.861c1.239,2.171-3.201,1.654-5.061,1.757c-1.858,0.103-0.412,2.895-2.272,2.895
		c-1.857,0-2.374,1.034-3.819,1.964c-1.447,0.931,7.641,3.516,11.564,4.86c4.028,1.344,6.196,1.241,10.018,0.414
		c3.82-0.828,2.581,2.688,6.402,4.549c3.819,1.861,2.685,4.653,3.407,7.755c0.723,3.102,6.815,2.274,11.358,3.205
		c4.544,0.931,8.984,2.481,11.36,2.688c2.479,0.103,5.886-1.034,8.26-2.378c1.653-1.033,3.409,0,4.234,0.621
		c2.788-1.034,7.229-2.378,6.195-3.309c-1.239-1.137-1.031-2.585,1.344-1.654c2.374,1.033,6.712,4.446,10.223,4.239
		c3.512-0.207,6.093-2.378,9.397-1.965c3.305,0.415,5.783,0.311,7.022-1.55c1.239-1.964-2.376-3.516-0.827-3.722
		c1.55-0.208,3.614,1.551,6.3,0.207c2.685-1.344,3.098-1.964,1.651-3.826c-0.929-1.137-1.445-2.585-1.755-3.929
		c-1.344-0.104-4.646,0-8.262,0.414c-3.82,0.517-5.266,2.688-10.326,2.688c-5.163,0-11.05-4.032-16.213-5.273
		c-5.267-1.344-3.097-3.619-1.032-5.169c2.065-1.448,5.679-6.721,9.294-9.719c3.613-2.999,1.858-5.998,1.136-8.065
		c-0.723-1.964,0.93-2.895,3.925-4.756c2.993-1.757,4.749-1.344,5.782,0.104c1.137,1.447,5.267,2.688,8.983,2.378
		c3.614-0.208,5.061,0.827,7.952,2.481c2.994,1.655,4.027-0.414,5.783-1.655c1.755-1.241,2.271-1.758,2.271-1.758l-3.305-1.758
		c-2.168-1.137-3.821-2.792-4.854-5.583c-1.135-2.791-5.059-7.548-7.435-10.133c-2.375-2.584-8.158-4.756-13.527-5.583
		c-5.37-0.621-8.363-2.792-8.363-2.792v-0.104c-1.344,0-2.789-0.414-4.959-1.344c-3.819-1.655-7.743,0.827-10.222,3.205
		c-2.478,2.275-8.262,4.55-12.599,6.824c-4.337,2.378-7.021,1.137-12.393,1.654c-5.369,0.621-5.575-0.828-7.847-1.654
		c-2.272-0.724-5.68-0.621-7.022,0.517c-1.342,1.241-5.369-0.31-7.436-1.241c-2.063-0.931-3.511-0.517-5.059,0.827
		c-1.653,1.345-3.305,2.896-2.272,4.757c1.033,1.757-1.032,1.034-3.717,2.999s-7.85,2.17-9.501,1.861
		c-1.55-0.31-5.886,0.309-8.056,2.688c-2.064,2.377-2.787,3.412-5.781,3.412L52.554,538.346z"/>
</g>
<g transform="rotate(0,708 375) translate(708 375) scale(1,1)">
	<path fill="#29ACF6" stroke="#37A8DB" d="M212.964,557.118c-2.376,1.344-5.783,2.481-8.262,2.378
		c-2.478-0.104-6.815-1.758-11.358-2.688c-4.544-0.93-10.636-0.103-11.358-3.205c-0.725-3.102,0.412-5.997-3.409-7.754
		c-3.819-1.862-2.58-5.377-6.402-4.55c-3.821,0.828-6.092,0.931-10.017-0.413c-3.924-1.344-13.011-3.929-11.565-4.86
		c1.445-0.93,1.962-1.964,3.821-1.964c1.858,0,0.413-2.791,2.271-2.895c1.86-0.104,6.3,0.31,5.061-1.758
		c-1.238-2.172-0.929-3.31-0.31-4.86c0.62-1.551,0.104-2.378-3.304-2.585c-3.305-0.207-3.925-1.137-8.157-0.517
		c-4.234,0.517-8.056,2.171-8.159,0.207c-0.103-1.861-1.033-5.583-3.82-6.617c-1.549-0.517-3.099-1.345-4.132-1.965
		c-0.929-0.517-2.271-0.621-3.303-0.207c-1.137,0.414-2.479,1.033-2.995,1.344c-0.929,0.621-6.094,4.963-6.918,5.377
		c-0.724,0.414-1.86,0-1.86,0s-1.135,8.582-5.473,11.063c-4.336,2.481-3.201,3.412-8.364,3.929
		c-5.163,0.517-10.119,3.722-10.017,5.687c0.104,1.964,1.859,5.48-4.234,7.031c-6.092,1.55-9.19,3.205-10.43,4.652
		c-1.239,1.448-2.168,2.275-4.646,1.137c-2.479-1.137-4.13-1.344-6.3,0.104c-2.168,1.448-3.303,2.896-7.743,3.412
		c-4.44,0.621-2.893,2.896-6.506,3.103c-3.512,0.206-9.089,2.275-7.745,4.652c1.343,2.275,1.239,5.273,5.267,7.755
		s7.642,4.55,8.054,5.997l0.517,0.413c0.104-0.62,0.104-1.137,1.239-1.55c2.479-0.931,1.859-1.035-0.103-2.172
		c-1.962-1.137,0.825-1.241-0.723-2.688c-1.756-1.447-2.789-2.688,0.103-1.344c2.892,1.447,2.788,2.171,5.989,1.757
		c3.201-0.414,7.642-0.931,9.811,0.104c2.168,1.034,4.232,2.274,3.924-0.104c-0.31-2.378,0.517-3.516,3.201-3.619
		c2.685-0.104,3.511,1.344,5.68-0.207c2.168-1.551,0.206-1.862,2.582-2.792c2.374-0.827,12.494-2.378,3.924,1.964
		c-8.572,4.342-10.946,5.48-9.812,5.997c1.137,0.517,8.778-2.481,11.567-1.551c2.685,0.828,8.363,1.448,10.43,1.448
		c2.168,0,8.26,0.621,4.336,2.171c-3.924,1.551-7.435-0.62-9.396,0.311c-1.962,0.93-1.446,2.378,1.445,4.032
		s9.811,1.551,13.114,0.828c3.305-0.724,6.712-0.828,9.811,1.344c3.098,2.172,6.3,4.136,5.68,1.55
		c-0.62-2.584-2.789-2.894-0.104-4.963c2.687-2.067,3.615-4.239,0.517-3.205c-3.097,1.138-4.025-0.413-3.924,0.931
		c0.104,1.344,0.104,3.516-2.271,1.448c-2.375-2.068-5.06-2.172-1.652-4.032c3.407-1.965,4.44-3.93,5.369-5.584
		c0.931-1.654,2.687-2.791,0.931-1.964c-1.755,0.931-7.951,1.964-8.055,0.724c0-1.241,2.374-5.894,2.685-3.826
		c0.206,2.068,0.929,3.308,5.37,1.861c4.337-1.551,7.95-1.965,11.359-4.24c3.305-2.275,6.608-2.999,9.707-2.999
		c3.097,0,5.162,0.517,1.755,1.345c-3.408,0.827-13.012,3.723-11.462,4.239c1.549,0.517,10.739,3.412,13.218,3.515
		c2.479,0.104,6.919-0.207,7.744,2.792c0.826,2.999,0.516,3.825-0.207,2.688c-0.723-1.241-3.407-2.999-2.994-0.931
		c0.414,2.068,0.826,3.723,3.924,2.999c3.099-0.827,1.963-3.308,5.887-3.723c3.924-0.413,12.804-1.757,16.109-3.308
		c3.407-1.655,4.336-1.758,6.195-1.655c1.858,0.104,1.962-0.723,0.206-1.241c-1.651-0.517-2.582-1.033-0.618-1.24
		c1.962-0.207,7.435-0.207,4.025-1.551c-3.407-1.344-8.054-2.792-6.814-3.413c1.239-0.62,2.375-0.93,4.646,0.311
		c2.168,1.241,5.68,1.447,7.642,1.757s0.104,0.931-1.445,2.378c-1.55,1.551-3.305,2.792-1.033,3.619
		c2.168,0.828,5.577-0.206,7.642-1.964c2.065-1.758,5.267-5.066,7.332-6.204c0.413-0.207,0.93-0.414,1.55-0.724
		C216.371,557.118,214.616,556.084,212.964,557.118z"/>
</g>
<g transform="rotate(0,396 369) translate(396 369) scale(1,1)">
	<path fill="#0069A4" stroke="#37A8DB" d="M122.13,586.589c3.303,1.034,4.957,1.965,5.679,0.207c0.619-1.653,4.749-2.999,7.848-1.24
		c3.099,1.861,9.294,0.517,11.669,0.206c2.376-0.206,9.19-2.274,9.294-4.963c0.103-2.688-2.271-3.308-4.44-3.308
		s-9.398-0.415-7.951-2.378c1.445-2.068,4.749-4.859,1.031-6.411c-3.717-1.551-4.957-2.792-4.853-4.859
		c0.102-2.068-1.652-7.031-3.718-9.409c-1.962-2.378-1.343-8.168-3.717-9.927c-2.376-1.757-0.517-5.169-3.511-6.823
		c-2.995-1.654-7.848-2.999-8.262-1.034c-0.516,1.964-1.239,2.688-3.201,2.378c-1.858-0.208-1.652-0.725-2.168-2.585
		c-0.516-1.862-1.343-7.135-4.44-8.996c-3.099-1.861-5.473-7.444-7.745-7.444c-2.272,0-3.614-0.311-2.891-2.172
		c0.619-1.861,2.479-3.619-1.859-4.549c-4.234-0.931-4.957-2.069-5.473,0.103s-0.206,7.135-1.962,8.686
		c-1.859,1.861-3.511,4.446-1.548,7.03c1.962,2.482,1.651,7.755,1.136,9.72c-0.516,1.964-3.202,6.721-3.202,8.686
		c0.103,1.965,1.342,8.996,1.239,10.753c-0.104,1.758,0.516,4.342-2.788,5.998c-3.305,1.653-7.435,6.1-12.599,6.616
		c-5.163,0.518-6.918,0-10.842,2.172c-3.925,2.172-7.229,4.343-10.74,5.273c-3.51,0.931-4.646,2.792-7.848,2.792
		c-3.304,0-7.435-0.207-7.228,2.275c0.207,2.482,2.891,7.651,6.299,6.514c3.304-1.034,5.473-1.344,7.952-1.241
		c2.478,0.103,2.891-0.516,2.582,1.448c-0.31,1.861,2.995,4.136,4.647,2.999c1.652-1.241-1.549-3.31,0.31-4.344
		c1.755-0.93,5.37,0.208,5.782-0.619c0.414-0.828,1.033-4.24,4.338-4.757c3.304-0.517,5.989-0.206,7.642,1.551
		c1.652,1.758,3.407,7.135,7.125,2.999c3.717-4.136,5.885-9.305,7.951-10.65c1.961-1.448,3.511-3.619,6.506-2.584
		c2.995,1.033,7.847,3.102,12.082,3.929c4.131,0.827,7.333,2.584,7.643,4.135c0.309,1.551,3.303,3.826,3.303,3.826"/>
</g>
<g transform="rotate(0,231 388) translate(231 388) scale(1,1)">
	<path fill="#A8DFFF" stroke="#37A8DB" d="M121.906,577.101c0.723-1.446,6.092-5.893,8.158-6.514
		c2.065-0.62,1.652,1.551,0.723,4.032c-0.93,2.481-0.207,4.239,3.098,4.86c3.304,0.62,8.674-2.379,9.81-3.412
		c1.136-1.137,3.201-1.448,5.266-0.827c2.065,0.62,2.065,3.309,0.103,4.55c-1.859,1.24-3.717,3.618-1.652,4.343
		c2.065,0.826,8.467,5.789,11.049,7.548c2.582,1.654,6.815,2.998,7.228,2.48c0.413-0.517,3.408-1.654,6.093-1.344
		c0.93,0.104,1.136,0.518,1.033,1.033c0.62-0.103,4.131-0.619,6.299-0.619c2.272,0,5.164-1.034,5.37-2.998
		c0.103-1.965,4.647-3.103,5.783-6.101c1.239-2.999,4.13-2.999,6.403-2.999c2.272,0.104,0.309-0.414,4.027-2.172
		c3.717-1.758,2.582-3.825,5.164-4.652c2.478-0.931,3.924,1.653,5.576,3.102c1.755,1.345,2.892,1.241,6.712,1.034
		c3.717-0.207,1.239-4.756-0.104-6.308c-1.136-1.344,0.31-2.584,0.723-2.999l0,0c-2.478-0.104-4.647,0.104-7.951,1.241
		c-3.305,1.035-6.093-4.032-6.299-6.513c-0.104-0.724,0.206-1.138,0.723-1.448h-0.31c0,0-0.31-1.448-5.369-2.585
		c-5.061-1.241-3.305-1.138-3.202-2.688c0.104-1.551-1.136-1.551-4.44-2.172c-3.304-0.62-1.756-2.378,0.31-3.619
		c2.065-1.137,0.723-2.895-2.272-4.756c-2.995-1.861-1.652-2.481,0.206-3.93c1.859-1.447,2.066-2.688,2.066-4.342
		c0-1.551,0.31-2.998,1.445-4.24c1.033-1.344,0.723-2.895-0.103-3.826c-0.827-1.034-5.06,1.035-9.5,2.999
		c-4.44,2.069-6.196,1.552-9.087,1.448c-2.891-0.207-8.984,0.208-12.288,0.724c-3.305,0.517-11.256-1.757-14.457-3.412
		c-3.201-1.655-5.37-1.758-11.153-1.758c-5.783,0-12.288-0.206-17.245-0.62c-4.853-0.414-7.951-1.137-9.397-2.896
		c-1.548-1.757-3.924-2.171-8.57-3.309c-4.544-1.137-3.924-2.171-3.305-3.619c0.62-1.344,0.93-2.999,0.62-3.825
		c-0.31-0.827-2.892-3.102-4.957-3.102c-2.065,0-3.408,0.206-3.718,1.861c-0.413,1.55-0.413,2.584-2.582,3.102
		c-2.065,0.517-11.152-2.792-11.152-2.792l-0.516-1.24c-0.311,4.033-0.62,8.996-0.826,10.65c-0.31,2.792-1.136,4.446,1.755,7.444
		c2.892,2.999,5.783,5.894,2.169,7.341s-8.261,4.239-7.848,6.617c0.413,2.379,2.892,2.792-1.445,5.48
		c-4.44,2.688-12.599,9.719-20.963,11.477c-8.468,1.758-14.767-0.103-16.729,2.275c-0.517,0.724-0.724,1.344-0.827,1.861
		l0.103,0.207c0,0,5.99,2.896,7.229,4.653c1.239,1.654,2.272,3.722,4.854,4.343c2.581,0.62,6.299,1.033,9.293,1.033
		c2.892,0,10.946,1.862,9.087,3.413c-1.755,1.55-6.609,3.618-5.473,4.756c1.136,1.033,8.055,0.62,10.533-0.517
		c2.582-1.138,4.131,0.413,4.44,2.378c0.31,1.964-0.206,4.757,2.582,4.446s5.06-2.482,9.397-3.619
		c4.337-1.138,5.679-2.172,7.538-3.205c1.859-1.034,4.131-1.345,5.783-0.932c1.652,0.414,15.179,3.206,15.179,3.206h0.104
		c1.343-1.344,2.478-2.792,2.582-3.619C114.988,581.341,121.183,578.549,121.906,577.101z"/>
</g>
<g transform="rotate(0,346 429) translate(346 429) scale(1,1)">
	<path fill="#0888D0" stroke="#37A8DB" d="M46.766,557.608c-2.375-0.62-4.646,0.724-5.473,2.481
		c-0.826,1.655-2.271,3.412-4.234,4.653c-1.962,1.241-1.239,1.344,1.033,2.378c2.272,1.035-0.207,2.585,0,4.86
		c0.206,2.274-1.136,4.445-1.446,6.41c-0.31,1.965,1.239,2.172,3.098,2.172s3.201-1.034,4.027-0.104
		c0.827,0.931,3.408,2.481,6.196,3.723c2.789,1.24,6.609,1.138,9.293,2.068c2.686,0.931-1.858,2.274,1.033,2.998
		s2.375,2.482,2.995,3.516c0.62,1.034,6.815,1.758,10.43,2.688s1.549,3.723,1.445,5.687c-0.103,1.965,0.104,3.723-2.581,4.86
		c-2.685,1.137-0.31,4.136-2.892,6.721c-2.168,2.171-4.646,6.101-5.369,7.341c4.234,0,7.435-1.654,10.739-2.378
		c3.408-0.827,7.435,1.344,8.055-2.585c0.62-3.826,0.103-14.476-1.032-15.406c-1.239-0.931-2.169-5.273-2.479-7.135
		c-0.413-1.86,2.168-5.997,4.027-6.307c1.756-0.311,1.962,0.724,1.343,2.171c-0.62,1.448-3.201,6.617-0.929,8.272
		c2.271,1.653,5.163,0.62,7.951,0.103c2.788-0.517,3.615-0.31,3.615-1.55c0.103-1.241,1.135-2.275,2.271-1.034
		c1.033,1.24,2.789,1.964-0.723,2.998c-3.511,1.137-9.087,1.758-9.5,4.032c-0.413,2.275-4.854,7.031,2.685,7.444
		c7.435,0.414,8.262,3.93,11.875,4.86c3.615,0.931,5.577,1.551,9.191-0.621c3.614-2.171,3.924-1.447,4.027-4.136
		c0.207-2.688,1.446-2.999,3.924-3.412c2.479-0.414,5.576-2.792,6.918-4.032c1.343-1.241,4.028-4.756,6.403-4.756
		c2.272-0.104,4.543-2.999,4.543-1.552c-0.103,1.448,0.104,6.824,4.957,8.479c4.854,1.654,5.061,0.826,8.262-0.827
		c3.305-1.552,3.511-2.379,4.544-3.826c0.929-1.448,0.103-1.138,2.581-1.551c2.582-0.518,2.995-1.965,1.653-2.896
		c-1.343-0.827-4.958-3.619-3.305-4.033c1.652-0.31,2.478-1.86,1.135-3.309c-1.342-1.344-3.511-3.722-1.033-4.963
		c2.479-1.24,12.394-8.581,10.844-11.477c-1.446-2.791-1.549-6.101-1.239-8.892c0.31-2.792-3.201-10.65-1.653-10.547
		c1.549,0.104,3.925-0.517,4.442,2.378c0.515,2.896-1.241,12.614-0.311,14.786c0.929,2.171,2.685,3.411,4.957,1.654
		c1.651-1.241,4.13-3.309,5.679-5.17l0.619-2.896c0,0-3.097-1.757-4.336-3.722c-1.239-1.965,1.239-2.379,4.853-2.172
		c3.511,0.104,4.75-1.137,5.371-2.584c0.103-0.312,0.517-0.414,1.135-0.414c-0.827-0.724-6.506-5.894-6.506-9.306
		c0-3.619-3.718-9.409-5.576-10.547c-1.653-0.931-3.511-6.1-1.549-6.514h-0.31c0,0-2.995-2.275-3.303-3.825
		c-0.311-1.551-3.511-3.31-7.643-4.136c-4.13-0.827-9.086-2.792-12.081-3.929c-2.995-1.034-4.44,1.137-6.505,2.585
		c-1.963,1.447-4.234,6.514-7.952,10.649c-3.717,4.136-5.473-1.241-7.125-2.999c-1.652-1.758-4.337-2.067-7.641-1.551
		c-3.305,0.518-3.924,3.929-4.338,4.756c-0.413,0.828-4.027-0.31-5.782,0.621c-1.756,0.931,1.342,3.103-0.31,4.343
		c-1.652,1.241-4.957-1.034-4.647-2.999c0.31-1.861-0.104-1.344-2.582-1.448c-0.414,0.311-1.859,1.655-0.723,3
		c1.342,1.551,3.82,6.1,0.103,6.308c-3.821,0.206-4.957,0.31-6.712-1.034c-1.755-1.345-3.098-3.929-5.576-3.102
		c-2.479,0.93-1.342,2.895-5.163,4.652c-3.718,1.758-1.755,2.274-4.027,2.171s-5.267,0-6.402,2.999
		c-1.239,2.998-5.68,4.135-5.783,6.101c-0.103,1.964-2.995,2.997-5.37,2.997c-2.168,0-5.68,0.518-6.299,0.622
		c-0.309,0.93-1.755,2.171-2.065,2.895C54.098,557.712,49.038,558.125,46.766,557.608z"/>
</g>
<g transform="rotate(0,248 445) translate(248 445) scale(1,1)">
	<path fill="#0069A4" stroke="#37A8DB" d="M170.169,590.204c2.686-1.138,2.375-2.896,2.582-4.859
		c0.104-1.965,2.168-4.757-1.446-5.687c-3.615-0.931-9.707-1.654-10.43-2.688c-0.62-1.034-0.104-2.896-2.995-3.516
		c-2.891-0.724,1.653-2.068-1.032-2.998c-2.685-0.931-6.506-0.827-9.293-2.068c-2.789-1.24-5.37-2.896-6.196-3.825
		c-0.827-0.931-2.169,0.104-4.028,0.104c-1.858,0-3.408-0.208-3.098-2.172c0.31-1.965,1.652-4.136,1.445-6.41
		c-0.206-2.275,2.272-3.827,0-4.86c-2.271-1.034-2.995-1.138-1.032-2.378c1.962-1.241,3.304-2.896,4.233-4.652
		c0.827-1.655,3.099-2.999,5.473-2.482c2.272,0.518,7.435,0.103,7.848-1.138s3.717-3.618,1.033-3.929
		c-2.685-0.311-5.679,0.828-6.092,1.344c-0.414,0.518-4.647-0.827-7.229-2.481s-8.983-6.721-11.049-7.548
		c-2.065-0.826-0.309-3.102,1.653-4.342c1.858-1.241,1.961-3.931-0.104-4.55c-2.065-0.621-4.131-0.311-5.267,0.827
		c-1.136,1.138-6.505,4.136-9.81,3.412c-3.304-0.621-4.13-2.481-3.098-4.86c0.93-2.481,1.342-4.652-0.723-4.032
		c-2.065,0.62-7.435,5.066-8.158,6.513c-0.723,1.448-6.919,4.239-7.229,6.411c-0.414,2.172-5.679,6.824-8.158,7.962
		c-2.479,1.137-5.576,1.654-7.022,3.412c-1.445,1.654-1.755,2.895-5.989,3.723c-4.234,0.826-7.436,1.55-9.397,3.205
		c-1.962,1.551-9.191,7.754-13.734,7.961c-4.544,0.207-9.397,2.585-9.707,4.55c-0.414,1.965,0.206,3.309-2.272,5.79
		c-2.479,2.481-9.191,6.825-8.364,9.616c0.826,2.792,0.826,5.273,1.342,7.548c0.517,2.274,5.99,8.271,8.674,8.789
		c2.685,0.413,9.19,1.344,7.125,3.723c-2.066,2.274-3.305,3.411-5.061,4.031c-1.755,0.725-3.201,2.378-0.103,2.999
		c2.995,0.724,4.234,0.311,3.202,2.896c-1.033,2.584-3.305,8.685-2.995,10.546l0.309,0.207c1.033-0.413,2.169-0.311,3.511-1.034
		c1.756-0.931,1.446-0.517,1.549,0.724c0.104,1.345-0.103,3.723,1.343,3.723c1.549,0,2.065,0.206,1.032,1.344
		c-1.032,1.138-1.755,3.517,1.653,2.275c3.407-1.241,6.402-2.275,8.468-1.241c2.065,1.034,11.772-0.103,8.777-1.551
		c-3.098-1.447-6.299-1.345-4.75-2.171c1.446-0.828,2.272-2.172,4.131-0.312c1.858,1.861,5.37,5.378,6.402,4.137
		c1.033-1.241,2.995-7.238,7.332-7.858c4.234-0.62,11.772,0.207,11.875-2.274s1.756-7.858-0.723-8.065
		c-2.479-0.206-11.049-2.585-11.152-4.652c0-2.068,0.826-0.518,4.234-0.206c3.408,0.413,4.234,0.516,5.783-0.414
		c1.445-0.932,3.098-0.932,4.233-0.104c1.033,0.827,1.343,2.378,4.441,1.344c3.098-0.931,6.299-1.758,4.646,0.414
		c-1.548,2.171-4.337,5.479-4.543,6.514c-0.207,0.931,3.614,0.518,6.092,0.414c2.479-0.104,7.229,1.758,3.098,2.791
		c-4.131,1.034-8.777,0.104-8.777,2.275c0.103,2.171,0.826,2.481-1.652,4.342c-2.479,1.861-1.962,4.652,3.201,2.481
		c5.163-2.17,11.049-5.377,12.805-4.859c1.755,0.518,10.12-0.62,10.533-2.791c0.414-2.172-0.723-3.619-3.407-2.379
		c-2.686,1.241-4.75,1.345-6.816-0.517c-2.271-1.758-2.479-2.999-1.239-4.653c1.239-1.653-0.413-2.067,5.473-2.895
		c5.886-0.931,8.261-2.688,3.408-2.688s-8.571-2.378-8.468-3.826c0.103-1.551,2.169-2.998,2.272-1.447
		c0.104,1.551,0.826,2.688,3.511,3.309c2.789,0.62,4.441-0.104,2.582-0.931c-1.858-0.827-4.957-1.757-2.582-2.378
		c2.375-0.517,2.478,0.207,4.234-0.413c1.755-0.621,4.854-1.655,4.131-0.518c-0.723,1.241-2.995,5.377,0.31,5.273
		c3.304-0.104,9.706-2.378,13.424-1.965c3.614,0.311,6.712,0.621,7.229-1.241c0.517-1.964,1.549-2.067,2.686-1.86
		c1.135,0.207,1.445,1.241,0.309,2.896c-1.136,1.654-4.027,4.342-1.652,6.203s4.647,4.653,8.881,4.653h0.103
		c0.723-1.241,3.201-5.17,5.37-7.342C169.859,594.34,167.587,591.342,170.169,590.204z"/>
</g>
<g transform="rotate(0,120 442) translate(120 442) scale(1,1)">
	<path fill="#0888D0" stroke="#37A8DB" d="M111.571,632.701c2.995,0.104,10.017-4.238,10.946-5.376
		c0.826-1.24-1.652-1.551-3.408-0.517c-1.652,1.033-7.951,4.652-7.744,2.791c0.206-1.861,0.826-3.411,1.032-5.066
		c0.207-1.55,1.446-1.344,2.789-1.24s4.337-2.688,5.68-1.551c1.445,1.241,4.13,2.067,4.13,3.102c0,1.033-0.103,1.551,1.652,1.447
		c1.756-0.103,2.272,1.034,0.413,1.551c-1.858,0.621,1.239,1.138,4.957,1.138c3.717,0,13.527-2.585,10.12-3.103
		c-3.511-0.517-9.81-3.825-7.229-3.411c2.582,0.31,6.712,1.551,9.19,0.413c2.479-1.137,3.201-1.344,2.891,0.311
		c-0.309,1.551-0.929,2.379,2.686,2.585c3.614,0.207,6.093,0,2.788,2.481c-3.304,2.481-6.712,5.377-0.413,3.825
		c6.196-1.55,10.43-6.41,13.425-6.41c2.994,0,1.239-3.723-0.517-2.688c-1.755,0.93-6.403,2.688-6.609,1.55
		c-0.104-1.137-1.549-2.896,2.065-3.619c3.614-0.62,5.267-1.757,7.435,0c2.169,1.759,7.848,1.655,6.609,0.518
		s-5.266-2.481-3.924-3.516c0.31-0.207,0.62-0.413,0.929-0.518l-0.31-0.206c-0.31-1.861,1.962-7.962,2.995-10.547
		c1.032-2.584-0.104-2.172-3.202-2.896c-2.994-0.724-1.548-2.377,0.104-2.998c1.755-0.724,2.891-1.758,5.06-4.032
		c2.065-2.274-4.44-3.205-7.125-3.722c-2.685-0.414-8.261-6.515-8.674-8.789c-0.517-2.274-0.517-4.859-1.342-7.549
		c-0.826-2.791,5.886-7.134,8.365-9.615c2.478-2.481,1.858-3.826,2.271-5.79c0.414-1.965,5.164-4.343,9.707-4.55
		s11.669-6.307,13.631-7.961c1.962-1.551,5.164-2.379,9.397-3.206c4.234-0.826,4.544-2.067,5.989-3.722
		c1.446-1.655,4.544-2.275,7.022-3.412c1.445-0.621,3.717-2.482,5.576-4.343h-0.103c0,0-13.528-2.792-15.18-3.205
		c-1.652-0.414-3.924-0.104-5.783,0.931c-1.859,1.033-3.098,2.067-7.538,3.205c-4.337,1.137-6.609,3.309-9.397,3.618
		c-2.789,0.311-2.272-2.481-2.582-4.445c-0.31-1.965-1.858-3.517-4.44-2.378c-2.582,1.137-9.501,1.551-10.534,0.517
		c-1.135-1.034,3.717-3.206,5.473-4.756c1.755-1.552-6.196-3.413-9.087-3.413c-2.892,0-6.712-0.413-9.294-1.034
		c-2.581-0.62-3.613-2.584-4.854-4.342c-1.239-1.654-7.228-4.653-7.228-4.653l-0.104-0.208c-0.207,1.551,0.31,2.896-3.408,4.239
		c-4.854,2.068-12.598,2.793-15.18,4.137c-2.582,1.344-5.989,1.24-10.223,1.344c-4.131,0.104-5.68,2.172-8.365,0.931
		c-2.685-1.24-2.685-2.586-4.75-0.517c-1.962,2.067-4.337,11.477-7.332,11.063c-2.994-0.414-6.402-0.931-5.577,2.171
		c0.93,3.102,3.511,6.824,5.99,7.858c2.479,1.137,4.854,3.411,4.647,5.066c-0.207,1.654,0.309,2.378-2.892,2.378
		c-3.304,0-8.674-0.413-9.81,1.344c-1.136,1.758-3.717,7.858-7.848,7.651c-4.13-0.104-8.055-2.068-11.978-1.137
		c-3.925,0.931-4.44,3.205-7.642,2.791c-3.201-0.413-6.299-4.963-10.636-3.723c-4.337,1.241-5.679,1.241-7.125,0.518
		c-1.445-0.724-5.472,1.138-3.201,2.586c2.169,1.55,3.718,3.205,1.859,5.479c-1.859,2.378-3.717,5.583-2.375,7.341
		c1.033,1.551,5.061,8.168,2.892,10.443c0.206,0.104,3.717,2.171,1.239,3.516c-2.479,1.344-8.055,0.206-7.745,2.792
		c0.31,2.585,3.202,2.274,0.826,4.342c-2.478,2.172-4.957,4.239-2.788,5.894c2.065,1.552,8.674,2.792,6.403,4.757
		c-2.272,1.964-3.615,3.929-1.962,6.41c1.651,2.378,1.032,5.171,4.75,5.377c3.717,0.207,5.061-0.104,5.267,2.067
		c0.207,2.172-3.408,4.653,2.892,3.619c6.196-1.033,7.331-1.344,10.946,0.311c3.511,1.758,7.951,2.171,9.5,1.034
		c1.549-1.138,11.152-4.239,11.566-7.342c0.413-3.102,3.717-6.307,6.402-5.17c2.685,1.138,3.614,7.651,6.712,8.686
		c3.098,1.034,7.332,0.414,7.332,2.585c0.104,2.172-0.516,3.826,2.788,3.826c3.202,0,7.229-0.207,7.642,3.411
		c0,0,0.104,0.104,0.31,0.311C110.125,632.599,110.848,632.599,111.571,632.701z"/>
</g>
<g transform="rotate(0,16 511) translate(16 511) scale(1,1)">
	<path fill="#0888D0" stroke="#37A8DB" d="M207.206,561.841c-3.201,0-2.685-1.654-2.788-3.826c-0.103-2.171-4.234-1.551-7.332-2.584
		c-3.098-1.034-4.027-7.548-6.712-8.686c-2.686-1.138-5.99,2.067-6.403,5.169c-0.413,3.103-10.017,6.204-11.565,7.342
		c-1.55,1.138-5.99,0.724-9.501-1.033c-3.511-1.759-4.646-1.346-10.946-0.311c-6.196,1.034-2.685-1.448-2.891-3.619
		c-0.207-2.171-1.549-1.861-5.267-2.068c-3.717-0.206-3.201-2.998-4.75-5.376c-1.652-2.379-0.207-4.446,1.962-6.411
		c2.271-1.965-4.337-3.205-6.403-4.756c-2.065-1.551,0.414-3.723,2.789-5.895c2.479-2.17-0.414-1.757-0.827-4.342
		c-0.31-2.585,5.164-1.447,7.745-2.791c2.479-1.346-1.033-3.31-1.239-3.517c-0.413,0.414-1.033,0.724-1.858,0.828
		c-5.577,0.413-8.261-3.93-11.36-2.689c-3.098,1.241-3.51,2.482-7.021,2.792c-3.614,0.311-13.734-1.345-18.071,0.725
		c-4.337,2.067-5.783,1.55-9.501,1.24c-3.717-0.311-10.739-0.517-12.701,3.102c-1.963,3.619-6.093,13.235-10.946,15.51
		c-4.854,2.275-3.925,3.412-7.952,2.275c-4.027-1.138-7.229-3.723-9.5-2.999c-2.375,0.724-2.479,2.999-2.788,4.652
		c-0.311,1.654-1.859,6.928-1.136,9.1c0.723,2.171,1.136,1.447,1.755,0.311c0.62-1.138,4.13-1.965,3.511,0.103
		c-0.62,2.171-2.479,5.584,0.207,5.584c2.685,0,4.75-4.446,5.782-2.688c1.033,1.757-0.309,1.965,3.925,1.965
		s6.299-0.311,5.989,1.447c-0.31,1.758,0.62,1.861-0.516,3.412c-1.136,1.551-4.441,2.688-2.583,4.55
		c1.962,1.86,1.343,2.584,5.37,2.688c4.028,0.104-12.598,0.311-14.457,0.311c-1.756,0-11.979-2.068-12.599,1.447
		c-0.62,3.619-1.859,10.03-3.718,11.271c-1.858,1.241,0.207,4.756-2.065,3.723c-2.272-1.034-1.755-2.172-3.924-0.932
		c-2.168,1.241-6.815,3.826-6.299,7.238c0.413,3.412,1.549,3.412,0.929,6.928c-0.619,3.516,0.207,6.101-2.994,7.444
		c-3.202,1.344-5.061,2.378-4.441,5.066c0.62,2.585,5.061,10.753,5.473,9.307c0.414-1.448,1.653-4.239,2.686-2.688
		c1.136,1.551,4.13,2.791,3.304,5.996c-0.826,3.206-2.892,6.411-0.517,6.514c2.375,0.104,13.735-1.344,12.805,0.104
		c-1.033,1.447-4.027,1.861-6.919,1.758c-2.892-0.104-6.609-1.034-8.364,0.724c-1.859,1.758-2.375,4.032,0.103,4.859
		c2.478,0.827,8.468,1.965,8.261,3.723c-0.31,1.757-0.93,3.102-0.103,3.309c0.826,0.206,1.239,0,1.652-1.034
		c0.413-1.034,2.995-2.481,2.686-0.518c-0.311,1.965,0,3.516-1.653,3.413c-1.755-0.104-3.304-0.827-3.614,0.724
		c-0.309,1.55-0.413,4.136,2.375,4.446c2.685,0.206,4.854-1.034,6.918,1.447c2.065,2.584,2.478,3.826,3.924,3.723
		c1.445-0.104,1.342-0.931,0.723-2.378c-0.62-1.345-1.859-4.757-0.207-4.86c1.652-0.104,1.652-0.207,1.549,1.24
		c-0.103,1.448-0.31,6.617,1.756,5.17c1.962-1.343,2.995-0.413,4.027,0.207c1.033,0.621,1.858-0.207,3.924-1.033
		c2.065-0.828,2.065-0.415,1.136,1.137c-0.93,1.551-1.756,5.79-4.337,5.79c-2.582,0-3.305,2.482-0.827,2.378
		c2.479-0.103,5.577-1.343,4.75-0.206c-0.826,1.137-2.789,2.998-5.473,2.481c-2.685-0.518-3.717-5.273-3.614-5.791
		c0.103-0.517-1.445-1.034-3.82-1.653c-2.375-0.518-7.435-0.104-7.849,2.067c-0.309,2.172-2.065,3.723,0.723,4.446
		c2.789,0.724,4.957,0.724,4.854,3.308c-0.103,2.586-1.032,3.207-1.548,5.274s-0.827,4.032,2.065,2.48
		c2.892-1.551,6.815-4.445,8.365-3.411c1.652,0.931,3.821-2.171,6.918-1.034c3.098,1.034,9.087,2.688,12.392,4.55
		c3.304,1.86,5.473,1.965,7.642,0.413c2.168-1.551,6.608-4.033,9.913-2.068c3.304,1.966,3.304,2.274,6.299,0.621
		c2.995-1.654,11.049-4.86,13.837-4.86c2.685,0,19.723-10.235,20.756-14.682c1.033-4.343-0.207-12.614-5.06-12.305
		c-4.854,0.311-7.951,0.724-8.054-1.344c-0.104-2.067-0.207-6.928-2.479-5.687c-2.272,1.138-2.169,1.344-4.131,1.138
		c-1.962-0.208-4.131,2.17-3.82,0.31c0.309-1.861,1.342-3.826-0.517-2.896c-1.756,1.034-4.957,1.861-3.407,0.517
		c1.548-1.344,5.369-4.549,5.06-5.997c-0.207-1.446-2.789-2.584-1.239-3.825c1.549-1.241,2.479-3.619,2.582-4.445
		c0.103-0.827,2.168-0.724,1.962,0.931s0.826,10.752,2.995,7.961c2.168-2.792,5.68-8.789,3.201-9.719
		c-2.375-0.828-9.397-4.24-10.739-3.517c-1.342,0.828-6.815,1.345-8.054,0.724c-1.239-0.724-1.549-3.308-4.441-2.067
		c-2.891,1.241-7.435,2.481-5.37,0.104c1.962-2.378,2.065-2.378,0.516-3.619c-1.446-1.137-2.065-2.172-1.549-3.825
		c0.517-1.654,1.342-2.792,0.103-4.239s-5.576-4.446-4.957-5.688c0.62-1.24,2.892,0.828,4.028,1.965
		c1.135,1.034,5.989,2.792,5.886,0.414c-0.104-2.379,1.136-3.516,1.961-4.136c0.827-0.724,0.207-6.101,1.653-5.791
		c1.445,0.311,2.272-0.31,1.962,1.862c-0.31,2.067-1.136,5.583,1.033,4.755c2.168-0.826,1.859-2.171,2.065-3.619
		c0.207-1.446-0.723-2.273,2.272-2.067c2.995,0.207,6.196-0.413,6.093,2.378c-0.103,2.792,1.033,2.379,3.614,1.551
		c2.685-0.827,4.854-0.724,3.407,0.518c-1.548,1.138-10.43,2.896-11.461,5.791c-1.033,2.895-6.3,5.169-2.375,4.859
		c3.924-0.311,13.114-4.55,17.659-4.447c4.646,0.104,12.804,0.104,13.011,2.792c0.207,2.688,4.543,5.894,5.577,2.999
		c1.032-2.896,0.103-3.102,2.168-5.688c1.962-2.584,5.473-6.824,0.517-6.1c-4.854,0.724-8.364,1.447-11.049,0.931
		c-2.582-0.518-7.332-1.965-7.229-3.309c0-1.344-2.994-0.621-3.82-0.414c-0.723,0.206-7.538-0.311-7.435-1.344
		c0.206-1.034,2.169-2.792,3.717-2.275c1.549,0.518,4.44,0.518,5.267-1.654c0.929-2.067,6.712-3.618,7.229-5.48
		c0.516-1.86,0.723-2.585-1.343-4.238c-2.168-1.551-5.885-4.033-5.576-5.895c0.311-1.86,0.93-2.274,2.066-1.343
		c1.135,0.93,4.44,0.206,4.44-1.553c0-1.86,0.516-2.791-1.239-4.031c-1.653-1.24-4.647-4.239-4.131-4.757
		c0.517-0.517,6.609-4.859,7.435-3.722c0.723,1.138,0.827,0.517-0.517,2.481c-1.445,1.964-2.271,4.963-0.929,5.894
		c1.342,1.033,2.479-0.311,3.821-1.344c1.239-1.034,4.75-2.586,2.479,0c-2.272,2.585-3.201,3.101-3.615,5.687
		c-0.309,2.481-1.136,4.136,1.756,1.964c2.892-2.067,3.511-3.722,4.543-2.998c1.033,0.724-1.652,1.964-0.104,2.067
		c1.55,0.104,2.995-0.517,2.066,0.414c-0.827,0.931-3.305,0.206-3.614,1.24c-0.207,1.035,3.924-0.62,4.027,0.725
		c0.103,1.344-1.652,3.204-2.995,2.481c-1.342-0.621-5.163-2.688-5.473-0.827c-0.31,1.861-1.239,4.549,1.239,5.066
		c2.479,0.414,4.027-0.104,7.642,1.24c3.614,1.241,6.402,0.621,7.951-0.62c1.548-1.241,3.407-2.999,4.337-1.551
		c0.929,1.345,5.886,5.687-4.75,5.79c-10.636,0.104-17.555-0.104-13.631,1.965s7.951-0.931,7.641,1.758
		c-0.31,2.688,2.892,6.514,7.332,3.412c4.337-3.102,1.858-4.136,3.511-5.791c1.652-1.653,7.951-5.997,6.403-8.479
		c-1.55-2.481-2.995-3.825-2.169-5.79c0.93-1.964,0.93-2.998,2.065-1.344c1.136,1.654,2.685,0.31,2.375,2.378
		c-0.31,2.068-1.962,4.86,0.62,3.93c2.582-1.034,10.74-11.374,15.593-11.994c4.854-0.621,4.13-1.758,8.674-0.414
		c4.646,1.344,10.533,0.724,13.424-0.517c2.271-0.931,5.473-1.241,8.158-1.345c-0.207-0.206-0.31-0.311-0.31-0.311
		C214.435,561.634,210.511,561.841,207.206,561.841z"/>
</g>
<g transform="rotate(0,536 406) translate(536 406) scale(1,1)">
	<path fill="#70CBFF" stroke="#37A8DB" d="M83.535,542.971c1.549-1.137,5.163-4.446,8.571-4.032
		c3.407,0.414,8.054-0.104,10.636,1.448c2.581,1.551,8.261,2.688,8.983,4.135c0.724,1.448,1.859,2.275,4.854,2.482
		c2.891,0.207,4.646,1.757,5.885,3.103c1.239,1.344,8.572,3.102,10.328-1.345l0.206-8.375l1.033-0.311
		c0.102-0.103,0.206-0.206,0.309-0.413c1.755-2.378,0-5.997-0.619-8.893c-0.62-2.896-3.511-2.999-6.196-4.756
		c-2.685-1.758-3.511-2.171-5.783-2.895c-2.168-0.724-7.538-3.102-9.5-5.583s-3.098-1.758-5.782-0.517
		c-2.582,1.138-5.679-0.621-10.946-1.447c-5.267-0.828-8.365-0.414-14.768-1.035c-0.929-0.103-1.548-0.206-1.755-0.414
		c-2.892-0.517-7.642-0.827-11.152-0.827c-3.718,0-5.576,1.137-7.642,1.964c-2.065,0.931-5.369,1.655-8.881,1.758
		c-3.614,0.206-9.811,3.102-9.811,3.102v0.31c0,0.104,0.104,0.104,0.104,0.207c0.827,1.965,0.723,5.997,2.892,5.377
		c2.169-0.621,5.061-2.689,5.061-1.034c0,1.654-1.239,6.307,0.723,4.86c1.962-1.448,6.195-2.275,4.336,0.31
		c-1.857,2.585-5.163,4.446-4.543,6.824c0.619,2.482-0.516,3.93,3.614,4.964c4.132,1.033,4.956,2.688,5.783,4.032
		c0.826,1.344,0.619,1.447,3.718,1.034c3.099-0.413,7.124-2.584,9.396,0.931c0.104,0.103,0.104,0.208,0.104,0.208
		c1.652-1.035,3.614-2.275,4.646-2.586C79.301,544.935,81.985,544.109,83.535,542.971z"/>
</g>
<g transform="rotate(0,566 430) translate(566 430) scale(1,1)">
	<path fill="#D2EEFF" stroke="#37A8DB" d="M45.79,532.517c4.131,2.688,2.994,5.79,7.849,6.721c4.853,0.931,6.814,1.964,5.266,4.239
		c-1.548,2.378-2.685,4.032,0.104,4.032c2.891,0,2.995-4.239,8.675-4.445c5.783-0.104,10.636,0.724,14.974,0.31
		c4.439-0.414,5.473-4.032,7.229-5.273c1.754-1.138,3.51-1.344,3.51-0.413c0,0.827,1.859,2.792,8.365,0.724
		c6.506-2.067,6.092-1.138,9.396-1.138c3.306,0,10.637-3.411,13.735-2.481c3.097,0.931,7.021,2.896,9.603,4.652
		c2.582,1.758,2.789,1.035,2.789,4.344c0,3.205,0.516,5.687,3.51,3.618c2.994-2.067,5.267-1.551,7.538-1.551
		c2.272,0,9.501-2.585,4.028-4.343c-5.474-1.758-9.295-2.688-12.082-2.688c-2.788,0-5.37-1.448-0.207-1.862
		c5.164-0.413,11.979-4.342,9.397-5.169c-2.686-0.724-12.392,0.93-10.533-1.138c0.62-0.724,1.136-1.345,1.55-1.861
		c-1.033,0-3.822-0.104-7.333-1.861c-4.44-2.171-3.613-3.309-4.957-5.48c-1.341-2.171-0.412-2.998-4.439-2.068
		c-4.028,0.931-5.369,0.517-7.331-0.93c-1.962-1.551-6.919-1.345-10.224-1.138c-3.201,0.311-3.718,0.104-2.272-1.86l-1.032,0.31
		l-0.207,8.271c-1.755,4.447-9.086,2.792-10.325,1.345c-1.239-1.345-2.893-2.896-5.888-3.103c-2.891-0.207-4.13-1.033-4.853-2.481
		c-0.723-1.447-6.402-2.584-8.984-4.135s-7.229-1.034-10.636-1.447c-3.407-0.414-7.022,2.999-8.572,4.032
		c-1.548,1.035-4.336,1.964-6.195,2.689c-1.031,0.413-2.995,1.55-4.646,2.585C44.654,527.14,41.762,529.828,45.79,532.517z"/>
</g>
<g transform="rotate(0,483 465) translate(483 465) scale(1,1)">
	<path fill="#0069A4" stroke="#37A8DB" d="M85.213,520.884c-2.272,1.758-0.206,5.377,1.342,7.755
		c1.549,2.379-7.021,3.412-11.152,3.723c-4.13,0.207-5.886-1.344-8.158-4.032c-2.271-2.688-7.951-7.858-8.674-9.099
		c-0.723-1.345-6.092-3.826-6.815-2.275c-0.62,1.447-1.859,2.688-5.371,2.585c-3.511-0.207-6.092,0.206-4.853,2.172
		c1.239,1.964,4.336,3.722,4.336,3.722l-0.619,2.896c0.619-0.725,1.033-1.448,1.135-2.172c0.516-2.274,1.239-4.55,1.239-2.172
		c0,2.379,0.104,6.308-1.549,7.859c-1.652,1.447-4.957,2.895-5.059,4.756c0.102,1.758-2.685,9.72-0.929,11.787
		c1.652,2.068,3.718,4.136,5.576,5.687c1.859,1.551,2.272,3.102,3.511,5.48c1.239,2.378,2.788,3.93,5.473,5.377
		c2.685,1.447,6.815,1.344,6.3-1.552c-0.517-2.895-1.447-5.066-3.615-4.652c-2.168,0.413-3.614-0.62-4.234,0.62
		c-0.723,1.241-2.581-0.725-2.995-2.068c-0.413-1.344-3.924-2.791,0.723-2.378c4.75,0.414,4.234-0.827,4.338-2.688
		c0.103-1.861-0.929-2.378,1.239-3.411c2.168-1.034-0.414-6.929,1.24-5.791c1.549,1.138,2.271,3.619,2.168,5.584
		c-0.103,2.067-2.066,3.618,0.206,3.516c2.272-0.104,1.756,0.206,3.512,1.24c1.755,1.033,11.462,1.965,12.392,0.414
		c0.826-1.552-0.825-4.653,0.826-5.067c1.651-0.413,0.206-1.033-2.685-1.653c-2.893-0.621-8.984-4.136-6.61-5.895
		c2.376-1.861,5.99-3.102,4.545-4.342c-1.446-1.345,5.061,0,8.468,1.447s5.061-0.311,7.848,0c2.788,0.31,3.305-1.551,3.614-3.723
		c0.309-2.171,0.619,1.964,2.995,0.311c2.374-1.758,5.575-1.964,5.163-4.136c-0.413-2.172-3.099-2.688-0.413-3.309
		c2.787-0.62,3.924-1.758,2.169-3.205c-1.756-1.345,4.027-1.965,1.857-3.206c-2.168-1.241-5.679-2.378-7.641-2.895
		c-1.344-0.414-1.446-1.345-0.827-2.585c-0.517,0.31-1.962,0.93-4.336,1.343C88.104,517.266,87.381,519.126,85.213,520.884z"/>
</g>
</svg>
