<?xml version="1.0" encoding="utf-8"?>
<!-- Generator: Adobe Illustrator 16.0.0, SVG Export Plug-In . SVG Version: 6.00 Build 0)  -->
<!DOCTYPE svg PUBLIC "-//W3C//DTD SVG 1.1//EN" "http://www.w3.org/Graphics/SVG/1.1/DTD/svg11.dtd">
<svg version="1.1" id="sc" xmlns="http://www.w3.org/2000/svg" xmlns:xlink="http://www.w3.org/1999/xlink" x="0px" y="0px"
	 width="492px" height="432px" viewBox="216.005 103.493 492 432" enable-background="new 216.005 103.493 492 432"
	 xml:space="preserve">
<g>
	<path fill="#CDE9F7" stroke="#37A8DB" stroke-linecap="round" stroke-linejoin="round" stroke-miterlimit="10" d="M399.577,533.674
		l-2.64,0.24l-0.239-1.2v-2.642l-1.919-4.803l-5.038,1.201l-3.359-1.441l0.48-4.082l1.679,0.24l2.399-1.2l0.239-0.962l-2.639-4.321
		l-3.359-3.843l-4.317-1.2l-3.359-0.961l2.159-4.563l2.638-1.922l1.68-4.321l0.959-1.2l-1.2-0.481l-1.2-0.72l-1.439,1.441v0.479
		l-2.159,1.44l-0.959-0.72l1.439-4.563v-1.2l-1.199-2.401l-3.838-1.681l-2.159-0.24l-0.24-1.201l-0.48-1.2l-2.877-1.681l-0.72-3.603
		l1.2-5.043l-1.2-1.92l-0.479-0.24h2.398h2.399l1.919-0.481l1.439-0.24l2.399-0.479l1.919-0.48l1.439-0.479l1.68,0.239h1.439
		l1.919-1.681l0.959-1.44l0.96-1.201l1.439-0.961l0.959,1.201l0.24,1.681l0.239,1.441l0.48,1.921l0.959,1.441l1.439,1.68l1.68,0.961
		l1.439,0.721l4.798-0.48l0.959-1.681l0.72-1.681v-1.922l0.239-1.441l0.24,2.402l0.24,1.681l0.959,1.2l1.439,1.201l0.959,1.44
		l0.72,1.922h2.158l1.2-1.922l1.44-1.2l1.439-0.961l1.679,0.721l1.44,1.201l0.959,1.2l2.399,1.201l-1.68,1.92l-0.239,1.682
		l-0.48,3.602l-0.48,2.161l-0.479,2.162l-0.24,1.68l-1.2,0.962l-0.719,1.44l1.2,1.201l-0.96,1.68l-0.24,1.682l-0.72,1.44
		l-0.959,1.682l-1.439,0.479l-0.959-1.441l-0.72-1.2l-0.479-1.681h-1.68l-0.959-1.681h-2.158l-0.96,1.2l-0.239,2.161l-0.48,1.922
		l-0.239,2.642l0.239,2.16l-0.239,1.682l-1.68,0.96v1.682l1.199,1.44l1.2,1.681l0.479,1.922v1.44l-0.719,2.401l-0.479,1.44
		l-0.48,1.441l-0.48,1.92l-0.239,1.682l-1.2,1.201l-1.438,0.96l-0.48,1.921L399.577,533.674z"/>
	<text transform="matrix(1 0 0 1 381.4033 490.0811)" font-family="'MicrosoftYaHei'" font-size="8">攀枝花市</text>
</g>
<g>
	<path fill="#CDE9F7" stroke="#37A8DB" stroke-linecap="round" stroke-linejoin="round" stroke-miterlimit="10" d="M515.919,347.09
		l1.44,1.682l-2.879,0.48l-1.199,0.72l-1.44,1.201l0.24,2.161v1.44l-0.24,1.682l-1.679-0.48l-1.198,0.721l0.239,1.92v1.682
		l1.439,0.96l1.679,0.481l-0.719,1.681h-1.681l-0.719,1.441l1.439,0.96l0.72,2.401v1.44l1.439,1.201l-0.961,2.882v1.68l-0.238,1.922
		l-0.24,1.2l-0.96,2.161l-0.24,1.44v1.441l-0.72,1.2l-1.919-0.72l-0.239,1.921l-0.72,1.681l-1.679,0.24l0.239,1.921l-0.96,1.2
		l-0.96,1.201l-0.959,1.2l-1.438,0.962l-1.2-0.962l-1.439-1.68l-1.199-1.201l-2.159-0.721l-0.959,2.642l-1.679,1.2l-1.2,1.441
		l-0.959,1.681l-0.72,1.441l-0.721,1.2l-2.397,1.921l-2.639,0.721l-1.68,0.961l-1.439,0.96l-1.199,0.961l-0.48,1.681l-0.239,1.44
		l-0.24,1.682l-0.719,1.44l-1.44,0.721l-1.438-0.24l-2.159-0.721l-3.119-0.48l-1.199-1.68l0.24-1.682l0.24-1.441l0.239-1.44
		l0.24-1.682l-0.24-1.68l0.72-1.922l1.439-0.72l0.24-1.682l-0.24-2.4l-0.96-1.441l-2.158-1.682l-3.599-0.239l-1.439,0.721
		l-0.959,1.681l-0.72,1.921l-0.72,1.681l-1.679,1.201l-1.44,0.24l-1.438-0.721l-1.2-1.441l-0.72-2.161v-1.92v-1.682l0.479-1.681
		l0.48-1.921v-2.402l-0.24-1.68l-0.72-2.401l0.24-1.441l1.439-0.96l0.48-1.682l-0.96-1.681v-1.921l0.24-1.44l0.72-1.441l1.439-1.2
		l1.679-0.962l0.24-1.439l-1.2-1.2l-0.239-1.922v-1.682l-0.48-2.16l0.48-1.441l1.679-1.2l1.439,1.2l1.44,0.96l1.199-0.72l3.598,0.72
		l0.48-1.68l1.199-1.201l1.679,0.48l1.439-1.441l-0.479-1.44l-0.96-1.201l0.24-1.92l1.439-0.722l1.919-0.239l0.96-1.44l-0.72-1.922
		l-2.159-1.921l0.24-1.921l0.479-1.921l1.679-1.922l1.439-0.72l1.2,0.961l0.719,1.681l1.2-1.2l1.438-1.441l1.919-0.721l0.48-1.682
		l3.357-1.92l3.838,1.92l2.399,0.962v2.642l-0.719,1.2l-1.44,0.479l0.24,1.682l3.119,2.16l1.919-0.72l1.438-0.96h1.439l2.879-0.721
		l-0.48-2.161l0.96-1.682l1.919-2.882l2.399,0.24h2.159l-0.48,1.682l0.24,1.682l-0.48,1.68l1.2,1.441l1.199,1.44l1.2,0.96
		l1.679,0.241l1.439,1.44L515.919,347.09z"/>
	<text transform="matrix(1 0 0 1 476.8184 374.6973)" font-family="'MicrosoftYaHei'" font-size="8">乐山市</text>
</g>
<g>
	<path fill="#CDE9F7" stroke="#37A8DB" stroke-linecap="round" stroke-linejoin="round" stroke-miterlimit="10" d="M544.226,297.143
		l1.199,1.68l0.96,1.202l-0.24,1.92l-0.479,1.681l-2.639-0.96h-1.919l-1.439-0.241l-0.959-1.2l-1.44-0.721l-0.238-1.92l-0.48-1.681
		h-1.44l-1.438-0.72l-1.919-0.721l-1.679,0.96l-1.2,1.201l-2.878,0.481l-1.68,2.161v1.441v1.441l-1.439,0.96l-1.679-0.48l-0.96-0.96
		h-1.439l-0.72,1.44l-0.719,1.441l-1.2,1.441l-0.959,1.921l-0.479,1.441l-1.199,2.642l-1.919,1.2l-1.92,0.96l-1.68,0.481h-1.679
		l-1.199-0.961l-0.239-1.68l-0.24-2.162l-1.2-2.642l-1.919,2.162l-2.159-0.48l-2.158,0.24l-1.439,0.72l-1.439,0.96l-1.199,1.202
		l-1.199,0.96l-1.44,0.96l-0.959,1.201l-0.479,1.681l-1.439-0.48l-1.438,0.721l-1.681,1.201l-1.198,1.44l-0.96,1.441l-3.599,0.96
		h-2.879l0.96-1.681l-0.239-1.921v-1.681l-0.24-1.681l-2.159-0.479l-3.118-1.202l-0.479,1.441l-1.439,0.961l-1.199-1.441
		l-1.919,0.96l-0.961,0.72h-1.679l-0.719-1.92l-0.479-1.681l1.198-1.92l1.44-1.681l0.719-1.441l0.96-1.682l0.959-1.68l1.2-1.681
		l0.719-1.441v-1.441l0.24-1.681l-1.679-0.96l-1.439-0.72l-0.72-1.681v-2.161l-0.24-1.201l-0.719-1.921l-0.96-1.201l-0.96-1.201
		l-1.199-1.44l1.199-1.201h1.439l1.68,0.48l1.198-0.961l1.44-0.96l2.158,0.24l1.68,0.48l1.679,0.479l1.919-1.2l1.68-0.72l1.68-0.48
		l1.438-1.92l0.96-1.441l1.68-1.922l0.719-1.681l-0.239-1.441l0.479-1.44l0.48-1.201l0.72-1.681l0.719-1.201l0.48-2.161l0.48-1.681
		l-0.721-1.921l0.48-1.681l-0.24-1.681l-0.24-1.681l1.68-0.48h1.92l4.317-2.401l2.639-3.122l0.72,1.921l1.438,0.721l2.159,0.48
		l0.96,0.96l0.24,1.441l-0.48,1.681l-0.479,1.921l0.479,1.44l0.721,1.441l0.479,1.441l1.2,0.721l1.679,0.24l0.72,1.681l0.479,2.161
		l0.96,1.681l1.438,1.201l1.2,0.961l2.159,2.642l0.24,1.681l-0.48,1.921l0.72,1.441l1.68,0.24h1.919l1.679-0.24l2.159-0.48
		l1.679-0.96l1.2-0.48h1.919l2.159-0.239l1.438,1.68l0.721,1.441l1.679,0.721l1.919,0.72l1.679,1.201l1.44,0.96l0.959,1.201
		l1.198,1.441l0.961,1.441l1.198,1.681l1.44,1.681l-0.24,2.401l0.24,1.68L544.226,297.143z"/>
	<text transform="matrix(1 0 0 1 485.6953 295.4614)" font-family="'MicrosoftYaHei'" font-size="8">成都市</text>
</g>
<g>
	<path fill="#CDE9F7" stroke="#37A8DB" stroke-linecap="round" stroke-linejoin="round" stroke-miterlimit="10" d="M514.721,310.351
		l1.198,2.401l0.48,1.68l0.24,1.441l1.438,1.681l1.68,0.721l1.919,0.239l1.439,1.681l0.72,1.201l2.159,1.681l1.438,3.602
		l-0.72,1.922v1.44l1.2,1.44l0.48,1.441v1.681l-0.48,1.682l-0.48,1.68l1.199,1.682l-2.638,1.922l-1.68,0.72l-1.68,0.24l-1.438,0.72
		l-0.96,1.201l-0.959,1.44l-3.359,1.2l-1.198-1.2l-1.439-1.44l-1.679-0.241l-1.2-0.96l-1.199-1.44l-1.2-1.441l0.48-1.68l-0.24-1.682
		l0.48-1.682h-2.159l-2.399-0.24l-1.919,2.882l-0.96,1.682l0.48,2.161l-2.879,0.721h-1.439l-1.438,0.96l-1.919,0.72l-3.119-2.16
		l-0.24-1.682l1.44-0.479l0.719-1.2v-2.642l-2.399-0.962l-3.838-1.92l-3.357,1.92l-0.48,1.682l-1.919,0.721l-1.438,1.441l-1.2,1.2
		l-0.719-1.681l-1.2-0.961l-1.439,0.72l-1.679,1.922l-0.479,1.921l-0.24,1.921l2.159,1.921l0.72,1.922l-0.96,1.44l-1.919,0.239
		l-1.439,0.722l-0.24,1.92l0.96,1.201l0.479,1.44l-1.439,1.441l-1.679-0.48l-1.199,1.201l-0.48,1.68l-3.598-0.72l-1.199,0.72
		l-1.44-0.96l-1.439-1.2l-1.679,1.2l-0.48,1.441h-1.679l-1.679-0.961l-1.919,0.24l-0.72-1.201l-0.72-1.681l0.959-0.96l1.2-1.44
		l1.439-1.441l0.719-1.2l0.721-1.922l0.479-2.161l-0.239-2.642v-1.681h1.439l1.679,0.48l1.44,1.2l1.919,0.479l1.439,0.481
		l1.919-0.721l-0.24-1.681l0.479-1.201l0.24-1.921l-0.72-1.441l-0.959-2.642l-0.96-1.439l0.96-1.682h1.438l1.919-2.4l2.399-2.162
		l0.239-1.921l1.68-1.44l2.159,0.24l1.198-1.201h2.879l3.599-0.96l0.96-1.441l1.198-1.44l1.681-1.201l1.438-0.721l1.439,0.48
		l0.479-1.681l0.959-1.201l1.44-0.96l1.199-0.96l1.199-1.202l1.439-0.96l1.439-0.72l2.158-0.24l2.159,0.48l1.919-2.162l1.2,2.642
		l0.24,2.162l0.239,1.68l1.199,0.961h1.679l1.68-0.481l1.92-0.96l1.919-1.2L514.721,310.351z"/>
	<text transform="matrix(1 0 0 1 489.7725 329.9814)" font-family="'MicrosoftYaHei'" font-size="8">眉山市</text>
</g>
<g>
	<path fill="#CDE9F7" stroke="#37A8DB" stroke-linecap="round" stroke-linejoin="round" stroke-miterlimit="10" d="M544.226,297.143
		l1.439-0.721h1.439l1.439,0.481l0.96,1.441l0.239,1.441l0.959,1.68l1.439-0.72l2.159-0.96v1.68v2.882v2.162l0.24,1.44l0.96,1.202
		l0.959,1.92l1.919,0.241l1.2,1.2l1.438,0.96l2.159-0.479l3.357-0.24l1.44,0.96h1.438l1.68,1.201l1.68,0.48v1.441l1.679,0.72
		l1.439,0.48l-0.24,1.441v1.681h1.679l0.24,1.44l1.44,0.96l1.438,0.722l1.919,1.681l1.439,0.479l1.199,1.201v1.922l-0.72,1.44
		l-0.959,2.161l0.479,1.44v3.121l-2.878,0.24l-1.919,0.481l-0.721,1.681v2.401l-1.919-0.24l-0.72,1.681h-1.439l-1.919,0.961
		l-0.959,0.96l-1.199-0.72l-0.48-1.682l-0.479-2.16l-0.24-2.162l-1.679-0.239l-1.68-0.24l-1.679,1.2l-1.679-0.24l-1.44-1.2
		l-1.679-0.481l-1.679,0.481l-1.679,0.48l-0.721-1.682v-1.681v-1.682l-1.199-0.96l-1.439-1.201l-0.719-1.92l-0.48-1.922l-1.2,0.96
		l-1.438,1.441l-0.959,2.161l-1.44,0.961l-0.72,1.44l-1.438,0.479l-1.199,0.962h-1.68l-0.239-1.682l-0.96-1.681l-1.199-1.441
		l-1.679-0.479l-1.681,0.239l-3.117,0.48l0.719-1.44l-0.959-1.921l-1.679-0.24l-1.2-1.2l-1.68-0.241l-1.438-3.602l-2.159-1.681
		l-0.72-1.201l-1.439-1.681l-1.919-0.239l-1.68-0.721l-1.438-1.681l-0.24-1.441l-0.48-1.68l-1.198-2.401l0.479-1.441l0.959-1.921
		l1.2-1.441l0.719-1.441l0.72-1.44h1.439l0.96,0.96l1.679,0.48l1.439-0.96v-1.441v-1.441l1.68-2.161l2.878-0.481l1.2-1.201
		l1.679-0.96l1.919,0.721l1.438,0.72h1.44l0.48,1.681l0.238,1.92l1.44,0.721l0.959,1.2l1.439,0.241h1.919l2.639,0.96l0.479-1.681
		l0.24-1.92l-0.96-1.202L544.226,297.143z"/>
	<text transform="matrix(1 0 0 1 536.3105 320.6758)" font-family="'MicrosoftYaHei'" font-size="8">资阳市</text>
</g>
<g>
	<path fill="#CDE9F7" stroke="#37A8DB" stroke-linecap="round" stroke-linejoin="round" stroke-miterlimit="10" d="M570.134,345.17
		l-1.68,2.401l-1.68,1.681l-0.959,1.921l-0.96,1.922l1.439,0.96l1.439,0.72l1.679,0.24l0.48,1.441l-0.48,1.681l0.24,1.681l1.199,1.2
		l-0.239,1.922l-0.96,1.681l-2.159,1.921l-1.199,0.96l-1.199,1.441l-0.959,1.682l-0.72,1.2l-1.919-0.48h-1.68l-0.479-1.681
		l-1.199-1.2l-1.2-0.721l-0.96-1.681l-1.438-1.922l-0.959-1.2l-0.48-1.682l1.439-1.2l-0.24-1.441l-3.118-0.96l-1.919,1.922
		l-1.679-1.201h-1.44l-1.919-2.642l-0.959,1.44l-1.439,0.961h-1.679l-1.439,0.961l0.479,1.92l-1.438,0.962l-2.159-1.201
		l-1.438-0.961l-0.721-1.201h-1.679l-1.438,0.24l-1.681,0.241l0.48-1.682l0.96-0.96l-0.48-1.441l-1.198-1.681l-0.961-1.681
		l0.24-1.922l-1.679,0.24l-2.159-0.48l-1.919,2.162l-1.68-0.721l-0.959-0.961l-1.919-1.2l-1.44-1.682l3.359-1.2l0.959-1.44
		l0.96-1.201l1.438-0.72l1.68-0.24l1.68-0.72l2.638-1.922l-1.199-1.682l0.48-1.68l0.48-1.682v-1.681l-0.48-1.441l-1.2-1.44v-1.44
		l0.72-1.922l1.68,0.241l1.2,1.2l1.679,0.24l0.959,1.921l-0.719,1.44l3.117-0.48l1.681-0.239l1.679,0.479l1.199,1.441l0.96,1.681
		l0.239,1.682h1.68l1.199-0.962l1.438-0.479l0.72-1.44l1.44-0.961l0.959-2.161l1.438-1.441l1.2-0.96l0.48,1.922l0.719,1.92
		l1.439,1.201l1.199,0.96v1.682v1.681l0.721,1.682l1.679-0.48l1.679-0.481l1.679,0.481l1.44,1.2l1.679,0.24l1.679-1.2l1.68,0.24
		l1.679,0.239l0.24,2.162l0.479,2.16L570.134,345.17z"/>
	<text transform="matrix(1 0 0 1 536.3105 349.251)" font-family="'MicrosoftYaHei'" font-size="8">内江市</text>
</g>
<g>
	<path fill="#CDE9F7" stroke="#37A8DB" stroke-linecap="round" stroke-linejoin="round" stroke-miterlimit="10" d="M558.379,384.311
		l-0.479,1.682l2.878,3.602l1.2,3.122l-0.479,1.441l-1.2,1.44l-0.479,1.441v2.4l-0.96,1.441l-0.719,1.68l0.479,1.441l0.961,1.2
		l0.958,1.922l0.721,1.682l0.72,1.439l1.919,2.402l1.199,2.161l1.199,1.92v1.922l-0.239,1.44l-0.24,1.441l-0.24,1.921l0.959,1.44
		l0.96,1.441l-0.72,1.44l-1.919,0.24l-1.919,0.72l-1.199,1.201l-1.2,0.961l-2.877,0.72l-0.721-0.72l-3.357-2.642l-3.119,1.44
		l-1.199,3.362l-1.439,2.161l-0.96,2.161l-1.199,3.121l-2.639,0.722l-1.68-0.24h-2.878l-0.479,0.24l-5.518,1.68l-2.158-0.72
		l-2.88-1.682l-1.679-2.16l-1.199-0.24l-2.398-0.961l-1.68-2.401l-1.439-1.921v-1.682h0.959l1.2-0.239l1.199-0.48l2.639-1.682
		l0.479-1.44l0.24-0.72l-1.679-1.682l-1.44-0.72l1.68-1.922l-1.439-2.401l-0.479-1.681l-2.159-0.479h-0.72l-2.398-0.722l-0.72-3.121
		l0.24-0.721l0.479-3.361l1.919-3.602l3.358-2.642l0.239-0.721l1.44-1.921l-3.119-1.441l-0.479,0.24l-2.879,0.48l-1.439-0.48
		l-2.398,0.24l-2.158,0.721l-1.92,0.72l-2.639-0.239l-4.798,0.239l-3.358-0.479l-1.199-2.162l-0.72,1.441l-1.439,3.362l-0.479,2.16
		l0.479,0.961l-3.118,2.162l-0.72,1.439l-1.679,1.201h-1.68l-0.239-1.44l0.239-1.922l0.72-1.92l-0.48-1.922l-1.679-0.24
		l-0.719-2.642l2.397-1.921l0.721-1.2l0.72-1.441l0.959-1.681l1.2-1.441l1.679-1.2l0.959-2.642l2.159,0.721l1.199,1.201l1.439,1.68
		l1.2,0.962l1.438-0.962l0.959-1.2l0.96-1.201l0.96-1.2l-0.239-1.921l1.679-0.24l0.72-1.681l0.239-1.921l1.919,0.72l0.72-1.2v-1.441
		l0.24-1.44l0.96-2.161l0.24-1.2l0.238-1.922v-1.68l0.961-2.882l0.959-1.441l1.439,0.72l0.719-1.68l1.44-0.962l1.438,1.202
		l1.68,0.96l1.199-0.48l1.439,0.96l1.439,0.24l1.439,1.682l0.959,1.44l1.44,0.48l1.198,0.961l1.199-1.441l1.68-2.161l2.398,0.721
		l1.439,1.2l0.721,1.441l0.719,1.682l0.479,1.68l-0.479,1.922l0.479,1.681l0.721,1.44l2.878-0.961l1.919-0.24l1.199-1.68
		l1.199-1.201h1.68l0.72,1.44l1.679,1.922l1.44,1.44l1.198,0.96l1.919,0.722L558.379,384.311z"/>
	<text transform="matrix(1 0 0 1 528.6338 407.9639)" font-family="'MicrosoftYaHei'" font-size="8">宜宾市</text>
</g>
<g>
	<path fill="#CDE9F7" stroke="#37A8DB" stroke-linecap="round" stroke-linejoin="round" stroke-miterlimit="10" d="M579.968,409.525
		v0.24l1.439,2.161l-0.239,1.2l-0.72,2.882l0.48,3.122l1.679,1.2l0.72,0.24l1.439-1.201l2.398-1.68l1.439,0.96l0.479,0.96
		l0.959,1.201l1.2,1.44v1.682l0.719,2.882l3.119,0.479l2.398,2.162l4.559-2.162l3.357-0.96l4.559,1.921v4.082l-0.48,1.2l2.159,1.201
		l1.439,2.881l-0.239,2.642l0.959,2.882l-1.919,3.122l-0.721,0.721l-1.198,0.721l-2.64,0.239l-0.958-0.72h-0.961l-0.958-1.201
		l-0.721-0.24l-0.72,0.48h-0.48v0.239l-0.238,0.24l-0.48,0.241v0.721l-3.358,0.239L597,448.907l-2.159-1.2l-1.438,0.479l-0.24,1.2
		h-0.24h-0.72h-0.24l-0.479,0.481h-0.24v-0.481l-1.2,0.241l-0.959-0.481h-0.72l-0.24,0.481h-1.199l-0.72,0.96l-0.479,0.24
		l-0.72,0.48h-1.438l-1.92-0.48l-0.959-0.479h-1.2l-0.719-0.24h-0.721l-0.72-0.962l-1.199-0.479l-0.479-0.721h-0.719l-1.68-1.201
		l-2.399,0.962l-1.679,1.2l-0.479,0.239l-1.68,0.722h-0.72l-2.158-0.24l-0.72-0.241l1.438-2.642l1.919-2.16l-0.24-1.441h-3.117
		l-0.48-2.16l1.2-1.922l0.479-3.121l-0.959-2.882l-2.879,1.2h-1.198l-0.721-1.44l-1.198-1.201l2.877-0.72l1.2-0.961l1.199-1.201
		l1.919-0.72l1.919-0.24l0.72-1.44l-0.96-1.441l-0.959-1.44l0.24-1.921l0.24-1.441l0.239-1.44v-1.922l-1.199-1.92l-1.199-2.161
		l-1.919-2.402l-0.72-1.439l-0.721-1.682l-0.958-1.922l-0.961-1.2l-0.479-1.441l0.719-1.68l0.96-1.441v-2.4l0.479-1.441l1.2-1.44
		l0.479-1.441l-1.2-3.122l-2.878-3.602l0.479-1.682l1.68,0.721l1.679-0.24l1.919-0.48v-1.92l-0.239-1.441l-1.919-0.48l-1.439-0.72
		v-1.921l1.199-0.961l0.72-1.441l0.719-1.921l0.721-1.681l0.72-1.2l0.959-1.682l1.199-1.441l1.199-0.96l2.159-1.921l3.599,2.161
		l1.68,0.72l2.159-0.239h3.117l0.48,1.681l2.879-1.2l-0.24,2.4v1.682l0.479,1.681l0.239,1.441l0.48,3.121l1.438,1.2l-0.479,1.682
		l1.679,3.122l0.48,1.441l1.679,0.96l2.159,0.479l1.679,0.24l0.24-1.44l1.438-0.961l1.68-0.96l1.199,0.72l1.439,0.722l0.96,1.44
		l1.679,0.239l1.919-0.479l1.679,0.24l1.68,1.44l1.919,1.44l0.239,1.682l-0.239,1.681l0.96,1.201l1.198,1.2l0.48,2.161l0.24,1.681
		l0.24,1.441l0.479,1.44l0.24,1.441l-0.24,1.92l2.398,0.961v1.2l-1.68,1.682l-2.159-1.201l-0.238-1.92l-1.681-0.481l-0.479-0.24
		l-0.96-1.2l-1.919-1.921l-0.24-1.44l-1.679-0.48l-1.679,0.48l-1.2-1.441l-0.719-1.44l-1.2-1.201l-1.919-0.721l0.239-1.439
		l-1.199-0.48l-0.72,0.48l-3.358,3.602l0.48,3.842l-4.318-0.24l-3.838,0.24l-2.159,1.921l-0.72,2.162l-1.68,1.439V409.525z"/>
	
		<text transform="matrix(1 0 0 1 573.4102 392.4277)" font-family="'MicrosoftYaHei'" font-size="8" glyph-orientation-vertical="0" writing-mode="tb">泸州市</text>
</g>
<g>
	<path fill="#CDE9F7" stroke="#37A8DB" stroke-linecap="round" stroke-linejoin="round" stroke-miterlimit="10" d="M563.417,371.824
		l-0.721,1.681l-0.719,1.921l-0.72,1.441l-1.199,0.961v1.921l1.439,0.72l1.919,0.48l0.239,1.441v1.92l-1.919,0.48l-1.679,0.24
		l-1.68-0.721l-3.599,1.202l-1.919-0.722l-1.198-0.96l-1.44-1.44l-1.679-1.922l-0.72-1.44h-1.68l-1.199,1.201l-1.199,1.68
		l-1.919,0.24l-2.878,0.961l-0.721-1.44l-0.479-1.681l0.479-1.922l-0.479-1.68l-0.719-1.682l-0.721-1.441l-1.439-1.2l-2.398-0.721
		l-1.68,2.161l-1.199,1.441l-1.198-0.961l-1.44-0.48l-0.959-1.44l-1.439-1.682l-1.439-0.24l-1.439-0.96l-1.199,0.48l-1.68-0.96
		l-1.438-1.202l-1.44,0.962l-0.719,1.68l-1.439-0.72l-0.959,1.441l-1.439-1.201v-1.44l-0.72-2.401l-1.439-0.96l0.719-1.441h1.681
		l0.719-1.681l-1.679-0.481l-1.439-0.96v-1.682l-0.239-1.92l1.198-0.721l1.679,0.48l0.24-1.682v-1.44l-0.24-2.161l1.44-1.201
		l1.199-0.72l2.879-0.48l1.919,1.2l0.959,0.961l1.68,0.721l1.919-2.162l2.159,0.48l1.679-0.24l-0.24,1.922l0.961,1.681l1.198,1.681
		l0.48,1.441l-0.96,0.96l-0.48,1.682l1.681-0.241l1.438-0.24h1.679l0.721,1.201l1.438,0.961l2.159,1.201l1.438-0.962l-0.479-1.92
		l1.439-0.961h1.679l1.439-0.961l0.959-1.44l1.919,2.642h1.44l1.679,1.201l1.919-1.922l3.118,0.96l0.24,1.441l-1.439,1.2l0.48,1.682
		l0.959,1.2l1.438,1.922l0.96,1.681l1.2,0.721l1.199,1.2l0.479,1.681h1.68L563.417,371.824z"/>
	<text transform="matrix(1 0 0 1 525.5098 369.0625)" font-family="'MicrosoftYaHei'" font-size="8">自贡市</text>
</g>
<g>
	<path fill="#CDE9F7" stroke="#37A8DB" stroke-linecap="round" stroke-linejoin="round" stroke-miterlimit="10" d="M622.428,186.681
		l0.24,2.401l0.479,1.441v1.441l-0.479,1.681l-0.48,1.681l1.2,1.201l1.438,1.441l0.24,1.681l-0.24,2.162l-0.239,1.441l0.479,1.44
		l1.439,1.201l1.679,0.96l-1.439,0.961l-0.959,1.201l-1.68,1.201l-1.199,0.96l-1.199,0.48l-1.679,0.72l-0.96,1.441l0.24,1.681
		l0.959,1.681l-0.719,1.441l-1.44,0.96l-0.959,1.201l-0.239,1.44l-0.24,1.441l-1.439,0.24l-0.72,3.122l-0.72,1.441l-0.72,1.921
		l-0.239,1.681h-2.159l-1.68,0.721l-1.439,1.201l-0.959,0.96l-1.919,0.24l-1.2-2.161l-2.879,1.201l0.24,1.681l-0.959,1.681
		l-1.439,1.44l-1.199,1.201l-1.439,0.24l-1.439,0.721l-1.679,1.2l-1.439,0.721l-1.919-0.24l-0.24,1.681l-1.679-0.961l-0.96-1.441
		l-0.48-1.92l-0.239-1.681l-1.919-0.96l-0.479,1.44l-0.479,2.402l-0.48,1.681v1.441l-2.399-0.24l-1.679,2.642l-1.919-0.721
		l-1.679,0.48l-1.439-0.48l-1.199,0.961l-0.96,1.201l-1.68-0.961l-0.479-1.44l-1.199-0.961l-1.2-1.921l-0.239-1.681v-1.681
		l-1.68-0.24l-1.198-0.96l0.72-1.441l0.239-1.921l-1.92-0.48l-0.479-1.201l-0.96-1.441l-0.24-1.681l-0.719-1.201v-1.681
		l-0.479-1.681l-0.48-2.161l1.438-1.201l1.919-0.24V220.3l0.961-2.641l0.959-0.96l-1.92-0.961l0.48-2.161l-0.24-1.681v-1.681
		l-0.719-1.441l-0.479-1.44l-3.119,0.24h-1.439l-1.679,0.48l-1.2,0.961l-1.919,0.96l-1.919,0.721l-0.24-1.921l-1.199-1.921
		l-1.198-1.201l-2.16-0.96l-1.679,0.24l-1.439-0.721l-1.438-1.2l-0.48-1.921l0.24-2.161v-1.681l-0.96-1.441l-1.439-0.96l-1.198-0.72
		l-1.2-0.721l-0.721-1.681l0.48-2.881h0.72l3.118,2.161l4.798-0.72l3.119,3.122l5.277-2.642l0.479,0.721l2.399,1.201l4.078-2.642
		l3.117,0.72h1.2l2.398-2.401l4.078-3.123l0.96-0.96l-1.68-0.721l-0.72,0.24l-0.719-3.362l0.239-0.72l1.199-2.642l2.639-0.48
		l0.48,0.24l-0.24,2.882l0.24,2.401l1.199,1.921l1.919,3.122l1.679-0.24l1.2-0.241l1.198-0.48l3.119-0.961l2.159-0.72l1.679-2.162
		l-0.239-1.441h0.96l2.397,0.241l2.399-0.241l3.118-0.72l1.919-0.48l1.439,1.921l-0.719,1.681l-0.24,0.961l2.638,1.921l4.079,2.162
		l3.358,0.24h0.479l3.838,2.401l2.639-0.96l0.96-1.441l3.118-0.48h0.24l2.878-1.2L622.428,186.681z"/>
	<text transform="matrix(1 0 0 1 578.3096 212.4961)" font-family="'MicrosoftYaHei'" font-size="8">广元市</text>
</g>
<g>
	<path fill="#CDE9F7" stroke="#37A8DB" stroke-linecap="round" stroke-linejoin="round" stroke-miterlimit="10" d="M612.833,232.066
		l0.239,3.122l0.239,1.921l-0.959,1.441v1.681l1.199,1.201l0.96,1.441l1.199,0.72l0.479,1.441l1.68,1.441l1.68,0.48l1.199,1.2
		l1.199,0.961l1.439,0.24l0.959-1.201l-0.479-1.44l0.72-1.681l1.679,0.961h1.679l1.681,0.96l1.438,0.48l1.679,0.24l0.48,1.921
		l0.96,1.681l0.239,1.441l0.239,1.681l1.2,0.96l0.719,1.201l1.44,0.961l0.24,1.44l1.438,2.161l-1.438,2.402v2.161l0.238,1.681
		l-0.958,1.44l-1.439,1.201l-0.96,1.201l-1.439,1.681l-0.72,1.681l-0.72,1.922l-1.439,0.72l-1.679,0.481l-0.24,1.92l-1.919,0.721
		l-0.24,1.681l-0.239,1.921l-1.919-0.24l-1.199,0.721l0.719,1.68l-0.959,1.681l-0.96,0.96l-1.679,1.201l-1.439-1.201l-2.158,0.24
		l-1.2,1.922l-1.919,0.96l-1.679-0.721l-1.439,1.202l-1.44-0.721l-1.679,0.721l-1.919-0.721l-1.198,1.441v2.161l-0.721,2.162
		l-0.72,1.44l-0.959,1.441l-2.399,0.961l-1.438,1.441h-1.68l-2.159,0.239l-1.679,0.24l-3.118,0.48l0.239-1.681l0.72-1.681
		l-0.959-1.68l0.719-1.441l-1.199-1.441l-1.438-0.24l-0.24-1.681l-0.24-1.44l-0.24-1.682l-0.479-2.162v-1.44l-0.959-1.681
		l-0.96-1.441v-2.401l-4.318-0.721l-0.24-1.68l-0.958-1.201l0.958-1.44l1.68-0.481l1.68-1.2l0.24-1.921l-0.48-2.161l0.24-1.681
		l-0.96-1.201l-0.96-1.441l-0.239-2.401l-0.96-1.201l-0.959-1.201l-1.439-1.44l1.2-1.201l0.958-1.44l-0.479-1.681l-1.439,0.24
		l-1.919,0.48l-1.438-0.24l-0.72-1.441l-0.48-1.681l-2.398-3.362v-1.441l0.96-1.201l1.199-0.961l1.439,0.48l1.679-0.48l1.919,0.721
		l1.679-2.642l2.399,0.24v-1.441l0.48-1.681l0.479-2.402l0.479-1.44l1.919,0.96l0.239,1.681l0.48,1.92l0.96,1.441l1.679,0.961
		l0.24-1.681l1.919,0.24l1.439-0.721l1.679-1.2l1.439-0.721l1.439-0.24l1.199-1.201l1.439-1.44l0.959-1.681l-0.24-1.681l2.879-1.201
		l1.2,2.161l1.919-0.24l0.959-0.96l1.439-1.201l1.68-0.721H612.833z"/>
	<text transform="matrix(1 0 0 1 594.1221 267.8462)" font-family="'MicrosoftYaHei'" font-size="8">南充市</text>
</g>
<g>
	<path fill="#CDE9F7" stroke="#37A8DB" stroke-linecap="round" stroke-linejoin="round" stroke-miterlimit="10" d="M626.506,283.936
		l10.314,5.764v1.68l-1.679,0.24l1.919,2.401h0.96l1.439,0.48h1.679l2.159-1.441l-1.439,4.802l-0.24,1.441l1.199,1.441l1.439,0.96
		l0.96,1.201l1.68-0.239l-0.96-1.441l1.679-0.24l1.44-1.201l1.679,0.24l-0.24,2.642l-0.96,1.2l0.24,1.441l1.919,0.24l-0.24,1.681
		l0.96,2.401l1.439,0.96l-0.719,1.921l-0.48,2.642l-2.159,1.681l-0.96,1.68l-1.199,1.681l-1.438,1.441l-1.2,1.44l-1.199,1.681
		l-1.439,1.201l-1.439-0.721l-1.919-0.24l-1.679,1.2l-1.919-0.479l-2.879,0.72l-1.199-0.479l-1.44-0.721l-1.679-0.96l-1.679-1.922
		l0.24-2.401l-1.2-1.2l-1.199-1.441v-2.161l-0.479-1.441l-1.199-1.201l-2.159,0.72h-3.599l-1.439,2.402l-1.679,0.239l-1.919,0.48
		l-1.44,0.96l-1.679,1.2l-2.159-0.239l-1.679-0.48l-0.479-1.441l-0.479-1.201v-1.441l-0.479-1.921l-1.919-0.239l-1.681,0.239
		l-1.438-0.72l-1.439-0.96l-1.199-1.681l-0.96-1.441l-1.438-1.201l0.959-1.201l1.439-1.92h1.68l1.438-1.441l2.399-0.961l0.959-1.441
		l0.72-1.44l0.721-2.162v-2.161l1.198-1.441l1.919,0.721l1.679-0.721l1.44,0.721l1.439-1.202l1.679,0.721l1.919-0.96l1.2-1.922
		l2.158-0.24l1.439,1.201l1.679-1.201l0.96-0.96l0.959-1.681l-0.719-1.68l1.199-0.721L626.506,283.936z"/>
	<text transform="matrix(1 0 0 1 613.4707 307.188)" font-family="'MicrosoftYaHei'" font-size="8">广安市</text>
</g>
<g>
	<path fill="#CDE9F7" stroke="#37A8DB" stroke-linecap="round" stroke-linejoin="round" stroke-miterlimit="10" d="M579.968,276.492
		l-0.958,1.44l0.958,1.201l0.24,1.68l4.318,0.721v2.401l0.96,1.441l0.959,1.681v1.44l0.479,2.162l0.24,1.682l0.24,1.44l0.24,1.681
		l1.438,0.24l1.199,1.441l-0.719,1.441l0.959,1.68l-0.72,1.681l-0.239,1.681l3.118-0.48l1.679-0.24l2.159-0.239l-1.439,1.92
		l-0.959,1.201l1.438,1.201l0.96,1.441l-1.439,1.2l-1.679-1.2l-1.44-0.481l-1.679,0.24l-1.438-1.2l-1.68-0.96l-0.96,1.201
		l-0.719,1.681l-0.48,1.441l-1.199,1.201l-0.479,1.441l0.719,1.44l-1.679,0.721l-1.679-0.721l-1.679,0.721l0.479,1.441l1.2,1.441
		l-1.439,0.479h-1.68l-1.679-0.479l-1.439-0.48l-1.679-0.72v-1.441l-1.68-0.48l-1.68-1.201h-1.438l-1.44-0.96l-3.357,0.24
		l-2.159,0.479l-1.438-0.96l-1.2-1.2l-1.919-0.241l-0.959-1.92l-0.96-1.202l-0.24-1.44v-2.162v-2.882v-1.68l1.2-0.721l0.719-1.441
		l0.479-1.44l1.2-1.441l0.719-1.201l0.24-1.681l0.24-1.681l1.438,0.48l1.681-0.24l1.199-0.96v-1.682l-0.961-1.921l-0.719-1.44
		l-0.96-1.441l-0.959-1.201l0.24-2.882l-0.24-1.681l-0.479-1.921v-1.681l0.959-1.681l1.68-0.72l2.159-0.48l-0.24-1.681l1.919-0.721
		h1.919l0.72,1.441l0.72,1.441l1.199,1.201l1.919,0.48l1.439,0.721l1.439,1.201l1.439,1.2l1.679,0.241L579.968,276.492z"/>
	<text transform="matrix(1 0 0 1 560.6563 301.6255)" font-family="'MicrosoftYaHei'" font-size="8">遂宁市</text>
</g>
<g>
	<path fill="#CDE9F7" stroke="#37A8DB" stroke-linecap="round" stroke-linejoin="round" stroke-miterlimit="10" d="M458.347,364.861
		l1.2,1.2l-0.24,1.439l-1.679,0.962l-1.439,1.2l-0.72,1.441l-0.24,1.44v1.921l0.96,1.681l-0.48,1.682l-1.439,0.96l-0.24,1.441
		l0.72,2.401l0.24,1.68v2.402l-0.48,1.921l-0.479,1.681v1.682v1.92l0.72,2.161l1.2,1.441l1.438,0.721l1.44-0.24l1.679-1.201
		l0.72-1.681l0.72-1.921l0.959-1.681l1.439-0.721l3.599,0.239l2.158,1.682l0.96,1.441l0.24,2.4l-0.24,1.682l-1.439,0.72l-0.72,1.922
		l0.24,1.68l-0.24,1.682l-0.239,1.44l-0.24,1.441l-0.24,1.682l1.199,1.68l3.119,0.48l2.159,0.721l1.438,0.24l1.44-0.721l0.719-1.44
		l0.24-1.682l0.239-1.44l0.48-1.681l1.199-0.961l1.439-0.96l1.68-0.961l2.639-0.721l0.719,2.642l1.679,0.24l0.48,1.922l-0.72,1.92
		l-0.239,1.922l0.239,1.44h1.68l1.679-1.201l0.72-1.439l3.118-2.162l0.72,2.162l0.24,0.72l0.72,3.122l1.679,2.881l-0.959,2.882
		l-1.439,0.721l-2.639,2.401l-2.159,1.44l-1.438-0.24l-1.92-2.642l-3.599,0.721l-3.357,3.842l-2.159,3.122v2.882l1.679,2.642
		l2.159,1.2l0.24,2.882l-1.679,4.322l-1.919,3.122l-2.159,1.92l-0.96,0.962l-2.64,0.96l-2.158,3.602l-1.68,2.642l-1.679,1.441
		l-0.24,0.24l-1.679,1.2l-0.72,1.921l-1.679,2.162l-0.721,1.68l-1.198,0.722l-2.88,0.479l-0.719,0.961l-0.479,0.479l-1.68,0.721
		l-1.919-1.681l-0.719-0.48l-0.48,2.161l-1.439,3.603v0.96l-0.48,1.682l0.24,2.641l0.24,2.882l-0.24,3.843l-0.72,2.16l-0.24,7.204
		v0.24l2.878,6.483l0.24,2.401l0.719,3.842l1.2,2.882v1.441v0.48l1.439,1.44l0.72,1.681l-0.72,0.24l-0.72,0.24l-1.919-0.72
		l-0.479,1.921l1.199,2.4l-0.479,0.722l0.24,2.401l-4.078,2.641l-5.278,1.441l-0.958-0.24l-3.119,2.642l-3.119,1.68l-1.919-1.2
		v-2.642l0.959-3.121l-1.919-1.682l-2.159,0.24l-0.24,0.481l-2.878,2.881h-2.398l-2.159,0.961l-2.638,1.68l-2.88,1.441l-2.398,1.922
		l-1.679,1.44l-1.439,0.72l-1.919,1.682l-1.438,1.921l-0.24,0.24l-1.679,0.24l-2.159-2.161h-0.48l-2.638-0.721l-2.398,0.96
		l-2.159,0.24l-0.24-2.161l0.48-1.921l1.438-0.96l1.2-1.201l0.239-1.682l0.48-1.92l0.48-1.441l0.479-1.44l0.719-2.401v-1.44
		l-0.479-1.922l-1.2-1.681l-1.199-1.44v-1.682l1.68-0.96l0.239-1.682l-0.239-2.16l0.239-2.642l0.48-1.922l0.239-2.161l0.96-1.2
		h2.158l0.959,1.681h1.68l0.479,1.681l0.72,1.2l0.959,1.441l1.439-0.479l0.959-1.682l0.72-1.44l0.24-1.682l0.96-1.68l-1.2-1.201
		l0.719-1.44l1.2-0.962l0.24-1.68l0.479-2.162l0.48-2.161l0.48-3.602l0.239-1.682l1.68-1.92l-2.399-1.201l-0.959-1.2l-1.44-1.201
		l-1.679-0.721l-1.439,0.961l-1.44,1.2l-1.2,1.922h-2.158l-0.72-1.922l-0.959-1.44l-1.439-1.201l-0.959-1.2l-0.24-1.681l-0.24-2.402
		l-0.239,1.441v1.922l-0.72,1.681l-0.959,1.681l-4.798,0.48l-1.439-0.721l-1.68-0.961l-1.439-1.68l-0.959-1.441l-0.48-1.921
		l-0.239-1.441l-0.24-1.681l-0.959-1.201l-1.439,0.961l-0.96,1.201l-0.959,1.44l-1.919,1.681h-1.439l-1.68-0.239l-1.439,0.479
		l-1.919,0.48l-2.399,0.479l-1.439,0.24l-1.919,0.481h-2.399h-2.398L364.073,471l-1.438-2.162v-2.642l-0.721-1.44l-0.719-1.201
		l-0.719-2.642l-0.72-2.4l-4.318,0.721l0.479-4.083l-0.958-2.642v-3.122v-0.96l-2.399-2.161l-2.159-3.122l-0.959-3.602v-0.24
		l-0.719-2.882l-1.919-1.921l-1.919,0.48l-2.399,1.681l-2.878,2.161l-1.919-4.082l-2.398,1.921l-0.96,2.882l-1.439,1.921
		l-0.959,0.721l-1.679-0.721l-1.439-3.603l1.439-1.44l-1.679-1.44l-3.118-0.961l-1.2-1.2l0.24-2.161l0.959-0.48h1.919l1.679-0.96
		l1.679-1.201l1.68-0.24l2.398,0.24l1.44-0.96v-1.682l-0.48-2.162l-0.719-2.16l-0.959-2.161l-0.24-1.682l0.719-2.16l1.68-0.961
		v-1.921l-1.2-1.441l0.479-1.44l0.959-1.441l0.961-2.161l0.958-1.44l1.2-1.2l1.199-1.201l0.24-1.2l0.72-1.682l1.439-1.2
		l-1.439-1.441l0.48-2.16l-0.48-1.441l-1.44-0.72l-0.239-1.682l1.919,0.24l0.959-1.2h1.679l0.719-1.922l-0.479-1.92l-0.72-2.402
		l-0.24-1.681l-0.719-1.921l-0.48-1.441l1.439-0.72l1.439,0.96l1.679-0.479l1.44-1.922l0.959-1.2l2.398-0.24l2.639,0.721
		l1.679,1.201l1.439-0.241l0.239-1.44l-1.679-1.201l-1.439-0.721l0.958-1.92l1.92-0.24l1.679-0.961l2.159-0.721l0.479,2.401
		l0.24,1.681l1.679-0.72l1.44-1.681l1.199-1.201l2.639-0.96l1.2,0.96l0.958,1.201l-0.479,1.921l1.2,1.201l0.479,1.92v1.682
		l-0.479,1.681l1.438,1.44l0.721,2.162l-0.48,2.16l-0.719,1.682l-0.24,1.681l1.2,1.44l0.719,1.44v1.441l-0.24,2.162l1.44,0.479
		h2.159l1.679,0.721l1.439,0.72l1.68,0.24l1.679-0.48l0.479,1.441l1.68,0.48l1.439,1.2l1.439,0.48l1.2,0.721l0.719,1.2l0.959,1.441
		l0.479,1.92l-1.199,0.962l-1.68,0.239l-1.679-0.961l-1.439-0.96l-1.919-0.721l-1.919,0.24l-0.479,1.44l1.439,2.401l0.479,1.682
		l0.479,1.921l0.24,1.681l0.721,1.441l1.198,0.48l1.44-0.48l1.439-0.961l1.2-0.721h1.679l1.919,0.24l0.72-0.72l1.679-0.961h1.919
		l1.439-1.921l-0.239-6.003l0.959-1.682l0.719-0.96l1.679-0.721l0.959-0.961l2.159-0.48l1.439-1.68l1.199-1.682l1.2-0.96
		l0.959-1.441l-0.479-2.161l-1.2-1.921v-2.161l0.959-1.682l0.959-1.44l1.679-0.72l1.439-1.682l1.439-1.2l1.2-1.441l1.439-1.2
		l1.439,2.642l0.719,1.681l1.44,1.44l0.479,1.44l1.68,0.722l1.438,0.96l0.96,1.681l1.68-0.48l2.638,0.24l1.679-2.882l0.24-2.4
		l0.239-2.161l0.721-1.201l0.719-1.681l0.959-1.922l-0.48-1.44l1.919-0.48l1.2-1.44l0.48-1.682l0.72-1.2l1.199,0.96l1.439,0.962
		l1.92,0.479l1.439,0.24l1.439-1.441v-1.68l0.96-1.922l1.438,0.72l0.72,1.441l1.68,0.721l1.919-2.162l0.719-1.92l1.2-1.201
		L458.347,364.861z"/>
	
		<text transform="matrix(1 0 0 1 429.3301 405.2021)" font-family="'MicrosoftYaHei'" font-size="8" glyph-orientation-vertical="0" writing-mode="tb" letter-spacing="1">凉山彝族自治州</text>
</g>
<g>
	<path fill="#CDE9F7" stroke="#37A8DB" stroke-linecap="round" stroke-linejoin="round" stroke-miterlimit="10" d="M353.998,196.527
		l-0.479,2.642l0.72,1.681l1.679,1.921l1.68,0.241l1.679-0.241l0.48,1.921l-0.48,1.681l-0.24,1.681l0.48,1.201l0.24,2.642v1.681
		l1.439,0.72l1.44,0.48l0.719,1.681l1.2,1.201l2.158,1.681l1.2,0.96l1.919-0.24h1.919l1.2,1.921l0.24,2.161l-0.72,1.441
		l-1.439,0.961l-0.72,1.2l-0.72,1.201l-1.199,0.961l-0.72,2.401l1.68,0.24l1.2,1.201l0.479,1.44l0.959,1.441l1.44,0.96l1.679,0.96
		l0.24,2.161v1.921v1.681l0.719,1.681l0.959,0.96l1.679-0.721l1.919-0.48l2.159-0.48l0.479,2.401v2.162l0.24,1.44l1.2,1.2
		l1.919-0.24l1.2,0.961l1.919,0.24l1.439,0.721l1.68-0.721l1.679-0.48l1.679-0.481l0.959,1.441l1.679-0.24l1.439-0.96l1.44,0.96
		l0.719,1.681l0.719,1.682l1.439,0.48l1.44,0.72l2.399-0.24l1.199,0.96l0.48,2.161l0.479,1.921l0.48,1.441l0.959,1.2l1.2-1.441
		l1.919-0.24l1.439,0.721l0.72,2.161v1.681l0.958,1.441l1.44-0.72l1.439-1.201l1.679-1.201l0.24,2.642l-0.24,1.681l0.24,1.921
		l0.719,1.44l0.479,1.441l0.24,2.162l-0.48,1.44h-1.439l-1.439-0.479l-1.439,0.479l-0.959,1.441l-0.24,1.441l-0.24,2.161
		l-0.479,1.201l-0.72,2.402l-0.24,0.72l1.199,2.642l1.919,0.24l1.438,1.441l1.2,0.96l1.919-0.48l1.919-0.24l1.679-0.961l1.439-1.68
		l1.44-0.961l1.439-0.479l1.679,0.24l1.679-0.24l0.48,2.161l-0.959,1.681l-0.959,1.921l-0.24,1.681l-0.24,1.92v1.921v1.681
		l0.48,1.681v1.681v1.921l-0.719,2.161l-0.48,2.401l-0.479,1.441l-0.96,1.201l-1.439,0.24l-0.479,1.441l-1.2,1.441l-0.48,1.68v1.441
		l-1.919,1.921v2.642l0.72,1.681l0.239,1.44l-0.479,1.682l-0.48,1.681l0.24,1.441l1.2,1.2l1.2,1.921v2.162v1.439l-0.72,1.682
		l-1.199,1.921l-0.72,1.441l-0.479,1.439v1.682l1.2,0.96v1.441l-2.399,2.401l-1.919,0.961l-1.439,0.479l-0.72-1.44l-1.439-0.48
		l-1.199,0.721l-2.159-0.24l-1.919-0.721l-4.317,0.481l0.479,1.44l0.959,1.2l0.72,1.681l-0.72,2.162l-0.479,1.68v1.441l2.398,0.24
		l1.919,0.72l1.439,0.721l1.2,1.201l0.719,1.681l-1.439,0.961l-1.679,1.2l1.2,0.72l1.679,0.481l0.959,1.2l0.48,1.681l0.239,2.161
		l-0.239,1.682l-1.439,1.2l-1.2,1.441l-1.439,1.2l-1.439,1.682l-1.679,0.72l-0.959,1.44l-0.959,1.682v2.161l1.2,1.921l0.479,2.161
		l-0.959,1.441l-1.2,0.96l-1.199,1.682l-1.439,1.68l-2.159,0.48l-0.959,0.961l-1.679,0.721l-0.719,0.96l-0.959,1.682l0.239,6.003
		l-1.439,1.921h-1.919l-1.679,0.961l-0.72,0.72l-1.919-0.24h-1.679l-1.2,0.721l-1.439,0.961l-1.44,0.48l-1.198-0.48l-0.721-1.441
		l-0.24-1.681l-0.479-1.921l-0.479-1.682l-1.439-2.401l0.479-1.44l1.919-0.24l1.919,0.721l1.439,0.96l1.679,0.961l1.68-0.239
		l1.199-0.962l-0.479-1.92l-0.959-1.441l-0.719-1.2l-1.2-0.721l-1.439-0.48l-1.439-1.2l-1.68-0.48l-0.479-1.441l-1.679,0.48
		l-1.68-0.24l-1.439-0.72l-1.679-0.721h-2.159l-1.44-0.479l0.24-2.162v-1.441l-0.719-1.44l-1.2-1.44l0.24-1.681l0.719-1.682
		l0.48-2.16l-0.721-2.162l-1.438-1.44l0.479-1.681v-1.682l-0.479-1.92l-1.2-1.201l0.479-1.921l-0.958-1.201l-1.2-0.96l-2.639,0.96
		l-1.199,1.201l-1.44,1.681l-1.679,0.72l-0.24-1.681l-0.479-2.401l-2.159,0.721l-1.679,0.961l-1.92,0.24l-0.958,1.92l1.439,0.721
		l1.679,1.201l-0.239,1.44l-1.439,0.241l-1.679-1.201l-2.639-0.721l-2.398,0.24l-0.959,1.2l-1.44,1.922l-1.679,0.479l-1.439-0.96
		l-1.439,0.72l0.48,1.441l0.719,1.921l0.24,1.681l0.72,2.402l0.479,1.92l-0.719,1.922h-1.679l-0.959,1.2l-1.919-0.24l0.239,1.682
		l1.44,0.72l0.48,1.441l-0.48,2.16l1.439,1.441l-1.439,1.2l-0.72,1.682l-0.24,1.2l-1.199,1.201l-1.2,1.2l-0.958,1.44l-0.961,2.161
		l-0.959,1.441l-0.479,1.44l1.2,1.441v1.921l-1.68,0.961l-0.719,2.16l0.24,1.682l0.959,2.161l0.719,2.16l0.48,2.162v1.682
		l-1.44,0.96l-2.398-0.24l-1.68,0.24l-1.679,1.201l-1.679,0.96h-1.919l-0.959,0.48v-0.24l-2.639-2.642l-3.119-4.803l-0.239-5.282
		l0.239-0.24h2.159l1.68,0.24l0.959-1.682l1.679-2.161l-0.959-0.721v-1.2l0.48-0.24l-1.199-2.401l-0.24-0.721l-0.959,0.241
		l-0.719-0.241l-0.72-0.48l0.24-1.44l-1.919-2.161l-0.719-1.922l-1.2-1.68v-1.682v-0.72l-0.72-1.201l-0.479-1.44l-1.2-2.642
		l-0.959,0.479l-2.159,2.401l-1.2,0.48l0.72-2.4l-3.119-5.523l-1.919-1.441l0.72-2.882l-0.48-1.2l-0.24-2.161l-1.919,0.721
		l-3.119,2.641v2.882l-0.719,0.721l-0.96,0.721l-0.72,0.24l-0.959,1.44l-0.959,3.121l-1.919,1.682l-2.639,1.681h-1.439l-1.679,1.201
		l0.24,2.401v3.842l-0.48,2.642v3.122l-0.719,3.602l-1.2,2.161l-0.24-0.24l-1.199-0.96l-1.439-2.642l-2.878-6.725l-1.439-5.282
		l0.959-4.082l-0.719-5.043l-1.2-5.764v-5.282v-1.441l0.959-2.642l-0.24-2.161l1.199-4.082l-0.959-4.082v-3.843l0.48-1.681
		l-0.48-1.44l-1.439-2.161l-0.24-0.721l0.96-1.921v-0.961l-0.96-2.16l0.72-2.402l-0.24-1.201l-0.48-0.96l-0.479-1.921l0.479-0.961
		l-0.96-2.881l-0.719-0.721l-0.959-2.161l0.48-4.082l0.479-0.961l1.2-1.44l0.24-1.2l2.639-6.005l0.24-1.439l-1.439-8.646
		l-0.959-1.92l0.24-4.563l-0.959-1.441v-1.201l0.719-1.201l0.24-0.96l-0.24-0.24l-0.24-2.882v-1.201l0.48-0.72l-0.48-2.882
		l-1.439-2.161l0.719-4.323l-0.24-1.681l-1.679-1.92l0.719-1.921l0.72-0.72l1.679-0.96l0.719-0.961v-1.201l-1.199-1.681l-0.96-0.96
		l-0.719-0.96l-1.2-1.921l-2.638-1.921l-0.72-0.72l0.96-3.122v-1.921l-0.96-1.441l-1.679-0.96l-0.959-1.681v-0.96v-2.402
		l-3.838-2.642v-1.44l0.239-1.441v-1.441l0.48-0.24l0.24-2.161l0.479-0.961l0.72-0.24l1.679,0.24l0.719,0.72l0.48,0.961l1.919,1.681
		l1.2-0.24l0.719-0.24l1.2-2.162l1.679-1.681v-0.72l-0.239-1.681l-0.24-0.241l-1.919-2.161l-2.159-2.642l-3.119-2.401l-0.48-1.201
		l-3.118-2.882l-1.2-2.641l-0.479-2.402l-1.199-1.921l-2.639-2.642l-1.199-0.24l-0.24-2.641l-1.679-1.921v-1.201l2.159-1.201
		l0.24-3.362l-0.24-1.201l-4.078-4.802l-0.719-3.362l-3.358-4.083l0.48-6.003l-0.96-0.96l-0.72-0.48l-0.719-0.48l-0.72-0.48h-1.199
		l-1.44-1.201l-0.959-0.96l-0.959-1.201h-1.199l-0.72,0.24l-2.159-0.721l-0.959-0.48l-2.399-1.921l-0.959-1.681l-3.119-1.44
		l-1.439-1.441l-2.159-1.441l-1.2-0.721l-0.719-1.201l-0.959-1.921l-1.919-2.401l-0.96-0.48l-2.638-0.961l-2.159-2.401l-0.719-1.201
		l-0.24-1.681l1.2-1.44l-0.72-1.921l-0.479-0.96l-1.679-1.201l2.398-2.401l2.159-1.201l2.878,0.24l1.68,0.24h0.24v-1.201l-0.48-0.96
		l0.72-0.24l0.48-0.72l-0.24-0.48l-0.479-0.72l-1.2-1.44l0.24-2.161l1.919-1.682l1.199-0.96l1.679-2.162l1.919-2.881l1.919-2.882
		l4.318-2.641l-1.919-0.96l-2.878-0.721l-0.72-1.441l-2.879-0.48l-1.679-0.48l-0.959-4.563l-2.879-2.161l1.439-2.401l-0.959-4.803
		l-1.199-3.122l0.48-0.72l1.199-0.241h0.479l3.838-2.881l1.68,0.24l4.318-0.24l0.959-2.641l0.72-1.921l1.439-0.72l1.919,1.441
		l1.439,0.48l-0.24,1.921l-0.24,3.122l2.639,0.72l2.399-1.441l1.919-1.201l3.598-0.48l4.558-0.24l4.797,0.96l1.439,2.161
		l-0.24,2.402l1.68,0.24l1.919-0.48l0.72,1.441l0.959-0.24l2.159-0.24l2.159,1.201l1.68,3.122l2.638,3.362l1.439,1.921l-1.199,2.161
		l1.438,3.122l0.72,2.881l0.72,2.401l0.959,2.161l1.199,6.244l-1.439,1.681l3.119,4.082l-0.48,1.922l3.598,2.642l3.119,3.602
		l0.72-0.24l1.199-0.72l1.919,0.96l3.119,1.441l3.598,3.361l0.959,2.882l0.479,1.441l1.2,1.921l1.919-0.241l0.48,0.961l0.72,1.441
		l1.439,3.602l3.598,2.641l1.2,0.721h2.159l1.439,1.201l0.72-0.24v-2.161l2.159-0.961l1.2,2.642l2.878,2.882l2.399-0.24l1.439-1.201
		l-0.48-3.362l1.439-4.083l4.318-0.72l0.24-0.48l1.438-2.881h1.919l-0.959,2.161l1.44,1.201h1.2l0.239,1.681l0.721,2.881
		l0.479,2.642l-1.438,2.401l1.679,3.842l2.398,0.48l0.96-0.72v-1.921l1.439-2.642l0.719-1.921l3.119,1.201l3.119-0.96l3.359,3.122
		l1.679,3.602l1.199,1.921l-2.638,3.122l-2.398,3.122l2.159,2.401H353.998z"/>
	<text transform="matrix(1 0 0 1 344.8467 258.7329)" enable-background="new    " writing-mode="tb"><tspan x="0" y="0" font-family="'MicrosoftYaHei'" font-size="8" glyph-orientation-vertical="0" letter-spacing="3">甘孜</tspan><tspan x="0" y="23.637" font-family="'MicrosoftYaHei'" font-size="8" glyph-orientation-vertical="0" letter-spacing="3">藏</tspan><tspan x="0" y="35.551" font-family="'MicrosoftYaHei'" font-size="8" glyph-orientation-vertical="0" letter-spacing="3">族</tspan><tspan x="0" y="47.422" font-family="'MicrosoftYaHei'" font-size="8" glyph-orientation-vertical="0" letter-spacing="3">自</tspan><tspan x="0" y="59.266" font-family="'MicrosoftYaHei'" font-size="8" glyph-orientation-vertical="0" letter-spacing="3">治</tspan><tspan x="0" y="71.047" font-family="'MicrosoftYaHei'" font-size="8" glyph-orientation-vertical="0" letter-spacing="3">州</tspan></text>
</g>
<g>
	<path fill="#CDE9F7" stroke="#37A8DB" stroke-linecap="round" stroke-linejoin="round" stroke-miterlimit="10" d="M519.758,177.556
		l-2.159-0.24l-1.439-0.961l-1.679-1.441l-0.959-1.2l-1.681-1.921l-1.438-0.48l-1.438-0.48l-1.2-1.201l-1.68,0.24l0.24,1.681
		l-0.24,1.44l-0.479,1.921l0.24,2.642l0.72,1.201l-1.2,1.681l1.2,0.96l1.679-0.48l1.199-0.96h1.68l0.48,1.201l1.438,1.2l0.24,2.162
		l-0.479,1.44l1.198,1.681l0.721,1.921l-0.24,1.681v1.2v1.921v1.441l-0.24,2.401l-0.479,1.441l-2.398-0.24l0.959-1.44l-0.24-1.921
		l-0.719-1.201l-0.96-1.681l-0.48-1.201l-1.198-1.681l-1.439-0.48l-1.68,0.24l-1.439,0.24l-2.159,0.48l-1.919,1.201v1.921
		l0.96,0.961l0.959,1.44l0.721,1.441l0.24,1.441v1.921l-0.48,2.162v2.161l0.719,1.201l1.44,0.961l1.679,0.72l0.96,1.441l0.959,0.96
		l1.679,1.201l1.919,0.24l1.44-0.721l0.479-1.441l0.72-1.441l1.679-0.24v1.441l0.72,1.201l0.72,1.681l-1.68,0.48l-1.198,0.721
		l-0.48,1.681l-1.438,0.721l-1.68,0.96l-1.68-0.48l-1.679,0.48l-1.199-0.72l-1.679-0.721l-1.44-0.24l-2.398-0.24l-0.96,1.201
		l-1.919,0.24l0.72,1.921v2.162l-1.439,0.96l-1.199,1.201l-0.959,1.441l0.239,1.681l1.439,0.961h1.68l1.438,0.48l1.68-0.24h1.919
		l0.72,1.44l0.24,1.681l1.438,0.721l1.919,0.96l1.439,0.48l1.92,0.48l0.719,1.44l1.68,1.201L514,237.59l-0.959,0.96l-1.679,1.201
		h-2.159l-1.439,0.24l-1.439,0.48l-1.919,1.441l-1.2,1.201l-1.919,1.441l-1.438,1.921l-1.199,2.642l-0.96,1.201l-0.479,1.441
		l-2.639,3.122l-4.317,2.401h-1.92l-1.68,0.48l0.24,1.681l0.24,1.681l-0.48,1.681l0.721,1.921l-0.48,1.681l-0.48,2.161l-0.719,1.201
		l-0.72,1.681l-0.48,1.201l-0.479,1.44l0.239,1.441l-0.719,1.681l-1.68,1.922l-0.96,1.441l-1.438,1.92l-1.68,0.48l-1.68,0.72
		l-1.919,1.2l-1.679-0.479l-1.68-0.48l-2.158-0.24l-1.44,0.96l-1.198,0.961l-1.68-0.48h-1.439l-1.199,1.201l-1.679,0.48l-1.44,0.479
		l-2.638,0.961l-0.721-1.201l-0.958-1.921l0.479-1.441l0.24-1.441l0.239-1.921l0.721-1.441l-2.399-0.72l-1.919,0.24l-1.439,0.24
		h-2.159l-0.959,1.201l-0.24,1.441l-1.438,1.201h-1.68h-1.439l-1.439,1.201l-1.679,0.48l-1.439,1.201l-0.479,1.201v2.161
		l-1.439,0.721l-1.679,0.24l-1.679-0.24l-1.439,0.479l-1.44,0.961l-1.439,1.68l-1.679,0.961l-1.919,0.24l-1.919,0.48l-1.2-0.96
		l-1.438-1.441l-1.919-0.24l-1.199-2.642l0.24-0.72l0.72-2.402l0.479-1.201l0.24-2.161l0.24-1.441l0.959-1.441l1.439-0.479
		l1.439,0.479h1.439l0.48-1.44l-0.24-2.162l-0.479-1.441l-0.719-1.44l-0.24-1.921l0.24-1.681l-0.24-2.642l-1.679,1.201l-1.439,1.201
		l-1.44,0.72l-0.958-1.441v-1.681l-0.72-2.161l-1.439-0.721l-1.919,0.24l-1.2,1.441l-0.959-1.2l-0.48-1.441l-0.479-1.921
		l-0.48-2.161l-1.199-0.96l-2.399,0.24l-1.44-0.72l-1.439-0.48l-0.719-1.682l-0.719-1.681l-1.44-0.96l-1.439,0.96l-1.679,0.24
		l-0.959-1.441l-1.679,0.481l-1.679,0.48l-1.68,0.721l-1.439-0.721l-1.919-0.24l-1.2-0.961l-1.919,0.24l-1.2-1.2l-0.24-1.44v-2.162
		l-0.479-2.401l-2.159,0.48l-1.919,0.48l-1.679,0.721l-0.959-0.96l-0.719-1.681v-1.681v-1.921l-0.24-2.161l-1.679-0.96l-1.44-0.96
		l-0.959-1.441l-0.479-1.44l-1.2-1.201l-1.68-0.24l0.72-2.401l1.199-0.961l0.72-1.201l0.72-1.2l1.439-0.961l0.72-1.441l-0.24-2.161
		l-1.2-1.921h-1.919l-1.919,0.24l-1.2-0.96l-2.158-1.681l-1.2-1.201l-0.719-1.681l-1.44-0.48l-1.439-0.72v-1.681l-0.24-2.642
		l-0.48-1.201l0.24-1.681l0.48-1.681l-0.48-1.921l-1.679,0.241l-1.68-0.241l-1.679-1.921l-0.72-1.681l0.479-2.642l1.44,0.48
		l1.919-1.921l1.679-2.401l0.72-1.921l0.239-3.362l2.879-0.48l-0.239-1.441l0.479-1.441l5.038,1.441l2.159,0.72l1.919,1.681h0.959
		l2.638-1.681l4.078-1.921l0.479,1.441l0.48-0.24l3.358-0.96l2.639-3.842l-1.68-4.082l-4.797-4.563l1.2-6.244l1.679-3.361
		l1.919-2.882l0.48-0.721l2.399-0.72l4.557,2.161l1.2,0.241l1.679-3.603l2.878,0.48l1.919,3.842l3.119,1.201l0.959-0.721l0.72-0.48
		l3.598-5.283l-2.638-3.122l-0.24-1.2l2.399-4.563l3.358-2.161v-3.122l0.48-2.402l0.959-2.161l0.959-0.961l0.72,0.961l1.439,1.2
		l0.72,2.161l0.24,3.362l0.72,2.401v0.72l0.24,3.362l-0.959,1.921l-1.2,2.642l-2.638,1.201l-0.959,0.24v0.96l1.679,1.921l1.44,2.401
		l1.199,0.96l1.2,0.48l1.439-0.72l1.199-2.882l1.919-0.96h1.679l0.96-2.401l0.719-1.681l0.959-0.24l0.72,0.721l1.199,2.161h0.72
		l0.48-1.441l0.239-1.681l0.72-2.161l0.72-1.682l2.159-1.2h0.959l1.679,0.96h0.959l2.159-2.161l1.439-0.721l0.24-0.48l-0.479-2.401
		l0.959-1.441v-0.72l-3.839-2.162l-0.958-1.2l-0.721-1.201l-0.479-4.322l-0.959,0.24l-1.2-0.48v-0.721l0.959-1.921l-0.48-0.721
		l-1.198-0.48v-1.201l-0.24-1.441v-0.72l-0.959-0.24l-0.72-0.721l-1.439-2.161l-1.439-1.44v-0.481l1.2-0.96l0.719-0.24l2.879-1.441
		h1.919l1.199-0.721l1.439-0.72l1.919-1.921l2.159-0.96l0.479,0.48l1.919,1.441l2.64-1.681l3.598,0.721v-1.441l-1.679-1.681
		l4.797-3.842l0.479-1.2l1.439-1.681l0.479-0.481l4.078,1.441l0.959-1.201l0.24-1.2l1.44,0.24l0.958,1.201l0.961,0.96l0.72,3.362
		l2.158,0.96h1.439l2.398,1.441l1.68,3.603l-1.439,1.921l0.479,0.96l-1.919,3.122l3.119,2.401l-0.24,2.881l-0.48,2.402l0.48,1.921
		l5.757,0.96l2.879,0.961l2.639-1.921l1.199-2.161l1.679-0.24l-0.479,5.523l1.199,2.401h0.239l3.599-0.96l3.358,0.96l3.358,0.72
		l2.639-0.96l2.638,0.24l4.318,0.24l0.72-0.48l1.439,0.24v0.24l5.518,5.523l0.24,2.882l0.479,3.602l1.2,2.642l2.159,1.441
		l2.159,2.162h2.158l2.64,0.96l-0.721,1.201l-3.357-0.48l-0.96,0.72l1.438,5.043l1.2,4.083l-1.439,2.641l0.72,0.72l1.919,0.96
		l0.479,1.921l-1.438,2.401l-1.2-0.72l-3.358,2.401L519.758,177.556z"/>
	<text transform="matrix(0.9992 0 0 1 396.2988 208.4961)" font-family="'MicrosoftYaHei'" font-size="8" letter-spacing="1.001">阿坝藏族羌族自治州</text>
</g>
<g>
	<path fill="#CDE9F7" stroke="#37A8DB" stroke-linecap="round" stroke-linejoin="round" stroke-miterlimit="10" d="M461.706,286.337
		l1.199,1.44l0.96,1.201l0.96,1.201l0.719,1.921l0.24,1.201v2.161l0.72,1.681l1.439,0.72l1.679,0.96l-0.24,1.681v1.441l-0.719,1.441
		l-1.2,1.681l-0.959,1.68l-0.96,1.682l-0.719,1.441l-1.44,1.681l-1.198,1.92l0.479,1.681l0.719,1.92h1.679l0.961-0.72l1.919-0.96
		l1.199,1.441l1.439-0.961l0.479-1.441l3.118,1.202l2.159,0.479l0.24,1.681v1.681l0.239,1.921l-0.96,1.681l-1.198,1.201l-2.159-0.24
		l-1.68,1.44l-0.239,1.921l-2.399,2.162l-1.919,2.4h-1.438l-0.96,1.682l0.96,1.439l0.959,2.642l0.72,1.441l-0.24,1.921l-0.479,1.201
		l0.24,1.681l-1.919,0.721l-1.439-0.481l-1.919-0.479l-1.44-1.2l-1.679-0.48h-1.439v1.681l0.239,2.642l-0.479,2.161l-0.721,1.922
		l-0.719,1.2l-1.439,1.441l-1.2,1.44l-0.959,0.96l0.72,1.681l0.72,1.201l1.919-0.24l1.679,0.961h1.679l0.48,2.16v1.682l0.239,1.922
		l-2.158-0.481l-1.2,1.201l-0.719,1.92l-1.919,2.162l-1.68-0.721l-0.72-1.441l-1.438-0.72l-0.96,1.922v1.68l-1.439,1.441
		l-1.439-0.24l-1.92-0.479l-1.439-0.962l-1.199-0.96l-0.72,1.2l-0.48,1.682l-1.2,1.44l-1.919,0.48l0.48,1.44l-0.959,1.922
		l-0.719,1.681l-0.721,1.201l-0.239,2.161l-0.24,2.4l-1.679,2.882l-2.638-0.24l-1.68,0.48l-0.96-1.681l-1.438-0.96l-1.68-0.722
		l-0.479-1.44l-1.44-1.44l-0.719-1.681l-1.439-2.642l0.239-1.682l-0.239-2.161l-0.48-1.681l-0.959-1.2l-1.679-0.481l-1.2-0.72
		l1.679-1.2l1.439-0.961l-0.719-1.681l-1.2-1.201l-1.439-0.721l-1.919-0.72l-2.398-0.24v-1.441l0.479-1.68l0.72-2.162l-0.72-1.681
		l-0.959-1.2l-0.479-1.44l4.317-0.481l1.919,0.721l2.159,0.24l1.199-0.721l1.439,0.48l0.72,1.44l1.439-0.479l1.919-0.961
		l2.399-2.401v-1.441l-1.2-0.96v-1.682l0.479-1.439l0.72-1.441l1.199-1.921l0.72-1.682v-1.439v-2.162l-1.2-1.921l-1.2-1.2
		l-0.24-1.441l0.48-1.681l0.479-1.682l-0.239-1.44l-0.72-1.681v-2.642l1.919-1.921v-1.441l0.48-1.68l1.2-1.441l0.479-1.441
		l1.439-0.24l0.96-1.201l0.479-1.441l0.48-2.401l0.719-2.161v-1.921v-1.681l-0.48-1.681v-1.681v-1.921l0.24-1.92l0.24-1.681
		l0.959-1.921l0.959-1.681l-0.48-2.161l1.439-0.721v-2.161l0.479-1.201l1.439-1.201l1.679-0.48l1.439-1.201h1.439h1.68l1.438-1.201
		l0.24-1.441l0.959-1.201h2.159l1.439-0.24l1.919-0.24l2.399,0.72l-0.721,1.441l-0.239,1.921l-0.24,1.441l-0.479,1.441l0.958,1.921
		l0.721,1.201l2.638-0.961l1.44-0.479L461.706,286.337z"/>
	
		<text transform="matrix(1 0 0 1 447.1152 306.188)" font-family="'MicrosoftYaHei'" font-size="8" glyph-orientation-vertical="0" writing-mode="tb">雅安市</text>
</g>
<g>
	<path fill="#CDE9F7" stroke="#37A8DB" stroke-linecap="round" stroke-linejoin="round" stroke-miterlimit="10" d="M519.758,177.556
		l0.72,2.882l4.558,2.881l3.119,1.921l4.317,0.961l1.919,1.201l1.199,1.441l-0.48,2.881l0.721,1.681l1.2,0.721l1.198,0.72
		l1.439,0.96l0.96,1.441v1.681l-0.24,2.161l0.48,1.921l1.438,1.2l1.439,0.721l1.679-0.24l2.16,0.96l1.198,1.201l1.199,1.921
		l0.24,1.921l1.919-0.721l1.919-0.96l1.2-0.961l1.679-0.48h1.439l3.119-0.24l0.479,1.44l0.719,1.441v1.681l0.24,1.681l-0.48,2.161
		l1.92,0.961l-0.959,0.96l-0.961,2.641v1.921l-1.919,0.24l-1.438,1.201l0.48,2.161l0.479,1.681v1.681l0.719,1.201l0.24,1.681
		l0.96,1.441l0.479,1.201l1.92,0.48l-0.239,1.921l-0.72,1.441l1.198,0.96l1.68,0.24v1.681l0.239,1.681l1.2,1.921l1.199,0.961
		l0.479,1.44l1.68,0.961v1.441l2.398,3.362l0.48,1.681l0.72,1.441l1.438,0.24l1.919-0.48l1.439-0.24l0.479,1.681l-0.958,1.44
		l-1.2,1.201l1.439,1.44l0.959,1.201l0.96,1.201l0.239,2.401l0.96,1.441l0.96,1.201l-0.24,1.681l0.48,2.161l-0.24,1.921l-1.68,1.2
		l-1.68,0.481l-1.679-0.24l-1.679-0.241l-1.439-1.2l-1.439-1.201l-1.439-0.721l-1.919-0.48l-1.199-1.201l-0.72-1.441l-0.72-1.441
		h-1.919l-1.919,0.721l0.24,1.681l-2.159,0.48l-1.68,0.72l-0.959,1.681v1.681l0.479,1.921l0.24,1.681l-0.24,2.882l0.959,1.201
		l0.96,1.441l0.719,1.44l0.961,1.921v1.682l-1.199,0.96l-1.681,0.24l-1.438-0.48l-2.159-0.96l-1.438-0.48l-1.68-0.24l-1.92-0.72
		l-0.719-1.44v-1.682l-0.48-1.44l-1.438-0.48l-0.48-1.441l-0.479-1.681l-1.439-0.72l-1.679-0.48l-1.199-1.44l-0.72-1.441
		l-0.479-1.201l-1.2-1.921l-0.719-1.681l0.239-1.681l-0.959-1.441l-1.199-1.201l-0.24-2.162l-0.96-1.681l-1.439-0.96l-0.239-1.921
		l-0.961-1.201l-1.438-0.48l-0.72-1.441l-0.719-1.201l-1.44-0.96l-1.439-1.681l-1.198,2.881l-1.44,0.96h-1.919l-1.438,0.24
		l-1.439-0.96l-0.96-1.44l-1.199-0.961l-1.68-1.201l-1.679-1.441l-1.199-0.96l-1.439-1.441l-0.72-1.201l-0.239-1.441l-0.48-1.441
		l-0.719-2.642l-0.24-1.921l1.679-1.201l0.959-0.96l-0.239-1.921l-1.68-1.201l-0.719-1.44l-1.92-0.48l-1.439-0.48l-1.919-0.96
		l-1.438-0.721l-0.24-1.681l-0.72-1.44h-1.919l-1.68,0.24l-1.438-0.48h-1.68l-1.439-0.961l-0.239-1.681l0.959-1.441l1.199-1.201
		l1.439-0.96v-2.162l-0.72-1.921l1.919-0.24l0.96-1.201l2.398,0.24l1.44,0.24l1.679,0.721l1.199,0.72l1.679-0.48l1.68,0.48
		l1.68-0.96l1.438-0.721l0.48-1.681l1.198-0.721l1.68-0.48l-0.72-1.681l-0.72-1.201v-1.441l-1.679,0.24l-0.72,1.441l-0.479,1.441
		l-1.44,0.721l-1.919-0.24l-1.679-1.201l-0.959-0.96l-0.96-1.441l-1.679-0.72l-1.44-0.961l-0.719-1.201v-2.161l0.48-2.162v-1.921
		l-0.24-1.441l-0.721-1.441l-0.959-1.44l-0.96-0.961v-1.921l1.919-1.201l2.159-0.48l1.439-0.24l1.68-0.24l1.439,0.48l1.198,1.681
		l0.48,1.201l0.96,1.681l0.719,1.201l0.24,1.921l-0.959,1.44l2.398,0.24l0.479-1.441l0.24-2.401v-1.441v-1.921v-1.2l0.24-1.681
		L514,187.642l-1.198-1.681l0.479-1.44l-0.24-2.162l-1.438-1.2l-0.48-1.201h-1.68l-1.199,0.96l-1.679,0.48l-1.2-0.96l1.2-1.681
		l-0.72-1.201l-0.24-2.642l0.479-1.921l0.24-1.44l-0.24-1.681l1.68-0.24l1.2,1.201l1.438,0.48l1.438,0.48l1.681,1.921l0.959,1.2
		l1.679,1.441l1.439,0.961L519.758,177.556z"/>
	<text transform="matrix(1 0 0 1 526.2354 232.0664)" font-family="'MicrosoftYaHei'" font-size="8">绵阳市</text>
</g>
<g>
	<path fill="#CDE9F7" stroke="#37A8DB" stroke-linecap="round" stroke-linejoin="round" stroke-miterlimit="10" d="M653.853,194.606
		l2.398-0.24l0.96,1.681l-0.96,3.602l0.721,1.681l1.438,0.72l4.798-1.201l4.318,0.721l2.639,2.641l0.719,0.961l-0.959,3.122v1.921
		l-0.479,1.681l-1.439,0.24l-1.68,0.72l0.72,1.921l1.199,1.2l1.439,0.721l1.439,0.48l1.439,1.201l-0.96,1.441l-1.679,1.441
		l-2.159,0.48l-1.919,0.48l-1.439,0.48l-0.48,1.441l-0.238,1.681l-0.48,1.681l-1.2,0.721l-0.959,1.441l2.64,1.441l0.238,1.921
		l-0.479,1.201l-1.44,1.44l-0.719,1.921l0.959,1.681l0.72,1.201l-1.438,1.441l-1.681,1.681l-1.438,1.201l-1.438,1.201l-1.68,1.681
		l-1.2,1.681l-1.438,0.721l-0.96,1.441l-1.439,0.48l-1.919,0.721l-0.96,1.441l-0.959,1.921l-1.439,1.441l-1.439-0.961l-1.438,0.721
		l-0.72,1.921l-1.68,1.921l-1.438-2.161l-0.24-1.44l-1.44-0.961l-0.719-1.201l-1.2-0.96l-0.239-1.681l-0.239-1.441l-0.96-1.681
		l-0.48-1.921l-1.679-0.24l-1.438-0.48l-1.681-0.96h-1.679l-1.679-0.961l-0.72,1.681l0.479,1.44l-0.959,1.201l-1.439-0.24
		l-1.199-0.961l-1.199-1.2l-1.68-0.48l-1.68-1.441l-0.479-1.441l-1.199-0.72l-0.96-1.441l-1.199-1.201v-1.681l0.959-1.441
		l-0.239-1.921l-0.239-3.122l0.239-1.681l0.72-1.921l0.72-1.441l0.72-3.122l1.439-0.24l0.24-1.441l0.239-1.44l0.959-1.201l1.44-0.96
		l0.719-1.441l-0.959-1.681l-0.24-1.681l0.96-1.441l1.679-0.72l1.199-0.48l1.199-0.96l1.68-1.201l0.959-1.201l1.439-0.961
		l-1.679-0.96l-1.439-1.201l-0.479-1.44l0.239-1.441l0.24-2.162l-0.24-1.681l-1.438-1.441l-1.2-1.201l0.48-1.681l0.479-1.681v-1.441
		l-0.479-1.441l-0.24-2.401l4.078-1.441l1.679,0.961l1.92,0.721l1.439-0.241l9.595-0.96l1.199,3.361l-1.439,2.642l-0.239,3.842v1.44
		h2.878l0.96-0.24v2.641l4.318,1.681l0.719-0.72l0.96-2.401l1.199-2.642L653.853,194.606z"/>
	<text transform="matrix(1 0 0 1 630.0254 226.5581)" font-family="'MicrosoftYaHei'" font-size="8">巴中市</text>
</g>
<g>
	<path fill="#CDE9F7" stroke="#37A8DB" stroke-linecap="round" stroke-linejoin="round" stroke-miterlimit="10" d="M653.853,310.59
		l-1.439-0.96l-0.96-2.401l0.24-1.681l-1.919-0.24l-0.24-1.441l0.96-1.2l0.24-2.642l-1.679-0.24l-1.44,1.201l-1.679,0.24l0.96,1.441
		l-1.68,0.239l-0.96-1.201l-1.439-0.96l-1.199-1.441l0.24-1.441l1.439-4.802l-2.159,1.441h-1.679l-1.439-0.48h-0.96l-1.919-2.401
		l1.679-0.24v-1.68l-10.314-5.764l0.239-1.921l0.24-1.681l1.919-0.721l0.24-1.92l1.679-0.481l1.439-0.72l0.72-1.922l0.72-1.681
		l1.439-1.681l0.96-1.201l1.439-1.201l0.958-1.44l-0.238-1.681v-2.161l1.438-2.402l1.68-1.921l0.72-1.921l1.438-0.721l1.439,0.961
		l1.439-1.441l0.959-1.921l0.96-1.441l1.919-0.721l1.439-0.48l0.96-1.441l1.438-0.721l1.2-1.681l1.68-1.681l1.438-1.201l1.438-1.201
		l1.681-1.681l1.438-1.441l-0.72-1.201l-0.959-1.681l0.719-1.921l1.44-1.44l0.479-1.201l-0.238-1.921l-2.64-1.441l0.959-1.441
		l1.2-0.721l0.48-1.681l0.238-1.681l0.48-1.441l1.439-0.48l1.919-0.48l2.159-0.48l1.679-1.441l0.96-1.441l-1.439-1.201l-1.439-0.48
		l-1.439-0.721l-1.199-1.2l-0.72-1.921l1.68-0.72l1.439-0.24l0.479-1.681v-1.921l0.959-3.122l2.399,4.082l5.038,2.882l1.198,1.921
		l2.159-0.48v-0.961l2.399-3.122l1.919-0.48l2.398,0.48l3.358-1.201l0.24-1.201v-0.24l3.118-0.72l1.439,2.161l3.119-0.48
		l3.838-0.961l-0.24,1.921l2.399,1.201l-2.88,1.441h-2.158v1.921l1.439,0.96l0.719,1.681v1.681l-1.679-0.24l-1.679,0.721l-0.72,1.44
		l0.96,1.441l-0.48,1.441l-2.159-0.721l-1.199,1.201l0.239,1.681l0.721,1.44l0.959,1.441l1.199,1.201l1.439,0.721l1.44,1.2
		l1.679,0.481l0.959,0.96l1.68,0.721l1.439,0.961v1.681l0.239,1.921l-0.96,2.161l-1.679,1.201h-1.919l-1.438,1.201v1.681
		l-1.681,1.681l-0.959,1.681l-1.2,0.72h-2.158l-1.919,0.48l0.479,1.201v1.921l-0.479,1.441l-1.199,0.96l-0.24,1.681l0.479,1.682
		l-1.439,1.44l-1.679,0.961l-1.199,0.96l-1.679,0.48l0.719,2.161l1.439,0.48l-0.479,1.44l-0.72,1.441l-1.199,1.441l-0.479,1.441
		l1.198,1.201l-0.719,1.681l-1.2,1.201l-2.398,0.96l-0.72,1.441v2.161l1.439,0.72l-0.24,1.681l-0.959,1.441l-1.68,1.201
		l-1.199,1.441l-1.919,0.479l-2.159-0.96l-0.24-1.441l-0.72-1.92l-2.158,0.72l-1.439,0.96l-1.679,0.961l-1.439-0.48l-1.439-0.72
		l-1.68-0.48l-0.479,1.441l-0.959,2.161l-1.44,1.921l-0.959,1.201l-0.239,2.161l0.959,1.441l1.92,1.201v1.441l-1.2,1.201
		l-0.72,1.201l-0.72,1.441l-1.438,2.401l-1.2,0.96l-1.199,2.162l-0.72,1.681l-0.959,1.921l-0.72,1.441L653.853,310.59z"/>
	<text transform="matrix(1 0 0 1 655.8525 261.1226)" font-family="'MicrosoftYaHei'" font-size="8">达州市</text>
</g>
<g>
	<path fill="#CDE9F7" stroke="#37A8DB" stroke-linecap="round" stroke-linejoin="round" stroke-miterlimit="10" d="M559.099,290.179
		l-0.24,1.681l-0.24,1.681l-0.719,1.201l-1.2,1.441l-0.479,1.44l-0.719,1.441l-1.2,0.721l-2.159,0.96l-1.439,0.72l-0.959-1.68
		l-0.239-1.441l-0.96-1.441l-1.439-0.481h-1.439l-1.439,0.721l-1.438,0.479l-0.24-1.68l0.24-2.401l-1.44-1.681l-1.198-1.681
		l-0.961-1.441l-1.198-1.441l-0.959-1.201l-1.44-0.96l-1.679-1.201l-1.919-0.72l-1.679-0.721l-0.721-1.441l-1.438-1.68l-2.159,0.239
		h-1.919l-1.2,0.48l-1.679,0.96l-2.159,0.48l-1.679,0.24h-1.919l-1.68-0.24l-0.72-1.441l0.48-1.921l-0.24-1.681l-2.159-2.642
		l-1.2-0.961l-1.438-1.201l-0.96-1.681l-0.479-2.161l-0.72-1.681l-1.679-0.24l-1.2-0.721l-0.479-1.441l-0.721-1.441l-0.479-1.44
		l0.479-1.921l0.48-1.681l-0.24-1.441l-0.96-0.96l-2.159-0.48l-1.438-0.721l-0.72-1.921l0.479-1.441l0.96-1.201l1.199-2.642
		l1.438-1.921l1.919-1.441l1.2-1.201l1.919-1.441l1.439-0.48l1.439-0.24h2.159l0.24,1.921l0.719,2.642l0.48,1.441l0.239,1.441
		l0.72,1.201l1.439,1.441l1.199,0.96l1.679,1.441l1.68,1.201l1.199,0.961l0.96,1.44l1.439,0.96l1.438-0.24h1.919l1.44-0.96
		l1.198-2.881l1.439,1.681l1.44,0.96l0.719,1.201l0.72,1.441l1.438,0.48l0.961,1.201l0.239,1.921l1.439,0.96l0.96,1.681l0.24,2.162
		l1.199,1.201l0.959,1.441l-0.239,1.681l0.719,1.681l1.2,1.921l0.479,1.201l0.72,1.441l1.199,1.44l1.679,0.48l1.439,0.72
		l0.479,1.681l0.48,1.441l1.438,0.48l0.48,1.44v1.682l0.719,1.44l1.92,0.72l1.68,0.24l1.438,0.48L559.099,290.179z"/>
	<text transform="matrix(1 0 0 1 511.9639 270.3398)" font-family="'MicrosoftYaHei'" font-size="8">德阳市</text>
</g>
</svg>
