<?xml version="1.0" encoding="utf-8"?>
<!-- Generator: Adobe Illustrator 16.0.0, SVG Export Plug-In . SVG Version: 6.00 Build 0)  -->
<!DOCTYPE svg PUBLIC "-//W3C//DTD SVG 1.1//EN" "http://www.w3.org/Graphics/SVG/1.1/DTD/svg11.dtd">
<svg version="1.1" id="图层_1" xmlns="http://www.w3.org/2000/svg" xmlns:xlink="http://www.w3.org/1999/xlink" x="0px" y="0px"
	 width="368px" height="170px" viewBox="0 0 368 170" enable-background="new 0 0 368 170" xml:space="preserve">
<path fill="#0889D1" stroke="#37A8DB" d="M355.75,31.257l-2.639,7.454l-1.922,0.962l-6.723,1.202l-6.961,3.126l-3.359,0.24
	l-1.922-0.48l-3.119-2.645l-1.682-0.241l-15.123,2.886h-6.002l-8.881-3.126l-4.561-2.164l-4.322-0.721l-7.682,2.404l-4.561,3.367
	h-2.4l-23.045,6.012h-7.439l-0.963,1.441l2.643,0.239l0.24,0.724l-1.201,2.403l0.961,2.886l-1.199,6.012h-1.441l-2.639-0.963h-6.482
	l-2.398-0.722l-2.4,0.722l-3.119-0.24l-2.881,1.686l-5.521,0.479l-5.521,5.53l-0.721-1.441l-0.479-0.723l4.561-5.771l5.521-5.047
	l2.4-0.725l0.721,0.24h0.721h1.199l-5.279-3.126l-3.361-0.48l-3.359-0.72l-5.041-1.926l-2.881-1.923l7.922-5.048l16.805-12.505
	l5.521-6.013l4.082-7.453l10.32-10.82l4.801-2.164l17.523-3.607l7.684-0.48l4.561,0.24l27.365,4.089l11.043,3.126l22.322,7.693
	l22.566,8.177L355.75,31.257z"/>
<path fill="#E3F2FB" stroke="#37A8DB" d="M220.125,53.138l5.279,3.127h-1.201h-0.719l-0.721-0.241l-2.4,0.725l-5.521,5.049
	l-4.561,5.771l0.479,0.723l0.721,1.439l-2.398,2.887l-1.441,2.886l-3.842,2.646l-10.561-3.364l-3.604-0.481l-13.44,3.605
	l-18.006,3.609l-10.082,1.924l-6.723-0.241l-3.601,0.723l-21.844,9.619l-0.96-0.724l-1.681-0.24l-1.682,0.48l0.48-2.162
	l-0.961-0.723l-4.562,0.48l-3.359,2.162l-0.96-0.479l-1.682-1.923l-2.399-0.963l-0.479-0.961l-1.2-0.24l-2.641-2.164l-0.24-2.404
	l3.841-1.441l2.161-1.686l-0.241-0.722l1.682-1.442l2.16-0.48l0.96-1.199l2.159-0.725h0.24l0.24-0.239l1.2-1.2l2.16-2.404
	l0.479-4.328l2.88-2.886l1.681-0.481l2.16-2.404l0.24-0.96l-1.2-2.404l0.24-0.723l0.72-0.96l2.881-0.723l0.24-0.964l12.962,1.927
	l2.401,0.479l0.24,0.723l6.001-0.963l5.279,0.48l14.164,0.24l3.603-0.24l2.88-0.963l2.882,1.203l4.56-0.963l4.082,0.241l9.362-1.925
	l9.361-3.126l7.199-4.327l2.881,1.923l5.041,1.925l3.359,0.722L220.125,53.138z"/>
<path fill="#0889D1" stroke="#37A8DB" d="M87.618,72.135l-1.92,2.404l-0.239,2.165v0.239l1.44,5.771l-0.722,1.203l-1.199,1.442
	l-2.882,1.2l-0.72,2.165l-1.682,2.163l0.96,11.782v0.24v0.238l-0.96,0.723l-4.32-1.201l-2.882-1.686l-4.561-5.528l-0.721,0.479
	l-1.439-0.721l-0.479,0.24l-0.96-2.646l-0.24-0.24l-8.4-3.365l-1.681-0.96l-0.239,0.239l-1.681,0.479l-0.479,1.685l-2.399,2.162
	l0.479,3.367l-3.841,1.442l-9.36,0.239l-3.361,0.479l-4.08,0.722l1.68-5.529l-2.399-2.164L27.128,89.2l-2.881,1.202l-5.04-0.48
	l-2.4,0.964l-4.562,3.605L9.367,93.77l-0.96-1.684l6.48-2.887l9.604-6.973l12.962-8.656l1.2,0.238l3.601-1.683l15.845-4.568
	l3.601-1.684l13.442-8.177l7.682-3.604l7.441-1.925l7.921,0.239l-2.16,9.857l-2.642,6.013l-1.92,2.164L87.618,72.135z"/>
<path fill="#0889D1" stroke="#37A8DB" d="M119.543,128.16l-0.96,8.176l0.239,0.48l1.682,0.722l0.959,2.163v1.686l-1.439,1.682
	h-1.201l-1.439,2.888v6.251l-2.399,3.365l1.68,1.686h1.2l-1.92,2.645l-7.201,6.973l-6.48,1.925l-0.959,0.72l-1.201-0.479
	l-1.92,0.961l-0.48-1.441l1.922-0.479l0.238-1.925l0.96-0.239v-0.724h-1.68l-1.2-1.684l-1.439-0.722l-1.201-0.479l-1.199,0.721
	l-1.441-0.239l-0.96-0.961l-1.92-0.239l-1.2-0.723l2.16-1.685l0.48-1.2l-1.68-0.479l0.479-0.724l-0.24-0.239h-2.88l-0.239-0.724
	l-0.479-2.164l1.438-0.959l-0.959-1.686l1.198-0.479l1.201,1.683l2.399-1.202l1.199-1.684l-0.72-1.441l0.239-0.48l1.2,0.962
	l1.44-4.087l-1.44-0.723l-1.439-2.404l0.239-0.963l-0.721-0.239l0.721-0.48l-0.239-0.961l0.96-0.239l-0.241-0.963l-0.479-0.479
	l-1.44,1.202l-0.238-0.963l-0.722-0.239v-0.964l-1.681-1.44l-3.359-1.442l0.96-0.961l-0.72-0.479v-0.963l0.72-0.481l2.642,1.926
	l3.359-0.724l0.721-0.479l-0.721-1.925l1.201-0.239l3.359,1.924h1.2l0.72-0.961v-1.924l0.721-0.723l11.042-5.05L119.543,128.16z"/>
<path fill="#28ADF7" stroke="#37A8DB" d="M64.333,92.814l0.96,2.646l0.479-0.241l1.439,0.723l0.721-0.479l4.561,5.528l2.882,1.685
	l-0.24,2.403l-0.238,0.722l0.479,0.241l0.239,0.48l3.842,1.924l2.399,0.963l0.72,0.238l-2.159,0.963l-1.44-0.724l-1.44,0.24
	l-6.961,2.646h-9.122l-2.882,0.479l-1.199-0.479l1.92-0.721l-0.479-0.479l0.239-0.724l-0.72-0.239l-2.161,2.645l-0.96-4.327
	l1.92-0.962l-0.24-0.961l-2.398-0.241v-0.722h-1.44v0.722l-7.682,1.683l-5.042-0.239l-0.72,6.253l-6.962-0.962l-2.16-1.442
	l-4.801,2.404l-0.239-0.962l3.358-2.164l-2.398-1.443v-3.364l-1.441,0.24v-1.442l1.201-2.165l0.96,0.242v-2.888l0.72-0.722h0.722
	l0.479-0.723l4.081-0.721l3.361-0.479l9.359-0.24l3.843-1.442l-0.48-3.365l2.4-2.164l0.479-1.686l1.92-0.72l1.682,0.96l8.399,3.366
	L64.333,92.814z"/>
<path fill="#0068A5" stroke="#37A8DB" d="M14.404,80.55l-6.002,1.443l-1.201-0.962l2.642-3.127l1.92-6.491l-0.239-6.011L7.92,54.582
	l-3.359-7.214L0.479,36.307l-0.48-5.531l2.161-3.847L7.441,22.6l12.003-6.251l7.682-2.885l6.001-1.442l5.282-0.722l7.201,0.24
	l5.761,0.722l7.922,2.646l7.921,4.328l3.842,7.693l4.08,11.301l4.322,7.215l0.479,1.201l-0.479,0.723l-5.282,2.164L59.534,58.67
	l-6.481,1.924L40.81,61.795l-6.48,3.127l-6.241,4.087l-8.4,7.937L14.404,80.55z"/>
<path fill="#A9DFFF" stroke="#37A8DB" d="M158.191,81.513l0.962,2.404l3.841,1.683l-1.681,2.646l-0.24,3.127l1.921,3.846l0.24,8.176
	l-2.644,2.646l-2.64,0.724l-0.721,2.402l-2.161,0.241l-0.48,1.683h-3.12l-2.399,0.723l-1.682-0.723l-2.398,1.923l-0.72-0.479
	l-2.161,0.239l-0.721,2.403l-0.961,0.724l-1.68,6.25l-0.96,0.724h-1.68l-0.722,0.722l0.96,1.441l-0.96,2.887l-0.721,0.961
	l-2.88,0.239l-0.72,1.685l-1.2,0.963l-0.959-0.724l-0.24,1.203l-2.641-1.442l-1.441-0.479l-0.96-1.202l-0.72,0.241l-1.681-1.203
	h-1.682l-9.602-6.252l1.44-0.96l-2.161-3.367l-3.841-1.684l-2.642,0.24l-5.041-3.608l-1.68-0.239l-0.722-0.48l12.002-13.466
	l8.643-4.809l21.844-9.619l3.601-0.723l6.723,0.241L158.191,81.513z"/>
<path fill="#70CBFF" stroke="#37A8DB" d="M199.48,85.84l-0.963,2.887l-1.92,0.479l-0.719-1.683l-0.723-0.24l-2.879,2.402
	l-2.643,0.965l-0.479,1.439l0.479,2.886l-0.479,2.164v3.847l5.039-0.479l5.041,1.441l13.922-1.683l1.201,0.72l1.439,2.164
	l-0.963,1.687v1.44l2.883,0.963l2.641,3.606l-3.84,1.44l-1.201,0.962l-1.439,3.127l-1.682,0.721l-1.438-0.239v-0.48l-1.441,0.721
	l-3.119,0.481l-5.521-2.164l-1.438,0.722l-2.162-0.24l-5.041,0.48l-1.92-0.48l-4.08,1.924v1.203l-1.201,0.238l0.961,1.203
	l0.24,4.569v0.239l-1.682-0.239l-0.239,2.646l1.437-0.48l1.203,0.722l1.439-0.962l2.641-0.482l0.238,1.444l-7.44,3.847l-0.961,2.405
	l-1.921,0.481l-1.68,2.401l0.239,0.722l-0.962,0.963l-1.681-0.24l-2.159,1.684l-1.92-0.479l-0.722-0.722l1.439-4.81l-0.72-0.723
	l-2.882-0.722l-8.882,0.479l0.479-4.566l1.683-4.328l0.719-0.48l0.722,2.163l0.961-1.2l-0.239-0.723l0.96-0.24l-0.24-0.48
	l-2.64-0.961l-0.723-0.962l1.439-0.479l2.161-2.646l2.398-0.722V117.1l0.48-0.479l-0.961-1.686l1.681-1.199l-0.479-1.443v-6.973
	l-3.36-0.479l-1.921-1.442h-0.719l-0.24-8.176l-1.921-3.847l0.239-3.127l1.682-2.646l-3.841-1.684l-0.962-2.404l18.006-3.607
	l13.44-3.605l3.602,0.479l10.563,3.364l-3.119,3.367l0.24,2.887L199.48,85.84z"/>
<path fill="#70CBFF" stroke="#37A8DB" d="M102.26,92.333l0.961,0.481l3.358-2.164l4.563-0.48l0.96,0.722l-0.48,2.163l1.682-0.48
	l1.681,0.242l0.96,0.722l-8.643,4.809l-12.002,13.466l-1.199-1.685l-3.121-1.202l-3.842,1.202l-2.159-0.479l-0.722,0.479
	l-2.399-0.722l-0.96-0.24l-1.438-0.723l-3.841-1.924l-0.24-0.24l-0.479-0.479l0.238-0.721l0.24-2.404l4.32,1.201l0.96-0.724v-0.237
	v-0.24l-0.96-11.782l1.682-2.162l0.721-2.166l2.881-1.201l1.199-1.441l0.722-1.203l-1.44-5.77v-0.24l0.239-1.924l1.921-2.646
	l3.84-1.684l1.92-1.926l2.642-6.25l2.16-9.859l14.401,2.404l7.922,0.479l-0.239,0.963l-2.882,0.724l-0.721,0.959l-0.239,0.724
	l1.199,2.404l-0.239,0.96l-2.16,2.404l-1.681,0.481l-2.881,2.886l-0.479,4.328l-2.161,2.403l-1.2,1.2l-0.239,0.24h-0.24
	l-2.159,0.725l-0.96,1.199l-2.161,0.48l-1.681,1.441l0.241,0.723l-2.161,1.686l-3.841,1.441l0.239,2.404l2.642,2.164l1.2,0.238
	l0.479,0.961l2.4,0.965L102.26,92.333z"/>
</svg>
