<?xml version="1.0" encoding="utf-8"?>
<!-- Generator: Adobe Illustrator 16.0.0, SVG Export Plug-In . SVG Version: 6.00 Build 0)  -->
<!DOCTYPE svg PUBLIC "-//W3C//DTD SVG 1.1//EN" "http://www.w3.org/Graphics/SVG/1.1/DTD/svg11.dtd">
<svg version="1.1" id="xx" xmlns="http://www.w3.org/2000/svg" xmlns:xlink="http://www.w3.org/1999/xlink" x="0px" y="0px"
	 width="722px" height="334px" viewBox="-177 -82 722 334" enable-background="new -177 -82 722 334" xml:space="preserve">
<g>
	<path fill="#0068A5" stroke="#37A8DB" d="M-147.816,76.319l-11.744,2.814l-2.349-1.876l5.168-6.098l3.758-12.659l-0.468-11.724
		l-7.051-21.102l-6.571-14.068l-7.987-21.572L-176-20.752l4.229-7.502l10.332-8.442l23.484-12.19l15.029-5.627l11.742-2.813
		l10.334-1.408l14.088,0.468l11.272,1.407l15.5,5.162l15.498,8.44l7.517,15.003l7.982,22.039l8.456,14.072l0.937,2.342l-0.937,1.41
		l-10.335,4.221l-28.646,17.818l-12.68,3.752l-23.954,2.343l-12.678,6.097l-12.211,7.971l-16.434,15.48L-147.816,76.319z"/>
	<text transform="matrix(1 0 0 1 -133.2407 2.1533)" font-family="'MicrosoftYaHei'" font-size="10">八卦洲街道</text>
</g>
<g>
	<path fill="#0889D1" stroke="#37A8DB" d="M-4.574,59.908l-3.756,4.689l-0.468,4.223v0.466l2.817,11.255l-1.413,2.346l-2.345,2.813
		l-5.638,2.34l-1.409,4.225l-3.292,4.217l1.878,22.978v0.468v0.463l-1.878,1.41l-8.451-2.341l-5.638-3.29l-8.923-10.778
		l-1.411,0.933l-2.815-1.406l-0.937,0.47l-1.878-5.161l-0.471-0.47l-16.434-6.56l-3.289-1.874l-0.468,0.466l-3.29,0.935
		l-0.937,3.286l-4.694,4.217l0.937,6.567l-7.514,2.813l-18.313,0.468l-6.576,0.933l-7.983,1.408l3.288-10.782l-4.694-4.221
		l-2.354-4.219l-5.636,2.343l-9.86-0.937l-4.696,1.881l-8.925,7.031l-5.631-1.408l-1.878-3.283l12.678-5.629l18.79-13.601
		l25.36-16.881l2.347,0.464l7.046-3.283l31.001-8.909l7.046-3.285l26.298-15.946l15.03-7.03l14.559-3.753l15.498,0.466
		l-4.227,19.223l-5.17,11.726l-3.756,4.221L-4.574,59.908z"/>
	<text transform="matrix(1 0 0 1 -84.3896 78.1968)" font-family="'MicrosoftYaHei'" font-size="10">燕子矶街道</text>
</g>
<g>
	<path fill="#28ADF7" stroke="#37A8DB" d="M-50.13,100.239l1.878,5.159l0.937-0.472l2.815,1.41l1.411-0.933l8.923,10.78l5.638,3.286
		l-0.47,4.686l-0.465,1.408l0.938,0.47l0.468,0.935l7.517,3.756l4.693,1.877l1.409,0.464l-4.225,1.878l-2.817-1.412L-24.297,134
		l-13.619,5.16h-17.846l-5.64,0.935l-2.345-0.935l3.756-1.406l-0.937-0.934l0.467-1.414l-1.409-0.463l-4.229,5.157l-1.877-8.439
		l3.756-1.876l-0.47-1.875l-4.691-0.468v-1.41h-2.817v1.41l-15.031,3.282l-9.864-0.468l-1.409,12.196l-13.622-1.878l-4.226-2.811
		l-9.393,4.688l-0.468-1.878l6.571-4.221l-4.692-2.814v-6.56l-2.82,0.47v-2.813l2.35-4.223l1.878,0.471v-5.632l1.409-1.408h1.412
		l0.937-1.41l7.985-1.404l6.576-0.936l18.311-0.467l7.518-2.811l-0.938-6.564l4.696-4.221l0.937-3.287l3.757-1.406l3.291,1.873
		l16.432,6.564L-50.13,100.239z"/>
	<text transform="matrix(1 0 0 1 -97.8008 121.7979)" font-family="'MicrosoftYaHei'" font-size="10">迈皋桥街道</text>
</g>
<g>
	<path fill="#70CBFF" stroke="#37A8DB" d="M24.074,99.3l1.881,0.939l6.569-4.221l8.927-0.938l1.878,1.41l-0.939,4.215l3.291-0.935
		l3.288,0.472l1.878,1.409l-16.909,9.379l-23.482,26.261l-2.346-3.286l-6.106-2.345l-7.517,2.345l-4.225-0.933l-1.413,0.933
		l-4.694-1.408l-1.877-0.469l-2.813-1.41l-7.515-3.754l-0.47-0.465l-0.937-0.936l0.467-1.406l0.468-4.688l8.453,2.341l1.879-1.412
		v-0.462v-0.467l-1.879-22.978l3.291-4.215l1.411-4.225l5.637-2.343l2.346-2.812l1.412-2.347l-2.817-11.251v-0.468l0.469-3.752
		l3.758-5.16l7.513-3.285l3.756-3.756l5.17-12.188l4.227-19.229l28.175,4.69l15.499,0.934l-0.466,1.878l-5.64,1.412l-1.41,1.871
		l-0.468,1.411l2.346,4.689l-0.467,1.873l-4.226,4.688l-3.289,0.938l-5.636,5.629l-0.937,8.441l-4.229,4.686l-2.347,2.341
		l-0.468,0.467h-0.47l-4.225,1.414l-1.877,2.337l-4.228,0.936l-3.29,2.811l0.472,1.41l-4.229,3.288l-7.515,2.811l0.468,4.69
		l5.169,4.219l2.348,0.466l0.938,1.873l4.695,1.882L24.074,99.3z"/>
	<text transform="matrix(1 0 0 1 -14.4385 114)" font-family="'MicrosoftYaHei'" font-size="10">尧化街道</text>
</g>
<g>
	<path fill="#0889D1" stroke="#37A8DB" d="M57.888,169.17l-1.878,15.946l0.467,0.937l3.291,1.408l1.876,4.219v3.285l-2.815,3.28
		h-2.349l-2.816,5.635v12.19l-4.694,6.564l3.288,3.285h2.348l-3.757,5.159l-14.087,13.6l-12.678,3.753l-1.876,1.404l-2.35-0.933
		l-3.756,1.873l-0.939-2.811l3.761-0.933l0.464-3.755l1.879-0.466V241.4h-3.288l-2.348-3.286l-2.815-1.408l-2.349-0.935
		l-2.347,1.408l-2.819-0.468l-1.877-1.873l-3.757-0.466l-2.348-1.41l4.227-3.286l0.938-2.343l-3.287-0.933l0.937-1.41l-0.469-0.468
		h-5.636l-0.466-1.412l-0.938-4.219l2.813-1.87l-1.875-3.289l2.343-0.934l2.35,3.282l4.694-2.345l2.346-3.282l-1.409-2.813
		l0.468-0.935l2.347,1.875l2.817-7.97l-2.817-1.412l-2.815-4.687l0.468-1.879l-1.411-0.466l1.411-0.937l-0.468-1.874l1.878-0.466
		l-0.471-1.877l-0.937-0.936l-2.817,2.346l-0.466-1.88l-1.412-0.466v-1.879l-3.289-2.811l-6.572-2.813l1.878-1.874l-1.409-0.933
		v-1.88l1.409-0.937l5.168,3.757l6.573-1.414l1.41-0.933l-1.41-3.756l2.349-0.465l6.572,3.751h2.348l1.409-1.874v-3.751l1.41-1.408
		l21.604-9.85L57.888,169.17z"/>
	<text transform="matrix(1 0 0 1 11.4375 201)" font-family="'MicrosoftYaHei'" font-size="10">马群街道</text>
</g>
<g>
	<path fill="#A9DFFF" stroke="#37A8DB" d="M133.503,78.197l1.881,4.689l7.515,3.281l-3.289,5.161l-0.47,6.101l3.758,7.498
		l0.469,15.944l-5.174,5.161l-5.163,1.414l-1.411,4.683l-4.229,0.471l-0.938,3.282h-6.105l-4.694,1.41l-3.29-1.41l-4.692,3.749
		l-1.409-0.933l-4.229,0.466l-1.41,4.686l-1.88,1.412l-3.287,12.188l-1.878,1.414h-3.287l-1.413,1.41l1.878,2.809l-1.878,5.627
		l-1.41,1.876l-5.635,0.466l-1.409,3.287l-2.348,1.878l-1.875-1.412l-0.471,2.345l-5.167-2.811l-2.819-0.935l-1.878-2.346
		l-1.409,0.472l-3.289-2.347H57.88l-18.786-12.19l2.817-1.874l-4.228-6.565l-7.514-3.284l-5.17,0.468l-9.863-7.037l-3.286-0.466
		l-1.413-0.938l23.482-26.257l16.909-9.381l42.738-18.761l7.045-1.409l13.154,0.469L133.503,78.197z"/>
	<text transform="matrix(1 0 0 1 59.7749 126.8652)" font-family="'MicrosoftYaHei'" font-size="10">仙林街道</text>
</g>
<g>
	<path fill="#E3F2FB" stroke="#37A8DB" d="M254.677,22.859l10.33,6.099h-2.351h-1.406l-1.41-0.471l-4.696,1.414l-10.803,9.848
		l-8.923,11.254l0.938,1.41l1.409,2.807l-4.691,5.631l-2.818,5.628l-7.518,5.16l-20.663-6.56l-7.052-0.938l-26.296,7.029
		L133.5,78.209l-19.726,3.752l-13.155-0.469l-7.044,1.409l-42.738,18.761l-1.878-1.412l-3.289-0.469l-3.29,0.937l0.938-4.217
		l-1.88-1.41l-8.925,0.937l-6.573,4.216l-1.878-0.934l-3.291-3.751l-4.694-1.878l-0.938-1.874l-2.347-0.469l-5.167-4.221
		l-0.47-4.688l7.515-2.811l4.229-3.288l-0.473-1.409l3.292-2.812l4.226-0.937l1.878-2.337l4.224-1.413h0.47l0.47-0.467l2.348-2.34
		l4.226-4.688l0.938-8.441l5.634-5.628l3.289-0.938l4.226-4.688l0.469-1.873l-2.348-4.688l0.47-1.41l1.408-1.873l5.637-1.41
		l0.469-1.879l25.36,3.758l4.698,0.934l0.47,1.41l11.741-1.877l10.328,0.936l27.711,0.469l7.049-0.469l5.635-1.878l5.639,2.347
		l8.921-1.88l7.986,0.472l18.317-3.755l18.315-6.097l14.086-8.437l5.636,3.749l9.863,3.755l6.571,1.408L254.677,22.859z"/>
	<text transform="matrix(1 0 0 1 96.7183 59.9946)" font-family="'MicrosoftYaHei'" font-size="10">栖霞街道</text>
</g>
<g>
	<path fill="#70CBFF" stroke="#37A8DB" d="M214.286,86.636l-1.884,5.631l-3.757,0.936l-1.408-3.282l-1.416-0.47l-5.632,4.687
		l-5.171,1.882l-0.936,2.805l0.936,5.629l-0.936,4.221v7.502l9.859-0.935l9.863,2.811l27.237-3.282l2.351,1.402l2.814,4.221
		l-1.885,3.292v2.807l5.641,1.879l5.169,7.031l-7.513,2.812l-2.351,1.875l-2.816,6.099l-3.289,1.406l-2.814-0.468v-0.935
		l-2.818,1.408l-6.104,0.937l-10.802-4.221l-2.813,1.406l-4.229-0.466l-9.863,0.936l-3.757-0.936l-7.983,3.752v2.347l-2.349,0.464
		l1.879,2.345l0.47,8.912v0.464l-3.291-0.464l-0.468,5.158l2.813-0.934l2.353,1.404l2.816-1.873l5.167-0.941l0.466,2.814
		l-14.557,7.503l-1.88,4.692l-3.758,0.938l-3.288,4.681l0.469,1.41l-1.882,1.877l-3.289-0.467l-4.225,3.283l-3.756-0.935
		l-1.412-1.408l2.815-9.38l-1.409-1.41l-5.639-1.406l-17.378,0.933l0.936-8.907l3.293-8.439l1.407-0.935l1.412,4.219l1.88-2.341
		l-0.467-1.408l1.878-0.47l-0.469-0.935l-5.165-1.874l-1.415-1.878l2.815-0.935l4.229-5.161l4.691-1.406v-0.942l0.939-0.934
		l-1.88-3.287l3.29-2.34l-0.938-2.814v-13.599l-6.574-0.937l-3.758-2.813h-1.407l-0.469-15.944l-3.757-7.501l0.466-6.1l3.292-5.159
		l-7.514-3.285l-1.882-4.688l35.228-7.035l26.295-7.03l7.049,0.935l20.666,6.56l-6.102,6.566l0.469,5.631L214.286,86.636z"/>
	<text transform="matrix(1 0 0 1 171.3857 134.291)" font-family="'MicrosoftYaHei'" font-size="10">西岗街道</text>
</g>
<g>
	<path fill="#0889D1" stroke="#37A8DB" d="M520.026-19.814l-5.163,14.538l-3.759,1.875l-13.156,2.345L484.33,5.04l-6.571,0.469
		l-3.761-0.937l-6.103-5.158l-3.291-0.47l-29.587,5.628h-11.742l-17.377-6.097l-8.925-4.22l-8.454-1.406l-15.03,4.689l-8.924,6.566
		h-4.696L314.781,15.83h-14.553l-1.888,2.81l5.173,0.465l0.47,1.412l-2.349,4.686l1.879,5.63l-2.345,11.725h-2.82l-5.161-1.878
		h-12.683l-4.694-1.409l-4.694,1.409l-6.1-0.467l-5.639,3.287l-10.802,0.935l-10.8,10.785l-1.41-2.811l-0.938-1.41l8.924-11.254
		l10.802-9.844l4.694-1.414l1.412,0.467h1.41h2.347l-10.33-6.096l-6.574-0.935l-6.573-1.405l-9.862-3.756l-5.637-3.749l15.499-9.846
		l32.879-24.387l10.802-11.727l7.987-14.536l20.191-21.101l9.394-4.221l34.282-7.035l15.034-0.936l8.924,0.468l53.541,7.975
		l21.604,6.096l43.674,15.004L544-35.287L520.026-19.814z"/>
	<text transform="matrix(1 0 0 1 361.0771 -30.6665)" font-family="'MicrosoftYaHei'" font-size="10">龙潭街道</text>
</g>
</svg>
