<?xml version="1.0" encoding="utf-8"?>
<!-- Generator: Adobe Illustrator 16.0.0, SVG Export Plug-In . SVG Version: 6.00 Build 0)  -->
<!DOCTYPE svg PUBLIC "-//W3C//DTD SVG 1.1//EN" "http://www.w3.org/Graphics/SVG/1.1/DTD/svg11.dtd">
<svg version="1.1" id="图层_1" xmlns="http://www.w3.org/2000/svg" xmlns:xlink="http://www.w3.org/1999/xlink" x="0px" y="0px"
	 width="368px" height="170px" viewBox="265.631 177.12 368 170" enable-background="new 265.631 177.12 368 170"
	 xml:space="preserve">
<g>
	
		<path fill="#C4F5EB" stroke="#6E6E6E" stroke-width="0.48" stroke-linecap="round" stroke-linejoin="round" stroke-miterlimit="10" d="
		M621.383,208.378l-2.64,7.454l-1.921,0.962l-6.723,1.202l-6.961,3.126l-3.36,0.24l-1.921-0.48l-3.12-2.645l-1.68-0.241
		l-15.124,2.886h-6.001l-8.882-3.126l-4.561-2.164l-4.321-0.721l-7.682,2.404l-4.561,3.368h-2.4l-23.044,6.011h-7.441l-0.962,1.442
		l2.643,0.239l0.239,0.723l-1.201,2.404l0.962,2.885l-1.199,6.013h-1.442l-2.639-0.964h-6.482l-2.398-0.721l-2.401,0.721l-3.12-0.24
		l-2.881,1.686l-5.521,0.479l-5.522,5.53l-0.719-1.441l-0.479-0.722l4.56-5.772l5.521-5.047l2.401-0.724l0.721,0.24h0.72h1.2
		l-5.279-3.126l-3.362-0.481l-3.36-0.72l-5.04-1.925l-2.881-1.923l7.921-5.048l16.805-12.505l5.521-6.012l4.082-7.454l10.321-10.82
		l4.8-2.164l17.524-3.607l7.684-0.481l4.56,0.24l27.365,4.089l11.043,3.126l22.323,7.694l22.566,8.176L621.383,208.378z"/>
	
		<path fill="#C4F5EB" stroke="#6E6E6E" stroke-width="0.48" stroke-linecap="round" stroke-linejoin="round" stroke-miterlimit="10" d="
		M485.758,230.259l5.279,3.127h-1.201h-0.719l-0.721-0.241l-2.401,0.724l-5.521,5.049l-4.561,5.771l0.48,0.723l0.719,1.44
		l-2.397,2.886l-1.442,2.886l-3.841,2.646l-10.562-3.365l-3.602-0.481l-13.441,3.605l-18.006,3.61l-10.082,1.924l-6.722-0.242
		l-3.601,0.723l-21.844,9.619l-0.96-0.723l-1.68-0.241l-1.682,0.481l0.48-2.163l-0.96-0.722l-4.562,0.48l-3.359,2.163l-0.96-0.48
		l-1.682-1.923l-2.399-0.963l-0.48-0.961l-1.2-0.24l-2.641-2.164l-0.24-2.404l3.841-1.442l2.161-1.685l-0.241-0.722l1.681-1.442
		l2.161-0.481l0.96-1.199l2.159-0.725h0.24l0.24-0.239l1.2-1.2l2.161-2.404l0.479-4.328l2.88-2.886l1.681-0.481l2.16-2.405
		l0.24-0.96l-1.2-2.404l0.24-0.723l0.72-0.96l2.881-0.723l0.24-0.963l12.962,1.926l2.401,0.479l0.24,0.722l6.001-0.962l5.28,0.48
		l14.164,0.241l3.602-0.241l2.88-0.962l2.882,1.203l4.56-0.963l4.082,0.241l9.361-1.925l9.361-3.126l7.201-4.327l2.88,1.923
		l5.041,1.925l3.36,0.721L485.758,230.259z"/>
	
		<path fill="#C4F5EB" stroke="#6E6E6E" stroke-width="0.48" stroke-linecap="round" stroke-linejoin="round" stroke-miterlimit="10" d="
		M353.25,249.256l-1.92,2.404l-0.239,2.165v0.24l1.44,5.77l-0.721,1.203l-1.2,1.442l-2.881,1.201l-0.72,2.165l-1.682,2.163
		l0.96,11.782v0.24v0.238l-0.96,0.723l-4.32-1.201l-2.882-1.685l-4.561-5.529l-0.72,0.479l-1.44-0.72l-0.479,0.24l-0.96-2.646
		l-0.24-0.24l-8.401-3.366l-1.68-0.96l-0.24,0.239l-1.68,0.48l-0.48,1.685l-2.399,2.162l0.479,3.367l-3.841,1.442l-9.36,0.24
		l-3.361,0.479l-4.081,0.722l1.68-5.53l-2.399-2.164l-1.201-2.165l-2.881,1.203l-5.04-0.481l-2.401,0.964l-4.561,3.605l-2.879-0.722
		l-0.96-1.683l6.48-2.887l9.604-6.973l12.962-8.656l1.2,0.239l3.601-1.683l15.844-4.568l3.601-1.684l13.442-8.176l7.682-3.605
		l7.441-1.925l7.921,0.239l-2.16,9.858l-2.641,6.013l-1.92,2.164L353.25,249.256z"/>
	
		<path fill="#C4F5EB" stroke="#6E6E6E" stroke-width="0.48" stroke-linecap="round" stroke-linejoin="round" stroke-miterlimit="10" d="
		M385.176,305.281l-0.96,8.176l0.239,0.48l1.682,0.722l0.959,2.163v1.686l-1.44,1.682h-1.201l-1.439,2.887v6.251l-2.4,3.365
		l1.68,1.686h1.2l-1.92,2.645l-7.201,6.972l-6.48,1.925l-0.96,0.72l-1.201-0.479l-1.92,0.961l-0.48-1.441l1.922-0.48l0.238-1.924
		l0.96-0.24v-0.723h-1.68l-1.2-1.684l-1.439-0.722l-1.201-0.479l-1.2,0.721l-1.441-0.24l-0.96-0.961l-1.92-0.239l-1.2-0.723
		l2.16-1.684l0.481-1.201l-1.68-0.479l0.479-0.724l-0.24-0.239h-2.88l-0.239-0.724l-0.48-2.163l1.439-0.96l-0.959-1.685l1.198-0.479
		l1.201,1.683l2.4-1.202l1.199-1.684l-0.72-1.441l0.24-0.481l1.2,0.962l1.44-4.087l-1.44-0.722l-1.44-2.405l0.24-0.963l-0.721-0.239
		l0.721-0.48l-0.24-0.961l0.96-0.24l-0.241-0.962l-0.479-0.48l-1.441,1.202l-0.238-0.962l-0.722-0.24v-0.963l-1.68-1.441
		l-3.36-1.443l0.96-0.96l-0.72-0.48v-0.963l0.72-0.481l2.642,1.925l3.359-0.723l0.721-0.48l-0.721-1.924l1.201-0.239l3.36,1.923h1.2
		l0.72-0.961v-1.924l0.72-0.722l11.042-5.05L385.176,305.281z"/>
	
		<path fill="#C4F5EB" stroke="#6E6E6E" stroke-width="0.48" stroke-linecap="round" stroke-linejoin="round" stroke-miterlimit="10" d="
		M329.965,269.935l0.96,2.646l0.479-0.241l1.44,0.722l0.72-0.479l4.561,5.529l2.882,1.684l-0.24,2.403l-0.239,0.722l0.479,0.241
		l0.239,0.48l3.842,1.924l2.399,0.963l0.72,0.238l-2.159,0.963l-1.441-0.723l-1.44,0.24l-6.961,2.646h-9.122l-2.882,0.479
		l-1.199-0.479l1.92-0.721l-0.48-0.479l0.24-0.723l-0.72-0.24l-2.161,2.645l-0.96-4.327l1.92-0.962l-0.24-0.961l-2.399-0.241v-0.722
		h-1.44v0.722l-7.682,1.683l-5.042-0.24l-0.72,6.253l-6.962-0.962l-2.16-1.442l-4.801,2.404l-0.239-0.962l3.359-2.164l-2.399-1.443
		v-3.365l-1.441,0.241v-1.443l1.201-2.165l0.96,0.242v-2.887l0.72-0.722h0.721l0.479-0.723l4.081-0.72l3.361-0.48l9.36-0.24
		l3.842-1.443l-0.48-3.365l2.4-2.164l0.479-1.685l1.92-0.72l1.681,0.96l8.4,3.366L329.965,269.935z"/>
	
		<path fill="#C4F5EB" stroke="#6E6E6E" stroke-width="0.48" stroke-linecap="round" stroke-linejoin="round" stroke-miterlimit="10" d="
		M280.036,257.671l-6.002,1.443l-1.201-0.962l2.641-3.127l1.92-6.491l-0.239-6.011l-3.602-10.82l-3.36-7.214l-4.082-11.061
		l-0.48-5.531l2.161-3.847l5.281-4.329l12.003-6.251l7.682-2.885l6.001-1.442l5.282-0.722l7.201,0.24l5.761,0.722l7.922,2.646
		l7.921,4.328l3.841,7.694l4.081,11.301l4.322,7.214l0.479,1.202l-0.479,0.722l-5.282,2.164l-14.642,9.137l-6.481,1.924
		l-12.243,1.201l-6.48,3.127l-6.241,4.087l-8.401,7.937L280.036,257.671z"/>
	
		<path fill="#C4F5EB" stroke="#6E6E6E" stroke-width="0.48" stroke-linecap="round" stroke-linejoin="round" stroke-miterlimit="10" d="
		M423.823,258.634l0.962,2.404l3.841,1.683l-1.681,2.646l-0.24,3.127l1.921,3.846l0.24,8.176l-2.643,2.645l-2.64,0.724l-0.721,2.402
		l-2.161,0.241l-0.48,1.683h-3.12l-2.4,0.723l-1.681-0.723l-2.399,1.923l-0.72-0.479l-2.161,0.24l-0.72,2.403l-0.961,0.723
		l-1.68,6.251l-0.96,0.723h-1.68l-0.721,0.722l0.96,1.441l-0.96,2.887l-0.721,0.961l-2.88,0.239l-0.72,1.685l-1.2,0.962
		l-0.959-0.723l-0.24,1.203l-2.641-1.442l-1.441-0.48l-0.96-1.202l-0.72,0.241l-1.681-1.203h-1.681l-9.602-6.252l1.441-0.96
		l-2.161-3.367l-3.841-1.684l-2.642,0.241l-5.041-3.609l-1.68-0.239l-0.721-0.48l12.002-13.466l8.642-4.809l21.844-9.619
		l3.601-0.723l6.722,0.242L423.823,258.634z"/>
	
		<path fill="#C4F5EB" stroke="#6E6E6E" stroke-width="0.48" stroke-linecap="round" stroke-linejoin="round" stroke-miterlimit="10" d="
		M465.112,262.961l-0.962,2.887l-1.92,0.479l-0.719-1.683l-0.722-0.24l-2.88,2.403l-2.642,0.964l-0.479,1.44l0.479,2.886
		l-0.479,2.164v3.847l5.04-0.479l5.04,1.441l13.923-1.682l1.2,0.72l1.44,2.163l-0.962,1.687v1.44l2.882,0.963l2.64,3.607
		l-3.839,1.44l-1.202,0.962l-1.438,3.127l-1.682,0.721l-1.438-0.239v-0.481l-1.441,0.721l-3.119,0.481l-5.522-2.164l-1.438,0.722
		l-2.161-0.24l-5.041,0.48l-1.92-0.48l-4.081,1.924v1.202l-1.2,0.239l0.96,1.203l0.24,4.569v0.24l-1.682-0.24l-0.239,2.646
		l1.438-0.481l1.202,0.722l1.439-0.962l2.642-0.482l0.238,1.444l-7.44,3.847l-0.961,2.405l-1.921,0.481l-1.68,2.402l0.239,0.721
		l-0.962,0.963l-1.68-0.24l-2.159,1.683l-1.92-0.479l-0.722-0.722l1.439-4.809l-0.719-0.723l-2.882-0.722l-8.882,0.479l0.479-4.567
		l1.682-4.328l0.719-0.48l0.721,2.163l0.961-1.2l-0.239-0.723l0.96-0.24l-0.24-0.48l-2.64-0.961l-0.722-0.962l1.439-0.48
		l2.161-2.646l2.399-0.722v-0.481l0.48-0.479l-0.961-1.685l1.681-1.2l-0.479-1.443v-6.973l-3.36-0.479l-1.921-1.443h-0.719
		l-0.24-8.176l-1.921-3.846l0.239-3.127l1.682-2.646l-3.841-1.683l-0.962-2.404l18.006-3.608l13.441-3.605l3.601,0.479l10.563,3.365
		l-3.12,3.367l0.24,2.886L465.112,262.961z"/>
	
		<path fill="#C4F5EB" stroke="#6E6E6E" stroke-width="0.48" stroke-linecap="round" stroke-linejoin="round" stroke-miterlimit="10" d="
		M367.893,269.454l0.96,0.481l3.359-2.164l4.562-0.48l0.96,0.722l-0.48,2.163l1.682-0.48l1.68,0.241l0.96,0.722l-8.642,4.809
		l-12.002,13.466l-1.2-1.685l-3.121-1.202l-3.841,1.202l-2.16-0.48l-0.721,0.48l-2.4-0.721l-0.96-0.241l-1.438-0.722l-3.841-1.924
		l-0.24-0.24l-0.479-0.48l0.239-0.721l0.24-2.404l4.32,1.201l0.96-0.723v-0.238v-0.24l-0.96-11.782l1.682-2.163l0.72-2.165
		l2.881-1.201l1.2-1.442l0.721-1.203l-1.44-5.77v-0.24l0.239-1.924l1.921-2.646l3.84-1.684l1.92-1.925l2.641-6.251l2.16-9.859
		l14.402,2.405l7.922,0.479l-0.24,0.963l-2.881,0.723l-0.721,0.96l-0.239,0.723l1.199,2.404l-0.239,0.96l-2.161,2.405l-1.68,0.481
		l-2.881,2.886l-0.479,4.328l-2.161,2.403l-1.2,1.2l-0.239,0.24h-0.24l-2.16,0.725l-0.96,1.199l-2.161,0.481l-1.68,1.441
		l0.241,0.723l-2.161,1.685l-3.841,1.442l0.239,2.404l2.642,2.164l1.2,0.239l0.479,0.961l2.4,0.964L367.893,269.454z"/>
</g>
</svg>
