<?xml version="1.0" encoding="utf-8" standalone="no"?>
<!-- Creator: Esri ArcMap 10.2.0.3348 -->
<!DOCTYPE svg PUBLIC "-//W3C//DTD SVG 1.1//EN"  "http://www.w3.org/Graphics/SVG/1.1/DTD/svg11.dtd">
<svg width="924.00945pt" height="638.98583pt" viewBox="0 0 924.00945 638.98583" enable-background="new 0 0 924.00945 638.98583"
	version="1.1" xmlns="http://www.w3.org/2000/svg" xmlns:xlink="http://www.w3.org/1999/xlink" >
	<g id="__">
		<g id="_1">
			<clipPath id="SVG_CP_1">
				<path d="M0,638.98583L0,0L924.00945,0L924.00945,638.98583L0,638.98583z"/>
			</clipPath>
			<path clip-path="url(#SVG_CP_1)" fill="#CDE9F7" fill-rule="evenodd" stroke="#6E6E6E" stroke-width="0.47999" stroke-miterlimit="10" stroke-linecap="round" stroke-linejoin="round" d="
				M490.54756,552.6027L487.90763,552.84275L487.66764,551.64249L487.66764,549.0019L485.74769,544.20084L480.70781,545.4011L477.3479,543.96078
				L477.82789,539.87988L479.50784,540.11993L481.90778,538.91966L482.14778,537.95945L479.50784,533.63849L476.14793,529.79764
				L471.82804,528.59737L468.46812,527.63716L470.62807,523.07614L473.268,521.15572L474.94796,516.83476L475.90794,515.63449L474.70797,515.15439
				L473.508,514.43423L472.06803,515.87455L472.06803,516.35465L469.90809,517.79497L468.94811,517.07481L470.38808,512.5138L470.38808,511.31353
				L469.18811,508.913L465.3482,507.23263L463.18826,506.99257L462.94826,505.79231L462.46828,504.59204L459.58835,502.91167L458.86837,499.31087
				L460.06834,494.26975L458.86837,492.34932L458.38838,492.10927L460.78832,492.10927L463.18826,492.10927L465.10821,491.62916
				L466.54817,491.38911L468.94811,490.909L470.86806,490.4289L472.30803,489.94879L473.98798,490.18884L475.42795,490.18884L477.3479,488.50847
				L478.30788,487.06815L479.26785,485.86788L480.70781,484.90767L481.66779,486.10794L481.90778,487.78831L482.14778,489.22863
				L482.62777,491.14906L483.58774,492.58938L485.0277,494.26975L486.70766,495.22996L488.14763,495.95012L492.9475,495.47002L493.90748,493.78964
				L494.62746,492.10927L494.62746,490.18884L494.86746,488.74852L495.10745,491.14906L495.34744,492.82943L496.30742,494.0297L
				497.74738,495.22996L498.70736,496.67028L499.42734,498.59071L501.58728,498.59071L502.78725,496.67028L504.22722,495.47002L
				505.66718,494.5098L507.34714,495.22996L508.7871,496.43023L509.74708,497.63049L512.14702,498.83076L510.46706,500.75119L510.22707,502.43156
				L509.74708,506.03236L509.26709,508.19284L508.7871,510.35332L508.54711,512.03369L507.34714,512.99391L506.62716,514.43423L
				507.82713,515.63449L506.86715,517.31487L506.62716,518.99524L505.90718,520.43556L504.9472,522.11593L503.50724,522.59604L502.54726,521.15572
				L501.82728,519.95545L501.34729,518.27508L499.66733,518.27508L498.70736,516.59471L496.54741,516.59471L495.58744,517.79497
				L495.34744,519.95545L494.86746,521.87588L494.62746,524.51646L494.86746,526.67694L494.62746,528.35732L492.9475,529.31753L
				492.9475,530.9979L494.14747,532.43822L495.34744,534.1186L495.82743,536.03902L495.82743,537.47934L495.10745,539.87988L494.62746,541.3202
				L494.14747,542.76052L493.66749,544.68094L493.42749,546.36132L492.22752,547.56158L490.78756,548.52179L490.30757,550.44222
				L490.54756,552.6027z"/>
			<path clip-path="url(#SVG_CP_1)" fill="#CDE9F7" fill-rule="evenodd" stroke="#6E6E6E" stroke-width="0.47999" stroke-miterlimit="10" stroke-linecap="round" stroke-linejoin="round" d="
				M549.34607,383.84523L550.54604,385.0455L550.30605,386.48582L548.62609,387.44603L547.18613,388.6463L546.46615,390.08662L546.22615,391.52694
				L546.22615,393.44736L547.18613,395.12773L546.70614,396.80811L545.26618,397.76832L545.02618,399.20864L545.74617,401.60917
				L545.98616,403.28955L545.98616,405.69008L545.50617,407.61051L545.02618,409.29088L545.02618,410.97125L545.02618,412.89168
				L545.74617,415.05216L546.94613,416.49248L548.3861,417.21264L549.82606,416.97259L551.50602,415.77232L552.226,414.09195L552.94598,412.17152
				L553.90596,410.49115L555.34592,409.77099L558.94583,410.01104L561.10578,411.69141L562.06575,413.13173L562.30575,415.53227
				L562.06575,417.21264L560.62579,417.9328L559.90581,419.85323L560.1458,421.5336L559.90581,423.21397L559.66581,424.65429L559.42582,426.09461
				L559.18582,427.77498L560.38579,429.45536L563.50572,429.93546L565.66566,430.65562L567.10562,430.89568L568.54559,430.17552
				L569.26557,428.7352L569.50556,427.05482L569.74556,425.6145L570.22554,423.93413L571.42551,422.97392L572.86548,422.0137L574.54544,421.05349
				L577.18537,420.33333L577.90535,422.97392L579.58531,423.21397L580.0653,425.1344L579.34531,427.05482L579.10532,428.97525L579.34531,430.41557
				L581.02527,430.41557L582.70523,429.2153L583.42521,427.77498L586.54513,425.6145L587.26511,427.77498L587.50511,428.49514L588.22509,431.61584
				L589.90505,434.49648L588.94507,437.37712L587.50511,438.09728L584.86517,440.49781L582.70523,441.93813L581.26526,441.69808
				L579.34531,439.05749L575.7454,439.77765L572.38549,443.6185L570.22554,446.73919L570.22554,449.61983L571.9055,452.26042L574.06545,453.46069
				L574.30544,456.34133L572.62548,460.66229L570.70553,463.78298L568.54559,465.70341L567.58561,466.66362L564.94568,467.62383
				L562.78573,471.22463L561.10578,473.86522L559.42582,475.30554L559.18582,475.54559L557.50587,476.74586L556.78589,478.66628
				L555.10593,480.82676L554.38595,482.50714L553.18598,483.2273L550.30605,483.7074L549.58607,484.66762L549.10608,485.14772L547.42612,485.86788
				L545.50617,484.18751L544.78619,483.7074L544.3062,485.86788L542.86624,489.46868L542.86624,490.4289L542.38625,492.10927L542.62624,494.74986
				L542.86624,497.63049L542.62624,501.47135L541.90626,503.63183L541.66627,510.83343L541.66627,511.07348L544.5462,517.55492L
				544.78619,519.95545L545.50617,523.7963L546.70614,526.67694L546.70614,528.11726L546.70614,528.59737L548.1461,530.03769L548.86609,531.71806
				L548.1461,531.95812L547.42612,532.19817L545.50617,531.47801L545.02618,533.39844L546.22615,535.79897L545.74617,536.51913L
				545.98616,538.91966L541.90626,541.56025L536.6264,543.00057L535.66642,542.76052L532.5465,545.4011L529.42658,547.08147L527.50663,545.88121
				L527.50663,543.24062L528.4666,540.11993L526.54665,538.43956L524.38671,538.67961L524.14671,539.15972L521.26679,542.04036L
				518.86685,542.04036L516.7069,543.00057L514.06697,544.68094L511.18704,546.12126L508.7871,548.04169L507.10714,549.48201L505.66718,550.20217
				L503.74723,551.88254L502.30727,553.80297L502.06727,554.04302L500.38732,554.28307L498.22737,552.12259L497.74738,552.12259
				L495.10745,551.40243L492.70751,552.36265L490.54756,552.6027L490.30757,550.44222L490.78756,548.52179L492.22752,547.56158L
				493.42749,546.36132L493.66749,544.68094L494.14747,542.76052L494.62746,541.3202L495.10745,539.87988L495.82743,537.47934L495.82743,536.03902
				L495.34744,534.1186L494.14747,532.43822L492.9475,530.9979L492.9475,529.31753L494.62746,528.35732L494.86746,526.67694L494.62746,524.51646
				L494.86746,521.87588L495.34744,519.95545L495.58744,517.79497L496.54741,516.59471L498.70736,516.59471L499.66733,518.27508
				L501.34729,518.27508L501.82728,519.95545L502.54726,521.15572L503.50724,522.59604L504.9472,522.11593L505.90718,520.43556L
				506.62716,518.99524L506.86715,517.31487L507.82713,515.63449L506.62716,514.43423L507.34714,512.99391L508.54711,512.03369L
				508.7871,510.35332L509.26709,508.19284L509.74708,506.03236L510.22707,502.43156L510.46706,500.75119L512.14702,498.83076L509.74708,497.63049
				L508.7871,496.43023L507.34714,495.22996L505.66718,494.5098L504.22722,495.47002L502.78725,496.67028L501.58728,498.59071L499.42734,498.59071
				L498.70736,496.67028L497.74738,495.22996L496.30742,494.0297L495.34744,492.82943L495.10745,491.14906L494.86746,488.74852L
				494.62746,490.18884L494.62746,492.10927L493.90748,493.78964L492.9475,495.47002L488.14763,495.95012L486.70766,495.22996L485.0277,494.26975
				L483.58774,492.58938L482.62777,491.14906L482.14778,489.22863L481.90778,487.78831L481.66779,486.10794L480.70781,484.90767
				L479.26785,485.86788L478.30788,487.06815L477.3479,488.50847L475.42795,490.18884L473.98798,490.18884L472.30803,489.94879L
				470.86806,490.4289L468.94811,490.909L466.54817,491.38911L465.10821,491.62916L463.18826,492.10927L460.78832,492.10927L458.38838,492.10927
				L455.02847,489.94879L453.5885,487.78831L453.5885,485.14772L452.86852,483.7074L452.14854,482.50714L451.42856,479.86655L450.70857,477.46602
				L446.38868,478.18618L446.86867,474.10527L445.9087,471.46468L445.9087,468.34399L445.9087,467.38378L443.50876,465.2233L441.34881,462.10261
				L440.38884,458.50181L440.38884,458.26175L439.66885,455.38111L437.7489,453.46069L435.82895,453.94079L433.42901,455.62117L
				430.54909,457.78165L428.62913,453.70074L426.2292,455.62117L425.26922,458.50181L423.82926,460.42223L422.86928,461.14239L421.18932,460.42223
				L419.74936,456.82143L421.18932,455.38111L419.50937,453.94079L416.38944,452.98058L415.18948,451.78031L415.42947,449.61983
				L416.38944,449.13973L418.3094,449.13973L419.98935,448.17951L421.66931,446.97925L423.34927,446.73919L425.74921,446.97925L
				427.18917,446.01903L427.18917,444.33866L426.70918,442.17818L425.9892,440.0177L425.02923,437.85722L424.78923,436.17685L425.50921,434.01637
				L427.18917,433.05616L427.18917,431.13573L425.9892,429.69541L426.46919,428.25509L427.42916,426.81477L428.38914,424.65429L
				429.34912,423.21397L430.54909,422.0137L431.74906,420.81344L431.98905,419.61317L432.70903,417.9328L434.14899,416.73253L432.70903,415.29221
				L433.18902,413.13173L432.70903,411.69141L431.26907,410.97125L431.02907,409.29088L432.94902,409.53093L433.909,408.33067L435.58896,408.33067
				L436.30894,406.41024L435.82895,404.48981L435.10897,402.08928L434.86898,400.40891L434.14899,398.48848L433.66901,397.04816
				L435.10897,396.328L436.54893,397.28821L438.22889,396.80811L439.66885,394.88768L440.62883,393.68742L443.02877,393.44736L445.6687,394.16752
				L447.34866,395.36779L448.78862,395.12773L449.02862,393.68742L447.34866,392.48715L445.9087,391.76699L446.86867,389.84656L
				448.78862,389.60651L450.46858,388.6463L452.62853,387.92614L453.10851,390.32667L453.34851,392.00704L455.02847,391.28688L456.46843,389.60651
				L457.6684,388.40624L460.30833,387.44603L461.5083,388.40624L462.46828,389.60651L461.98829,391.52694L463.18826,392.7272L463.66825,394.64763
				L463.66825,396.328L463.18826,398.00837L464.62822,399.44869L465.3482,401.60917L464.86822,403.76965L464.14823,405.45003L463.90824,407.1304
				L465.10821,408.57072L465.82819,410.01104L465.82819,411.45136L465.5882,413.61184L467.02816,414.09195L469.18811,414.09195L
				470.86806,414.81211L472.30803,415.53227L473.98798,415.77232L475.66794,415.29221L476.14793,416.73253L477.82789,417.21264L
				479.26785,418.41291L480.70781,418.89301L481.90778,419.61317L482.62777,420.81344L483.58774,422.25376L484.06773,424.17418L
				482.86776,425.1344L481.1878,425.37445L479.50784,424.41424L478.06788,423.45402L476.14793,422.73386L474.22798,422.97392L473.74799,424.41424
				L475.18795,426.81477L475.66794,428.49514L476.14793,430.41557L476.38792,432.09594L477.10791,433.53626L478.30788,434.01637
				L479.74784,433.53626L481.1878,432.57605L482.38777,431.85589L484.06773,431.85589L485.98768,432.09594L486.70766,431.37578L
				488.38762,430.41557L490.30757,430.41557L491.74753,428.49514L491.50754,422.49381L492.46752,420.81344L493.1875,419.85323L494.86746,419.13307
				L495.82743,418.17285L497.98738,417.69275L499.42734,416.01237L500.62731,414.332L501.82728,413.37179L502.78725,411.93147L502.30727,409.77099
				L501.1073,407.85056L501.1073,405.69008L502.06727,404.00971L503.02725,402.56939L504.70721,401.84923L506.14717,400.16885L507.58713,398.96859
				L508.7871,397.52827L510.22707,396.328L511.66703,398.96859L512.38701,400.64896L513.82697,402.08928L514.30696,403.5296L515.98692,404.24976
				L517.42688,405.20997L518.38686,406.89035L520.06682,406.41024L522.70675,406.65029L524.38671,403.76965L524.6267,401.36912L
				524.86669,399.20864L525.58668,398.00837L526.30666,396.328L527.26663,394.40758L526.78665,392.96726L528.7066,392.48715L529.90657,391.04683
				L530.38655,389.36646L531.10654,388.16619L532.30651,389.1264L533.74647,390.08662L535.66642,390.56672L537.10638,390.80678L
				538.54635,389.36646L538.54635,387.68608L539.50632,385.76566L540.94629,386.48582L541.66627,387.92614L543.34623,388.6463L545.26618,386.48582
				L545.98616,384.56539L547.18613,383.36512L549.34607,383.84523z"/>
			<path clip-path="url(#SVG_CP_1)" fill="#CDE9F7" fill-rule="evenodd" stroke="#6E6E6E" stroke-width="0.47999" stroke-miterlimit="10" stroke-linecap="round" stroke-linejoin="round" d="
				M649.42354,403.28955L648.94355,404.96992L651.82348,408.57072L653.02345,411.69141L652.54346,413.13173L651.34349,414.57205
				L650.8635,416.01237L650.8635,418.41291L649.90352,419.85323L649.18354,421.5336L649.66353,422.97392L650.62351,424.17418L651.58348,426.09461
				L652.30346,427.77498L653.02345,429.2153L654.9434,431.61584L656.14337,433.77632L657.34334,435.69674L657.34334,437.61717L657.10334,439.05749
				L656.86335,440.49781L656.62335,442.41824L657.58333,443.85856L658.54331,445.29888L657.82332,446.73919L655.90337,446.97925
				L653.98342,447.69941L652.78345,448.89967L651.58348,449.85989L648.70356,450.58005L647.98357,449.85989L644.62366,447.2193L
				641.50374,448.65962L640.30377,452.02037L638.8638,454.18085L637.90383,456.34133L636.70386,459.46202L634.06393,460.18218L632.38397,459.94213
				L629.50404,459.94213L629.02405,460.18218L623.50419,461.86255L621.34425,461.14239L618.46432,459.46202L616.78436,457.30154
				L615.58439,457.06149L613.18446,456.10127L611.5045,453.70074L610.06453,451.78031L610.06453,450.09994L611.02451,450.09994L
				612.22448,449.85989L613.42445,449.37978L616.06438,447.69941L616.54437,446.25909L616.78436,445.53893L615.10441,443.85856L
				613.66444,443.1384L615.3444,441.21797L613.90444,438.81744L613.42445,437.13706L611.2645,436.65696L610.54452,436.65696L608.14458,435.9368
				L607.4246,432.8161L607.6646,432.09594L608.14458,428.7352L610.06453,425.1344L613.42445,422.49381L613.66444,421.77365L615.10441,419.85323
				L611.98449,418.41291L611.5045,418.65296L608.62457,419.13307L607.18461,418.65296L604.78467,418.89301L602.62472,419.61317L
				600.70477,420.33333L598.06484,420.09328L593.26496,420.33333L589.90505,419.85323L588.70508,417.69275L587.98509,419.13307L
				586.54513,422.49381L586.06514,424.65429L586.54513,425.6145L583.42521,427.77498L582.70523,429.2153L581.02527,430.41557L579.34531,430.41557
				L579.10532,428.97525L579.34531,427.05482L580.0653,425.1344L579.58531,423.21397L577.90535,422.97392L577.18537,420.33333L579.58531,418.41291
				L580.30529,417.21264L581.02527,415.77232L581.98525,414.09195L583.18522,412.65163L584.86517,411.45136L585.82515,408.81077
				L587.98509,409.53093L589.18506,410.7312L590.62503,412.41157L591.825,413.37179L593.26496,412.41157L594.22494,411.21131L595.18491,410.01104
				L596.14489,408.81077L595.90489,406.89035L597.58485,406.65029L598.30483,404.96992L598.54483,403.04949L600.46478,403.76965
				L601.18476,402.56939L601.18476,401.12907L601.42475,399.68875L602.38473,397.52827L602.62472,396.328L602.86472,394.40758L602.86472,392.7272
				L603.82469,389.84656L604.78467,388.40624L606.22463,389.1264L606.94461,387.44603L608.38458,386.48582L609.82454,387.68608L
				611.5045,388.6463L612.70447,388.16619L614.14443,389.1264L615.58439,389.36646L617.02436,391.04683L617.98433,392.48715L619.4243,392.96726
				L620.62427,393.92747L621.82424,392.48715L623.50419,390.32667L625.90413,391.04683L627.3441,392.2471L628.06408,393.68742L628.78406,395.36779
				L629.26405,397.04816L628.78406,398.96859L629.26405,400.64896L629.98403,402.08928L632.86396,401.12907L634.78391,400.88901
				L635.98388,399.20864L637.18385,398.00837L638.8638,398.00837L639.58379,399.44869L641.26374,401.36912L642.70371,402.80944L
				643.90368,403.76965L645.82363,404.48981L649.42354,403.28955z"/>
			<path clip-path="url(#SVG_CP_1)" fill="#CDE9F7" fill-rule="evenodd" stroke="#6E6E6E" stroke-width="0.47999" stroke-miterlimit="10" stroke-linecap="round" stroke-linejoin="round" d="
				M606.94461,366.08129L608.38458,367.76166L605.50465,368.24177L604.30468,368.96193L602.86472,370.16219L603.10471,372.32267
				L603.10471,373.76299L602.86472,375.44336L601.18476,374.96326L599.98479,375.68342L600.22478,377.60384L600.22478,379.28422
				L601.66475,380.24443L603.34471,380.72454L602.62472,382.40491L600.94477,382.40491L600.22478,383.84523L601.66475,384.80544
				L602.38473,387.20598L602.38473,388.6463L603.82469,389.84656L602.86472,392.7272L602.86472,394.40758L602.62472,396.328L602.38473,397.52827
				L601.42475,399.68875L601.18476,401.12907L601.18476,402.56939L600.46478,403.76965L598.54483,403.04949L598.30483,404.96992
				L597.58485,406.65029L595.90489,406.89035L596.14489,408.81077L595.18491,410.01104L594.22494,411.21131L593.26496,412.41157
				L591.825,413.37179L590.62503,412.41157L589.18506,410.7312L587.98509,409.53093L585.82515,408.81077L584.86517,411.45136L583.18522,412.65163
				L581.98525,414.09195L581.02527,415.77232L580.30529,417.21264L579.58531,418.41291L577.18537,420.33333L574.54544,421.05349
				L572.86548,422.0137L571.42551,422.97392L570.22554,423.93413L569.74556,425.6145L569.50556,427.05482L569.26557,428.7352L568.54559,430.17552
				L567.10562,430.89568L565.66566,430.65562L563.50572,429.93546L560.38579,429.45536L559.18582,427.77498L559.42582,426.09461
				L559.66581,424.65429L559.90581,423.21397L560.1458,421.5336L559.90581,419.85323L560.62579,417.9328L562.06575,417.21264L562.30575,415.53227
				L562.06575,413.13173L561.10578,411.69141L558.94583,410.01104L555.34592,409.77099L553.90596,410.49115L552.94598,412.17152
				L552.226,414.09195L551.50602,415.77232L549.82606,416.97259L548.3861,417.21264L546.94613,416.49248L545.74617,415.05216L545.02618,412.89168
				L545.02618,410.97125L545.02618,409.29088L545.50617,407.61051L545.98616,405.69008L545.98616,403.28955L545.74617,401.60917
				L545.02618,399.20864L545.26618,397.76832L546.70614,396.80811L547.18613,395.12773L546.22615,393.44736L546.22615,391.52694
				L546.46615,390.08662L547.18613,388.6463L548.62609,387.44603L550.30605,386.48582L550.54604,385.0455L549.34607,383.84523L549.10608,381.9248
				L549.10608,380.24443L548.62609,378.08395L549.10608,376.64363L550.78604,375.44336L552.226,376.64363L553.66596,377.60384L554.86593,376.88368
				L558.46584,377.60384L558.94583,375.92347L560.1458,374.7232L561.82576,375.20331L563.26572,373.76299L562.78573,372.32267L561.82576,371.1224
				L562.06575,369.20198L563.50572,368.48182L565.42567,368.24177L566.38564,366.80145L565.66566,364.88102L563.50572,362.96059
				L563.74571,361.04017L564.2257,359.11974L565.90565,357.19931L567.34562,356.47915L568.54559,357.43937L569.26557,359.11974L
				570.46554,357.91947L571.9055,356.47915L573.82545,355.75899L574.30544,354.07862L577.66536,352.15819L581.50526,354.07862L583.9052,355.03883
				L583.9052,357.67942L583.18522,358.87969L581.74525,359.35979L581.98525,361.04017L585.10517,363.20065L587.02512,362.48049L
				588.46508,361.52027L589.90505,361.52027L592.78497,360.80011L592.30499,358.63963L593.26496,356.95926L595.18491,354.07862L
				597.58485,354.31867L599.7448,354.31867L599.26481,355.99905L599.5048,357.67942L599.02481,359.35979L600.22478,360.80011L601.42475,362.24043
				L602.62472,363.20065L604.30468,363.4407L605.74464,364.88102L606.94461,366.08129z"/>
			<path clip-path="url(#SVG_CP_1)" fill="#CDE9F7" fill-rule="evenodd" stroke="#6E6E6E" stroke-width="0.47999" stroke-miterlimit="10" stroke-linecap="round" stroke-linejoin="round" d="
				M654.46341,390.80678L653.74343,392.48715L653.02345,394.40758L652.30346,395.84789L651.10349,396.80811L651.10349,398.72853
				L652.54346,399.44869L654.46341,399.9288L654.7034,401.36912L654.7034,403.28955L652.78345,403.76965L651.10349,404.00971L649.42354,403.28955
				L645.82363,404.48981L643.90368,403.76965L642.70371,402.80944L641.26374,401.36912L639.58379,399.44869L638.8638,398.00837L
				637.18385,398.00837L635.98388,399.20864L634.78391,400.88901L632.86396,401.12907L629.98403,402.08928L629.26405,400.64896L
				628.78406,398.96859L629.26405,397.04816L628.78406,395.36779L628.06408,393.68742L627.3441,392.2471L625.90413,391.04683L623.50419,390.32667
				L621.82424,392.48715L620.62427,393.92747L619.4243,392.96726L617.98433,392.48715L617.02436,391.04683L615.58439,389.36646L
				614.14443,389.1264L612.70447,388.16619L611.5045,388.6463L609.82454,387.68608L608.38458,386.48582L606.94461,387.44603L606.22463,389.1264
				L604.78467,388.40624L603.82469,389.84656L602.38473,388.6463L602.38473,387.20598L601.66475,384.80544L600.22478,383.84523L
				600.94477,382.40491L602.62472,382.40491L603.34471,380.72454L601.66475,380.24443L600.22478,379.28422L600.22478,377.60384L
				599.98479,375.68342L601.18476,374.96326L602.86472,375.44336L603.10471,373.76299L603.10471,372.32267L602.86472,370.16219L
				604.30468,368.96193L605.50465,368.24177L608.38458,367.76166L610.30453,368.96193L611.2645,369.92214L612.94446,370.6423L614.86441,368.48182
				L617.02436,368.96193L618.70432,368.72187L618.46432,370.6423L619.4243,372.32267L620.62427,374.00304L621.10426,375.44336L620.14428,376.40358
				L619.66429,378.08395L621.34425,377.8439L622.78421,377.60384L624.46417,377.60384L625.18415,378.80411L626.62412,379.76432L
				628.78406,380.96459L630.22402,380.00438L629.74404,378.08395L631.184,377.12374L632.86396,377.12374L634.30392,376.16352L635.2639,374.7232
				L637.18385,377.36379L638.62381,377.36379L640.30377,378.56406L642.22372,376.64363L645.34364,377.60384L645.58363,379.04416
				L644.14367,380.24443L644.62366,381.9248L645.58363,383.12507L647.0236,385.0455L647.98357,386.72587L649.18354,387.44603L650.38351,388.6463
				L650.8635,390.32667L652.54346,390.32667L654.46341,390.80678z"/>
			<path clip-path="url(#SVG_CP_1)" fill="#CDE9F7" fill-rule="evenodd" stroke="#6E6E6E" stroke-width="0.47999" stroke-miterlimit="10" stroke-linecap="round" stroke-linejoin="round" d="
				M661.18324,364.16086L659.50328,366.56139L657.82332,368.24177L656.86335,370.16219L655.90337,372.08262L657.34334,373.04283
				L658.7833,373.76299L660.46326,374.00304L660.94325,375.44336L660.46326,377.12374L660.70325,378.80411L661.90322,380.00438L
				661.66323,381.9248L660.70325,383.60518L658.54331,385.5256L657.34334,386.48582L656.14337,387.92614L655.18339,389.60651L654.46341,390.80678
				L652.54346,390.32667L650.8635,390.32667L650.38351,388.6463L649.18354,387.44603L647.98357,386.72587L647.0236,385.0455L645.58363,383.12507
				L644.62366,381.9248L644.14367,380.24443L645.58363,379.04416L645.34364,377.60384L642.22372,376.64363L640.30377,378.56406L
				638.62381,377.36379L637.18385,377.36379L635.2639,374.7232L634.30392,376.16352L632.86396,377.12374L631.184,377.12374L629.74404,378.08395
				L630.22402,380.00438L628.78406,380.96459L626.62412,379.76432L625.18415,378.80411L624.46417,377.60384L622.78421,377.60384
				L621.34425,377.8439L619.66429,378.08395L620.14428,376.40358L621.10426,375.44336L620.62427,374.00304L619.4243,372.32267L618.46432,370.6423
				L618.70432,368.72187L617.02436,368.96193L614.86441,368.48182L612.94446,370.6423L611.2645,369.92214L610.30453,368.96193L608.38458,367.76166
				L606.94461,366.08129L610.30453,364.88102L611.2645,363.4407L612.22448,362.24043L613.66444,361.52027L615.3444,361.28022L617.02436,360.56006
				L619.66429,358.63963L618.46432,356.95926L618.94431,355.27889L619.4243,353.59851L619.4243,351.91814L618.94431,350.47782L617.74434,349.0375
				L617.74434,347.59718L618.46432,345.67675L620.14428,345.91681L621.34425,347.11707L623.02421,347.35713L623.98418,349.27755
				L623.2642,350.71787L626.38412,350.23777L628.06408,349.99771L629.74404,350.47782L630.94401,351.91814L631.90398,353.59851L
				632.14398,355.27889L633.82393,355.27889L635.0239,354.31867L636.46387,353.83857L637.18385,352.39825L638.62381,351.43803L639.58379,349.27755
				L641.02375,347.83723L642.22372,346.87702L642.70371,348.79745L643.42369,350.71787L644.86365,351.91814L646.06362,352.87835
				L646.06362,354.55873L646.06362,356.2391L646.7836,357.91947L648.46356,357.43937L650.14352,356.95926L651.82348,357.43937L653.26344,358.63963
				L654.9434,358.87969L656.62335,357.67942L658.30331,357.91947L659.98327,358.15953L660.22326,360.32001L660.70325,362.48049L
				661.18324,364.16086z"/>
			<path clip-path="url(#SVG_CP_1)" fill="#CDE9F7" fill-rule="evenodd" stroke="#6E6E6E" stroke-width="0.47999" stroke-miterlimit="10" stroke-linecap="round" stroke-linejoin="round" d="
				M744.94112,329.59318L743.50115,328.63297L742.54118,326.23244L742.78117,324.55206L740.86122,324.31201L740.62123,322.87169
				L741.5812,321.67142L741.82119,319.03084L740.14124,318.79079L738.70127,319.99105L737.02132,320.2311L737.98129,321.67142L736.30133,321.91148
				L735.34136,320.71121L733.9014,319.751L732.70143,318.31068L732.94142,316.87036L734.38138,312.06929L732.22144,313.50961L730.54148,313.50961
				L729.10152,313.02951L728.14154,313.02951L726.22159,310.62897L727.90155,310.38892L727.90155,308.70855L717.58181,302.94727
				L717.8218,301.02684L718.0618,299.34647L719.98175,298.62631L720.22174,296.70588L721.9017,296.22577L723.34166,295.50561L724.06164,293.58519
				L724.78163,291.90482L726.22159,290.22444L727.18157,289.02418L728.62153,287.82391L729.58151,286.38359L729.34151,284.70322
				L729.34151,282.54274L730.78147,280.1422L732.46143,278.22178L733.18141,276.30135L734.62138,275.58119L736.06134,276.5414L737.5013,275.10108
				L738.46128,273.18066L739.42126,271.74034L741.34121,271.02018L742.78117,270.54007L743.74115,269.09975L745.18111,268.37959
				L746.38108,266.69922L748.06104,265.01885L749.501,263.81858L750.94096,262.61831L752.62092,260.93794L754.06088,259.49762L753.3409,258.29735
				L752.38093,256.61698L753.10091,254.69655L754.54087,253.25623L755.02086,252.05597L754.78087,250.13554L752.14093,248.69522
				L753.10091,247.2549L754.30088,246.53474L754.78087,244.85437L755.02086,243.174L755.50085,241.73368L756.94081,241.25357L758.86076,240.77346
				L761.02071,240.29336L762.70067,238.85304L763.66064,237.41272L762.22068,236.21245L760.78071,235.73234L759.34075,235.01218
				L758.14078,233.81192L757.4208,231.89149L759.10076,231.17133L760.54072,230.93128L761.02071,229.2509L761.02071,227.33048L761.98068,224.20978
				L764.38062,228.29069L769.4205,231.17133L770.62046,233.09176L772.78041,232.61165L772.78041,231.65144L775.18035,228.53074L
				777.1003,228.05064L779.50024,228.53074L782.86015,227.33048L783.10015,226.13021L783.10015,225.89016L786.22007,225.17L787.66003,227.33048
				L790.77995,226.85037L794.61986,225.89016L794.37986,227.81058L796.7798,229.01085L793.89987,230.45117L791.73993,230.45117L
				791.73993,232.3716L793.17989,233.33181L793.89987,235.01218L793.89987,236.69256L792.21992,236.4525L790.53996,237.17266L789.81998,238.61298
				L790.77995,240.0533L790.29997,241.49362L788.14002,240.77346L786.94005,241.97373L787.18004,243.6541L787.90003,245.09442L788.86,246.53474
				L790.05997,247.73501L791.49994,248.45517L792.9399,249.65543L794.61986,250.13554L795.57983,251.09575L797.25979,251.81591L
				798.69975,252.77613L798.69975,254.4565L798.93975,256.37693L797.97977,258.53741L796.29981,259.73767L794.37986,259.73767L792.9399,260.93794
				L792.9399,262.61831L791.25994,264.29869L790.29997,265.97906L789.1,266.69922L786.94005,266.69922L785.0201,267.17933L785.50009,268.37959
				L785.50009,270.30002L785.0201,271.74034L783.82013,272.70055L783.58014,274.38092L784.06012,276.0613L782.62016,277.50162L780.9402,278.46183
				L779.74023,279.42204L778.06028,279.90215L778.78026,282.06263L780.22022,282.54274L779.74023,283.98306L779.02025,285.42338
				L777.82028,286.8637L777.34029,288.30402L778.54026,289.50428L777.82028,291.18466L776.62031,292.38492L774.22037,293.34514L
				773.50039,294.78545L773.50039,296.94593L774.94036,297.66609L774.70036,299.34647L773.74039,300.78679L772.06043,301.98705L
				770.86046,303.42737L768.94051,303.90748L766.78056,302.94727L766.54057,301.50695L765.82059,299.58652L763.66064,300.30668L
				762.22068,301.26689L760.54072,302.22711L759.10076,301.747L757.66079,301.02684L755.98084,300.54673L755.50085,301.98705L754.54087,304.14753
				L753.10091,306.06796L752.14093,307.26823L751.90094,309.42871L752.86091,310.86903L754.78087,312.06929L754.78087,313.50961
				L753.5809,314.70988L752.86091,315.91015L752.14093,317.35047L750.70097,319.751L749.501,320.71121L748.30103,322.87169L747.58105,324.55206
				L746.62107,326.47249L745.90109,327.91281L744.94112,329.59318z"/>
			<path clip-path="url(#SVG_CP_1)" fill="#CDE9F7" fill-rule="evenodd" stroke="#6E6E6E" stroke-width="0.47999" stroke-miterlimit="10" stroke-linecap="round" stroke-linejoin="round" d="
				M671.02299,295.50561L670.06301,296.94593L671.02299,298.1462L671.26298,299.82657L675.58287,300.54673L675.58287,302.94727L
				676.54285,304.38759L677.50283,306.06796L677.50283,307.50828L677.98281,309.66876L678.22281,311.34913L678.4628,312.78945L678.70279,314.46983
				L680.14276,314.70988L681.34273,316.1502L680.62275,317.59052L681.58272,319.27089L680.86274,320.95126L680.62275,322.63164L
				683.74267,322.15153L685.42262,321.91148L687.58257,321.67142L686.14261,323.59185L685.18263,324.79212L686.62259,325.99238L
				687.58257,327.4327L686.14261,328.63297L684.46265,327.4327L683.02269,326.9526L681.34273,327.19265L679.90276,325.99238L678.22281,325.03217
				L677.26283,326.23244L676.54285,327.91281L676.06286,329.35313L674.86289,330.5534L674.3829,331.99372L675.10289,333.43404L673.42293,334.1542
				L671.74297,333.43404L670.06301,334.1542L670.543,335.59452L671.74297,337.03484L670.30301,337.51494L668.62305,337.51494L666.94309,337.03484
				L665.50313,336.55473L663.82317,335.83457L663.82317,334.39425L662.14321,333.91414L660.46326,332.71388L659.02329,332.71388
				L657.58333,331.75366L654.22342,331.99372L652.06347,332.47382L650.62351,331.51361L649.42354,330.31334L647.50359,330.07329
				L646.54361,328.15286L645.58363,326.9526L645.34364,325.51228L645.34364,323.3518L645.34364,320.47116L645.34364,318.79079L646.54361,318.07063
				L647.26359,316.63031L647.74358,315.18999L648.94355,313.74967L649.66353,312.5494L649.90352,310.86903L650.14352,309.18865L
				651.58348,309.66876L653.26344,309.42871L654.46341,308.46849L654.46341,306.78812L653.50343,304.86769L652.78345,303.42737L
				651.82348,301.98705L650.8635,300.78679L651.10349,297.90615L650.8635,296.22577L650.38351,294.30535L650.38351,292.62498L651.34349,290.9446
				L653.02345,290.22444L655.18339,289.74434L654.9434,288.06396L656.86335,287.3438L658.7833,287.3438L659.50328,288.78412L660.22326,290.22444
				L661.42323,291.42471L663.34318,291.90482L664.78315,292.62498L666.22311,293.82524L667.66307,295.02551L669.34303,295.26556
				L671.02299,295.50561z"/>
			<path clip-path="url(#SVG_CP_1)" fill="#CDE9F7" fill-rule="evenodd" stroke="#6E6E6E" stroke-width="0.47999" stroke-miterlimit="10" stroke-linecap="round" stroke-linejoin="round" d="
				M717.58181,302.94727L727.90155,308.70855L727.90155,310.38892L726.22159,310.62897L728.14154,313.02951L729.10152,313.02951
				L730.54148,313.50961L732.22144,313.50961L734.38138,312.06929L732.94142,316.87036L732.70143,318.31068L733.9014,319.751L735.34136,320.71121
				L736.30133,321.91148L737.98129,321.67142L737.02132,320.2311L738.70127,319.99105L740.14124,318.79079L741.82119,319.03084L
				741.5812,321.67142L740.62123,322.87169L740.86122,324.31201L742.78117,324.55206L742.54118,326.23244L743.50115,328.63297L744.94112,329.59318
				L744.22113,331.51361L743.74115,334.1542L741.5812,335.83457L740.62123,337.51494L739.42126,339.19532L737.98129,340.63564L736.78132,342.07596
				L735.58135,343.75633L734.14139,344.95659L732.70143,344.23644L730.78147,343.99638L729.10152,345.19665L727.18157,344.71654
				L724.30164,345.4367L723.10167,344.95659L721.66171,344.23644L719.98175,343.27622L718.30179,341.3558L718.54178,338.95526L717.34182,337.755
				L716.14185,336.31468L716.14185,334.1542L715.66186,332.71388L714.46189,331.51361L712.30194,332.23377L708.70203,332.23377L
				707.26207,334.6343L705.58211,334.87436L703.66216,335.35446L702.2222,336.31468L700.54224,337.51494L698.3823,337.27489L696.70234,336.79478
				L696.22235,335.35446L695.74236,334.1542L695.74236,332.71388L695.26238,330.79345L693.34242,330.5534L691.66247,330.79345L690.2225,330.07329
				L688.78254,329.11308L687.58257,327.4327L686.62259,325.99238L685.18263,324.79212L686.14261,323.59185L687.58257,321.67142L
				689.26253,321.67142L690.70249,320.2311L693.10243,319.27089L694.06241,317.83057L694.78239,316.39025L695.50237,314.22977L695.50237,312.06929
				L696.70234,310.62897L698.62229,311.34913L700.30225,310.62897L701.74221,311.34913L703.18217,310.14887L704.86213,310.86903
				L706.78208,309.90881L707.98205,307.98839L710.142,307.74833L711.58196,308.9486L713.26192,307.74833L714.22189,306.78812L715.18187,305.10775
				L714.46189,303.42737L715.66186,302.70721L717.58181,302.94727z"/>
			<path clip-path="url(#SVG_CP_1)" fill="#CDE9F7" fill-rule="evenodd" stroke="#6E6E6E" stroke-width="0.47999" stroke-miterlimit="10" stroke-linecap="round" stroke-linejoin="round" d="
				M671.02299,428.49514L671.02299,428.7352L672.46295,430.89568L672.22296,432.09594L671.50298,434.97658L671.98297,438.09728L
				673.66292,439.29754L674.3829,439.5376L675.82287,438.33733L678.22281,436.65696L679.66277,437.61717L680.14276,438.57738L681.10273,439.77765
				L682.3027,441.21797L682.3027,442.89834L683.02269,445.77898L686.14261,446.25909L688.54255,448.41957L693.10243,446.25909L696.46234,445.29888
				L701.02223,447.2193L701.02223,451.30021L700.54224,452.50047L702.70219,453.70074L704.14215,456.58138L703.90216,459.22197L
				704.86213,462.10261L702.94218,465.2233L702.2222,465.94346L701.02223,466.66362L698.3823,466.90367L697.42232,466.18351L696.46234,466.18351
				L695.50237,464.98325L694.78239,464.74319L694.06241,465.2233L693.58242,465.2233L693.58242,465.46335L693.34242,465.70341L692.86244,465.94346
				L692.86244,466.66362L689.50252,466.90367L688.06256,467.86389L685.90261,466.66362L684.46265,467.14373L684.22265,468.34399
				L683.98266,468.34399L683.26268,468.34399L683.02269,468.34399L682.5427,468.8241L682.3027,468.8241L682.3027,468.34399L681.10273,468.58405
				L680.14276,468.10394L679.42278,468.10394L679.18278,468.58405L677.98281,468.58405L677.26283,469.54426L676.78284,469.78431
				L676.06286,470.26442L674.6229,470.26442L672.70295,469.78431L671.74297,469.30421L670.543,469.30421L669.82302,469.06415L669.10304,469.06415
				L668.38306,468.10394L667.18309,467.62383L666.7031,466.90367L665.98312,466.90367L664.30316,465.70341L661.90322,466.66362L
				660.22326,467.86389L659.74328,468.10394L658.06332,468.8241L657.34334,468.8241L655.18339,468.58405L654.46341,468.34399L655.90337,465.70341
				L657.82332,463.54293L657.58333,462.10261L654.46341,462.10261L653.98342,459.94213L655.18339,458.0217L655.66338,454.90101L
				654.7034,452.02037L651.82348,453.22063L650.62351,453.22063L649.90352,451.78031L648.70356,450.58005L651.58348,449.85989L652.78345,448.89967
				L653.98342,447.69941L655.90337,446.97925L657.82332,446.73919L658.54331,445.29888L657.58333,443.85856L656.62335,442.41824
				L656.86335,440.49781L657.10334,439.05749L657.34334,437.61717L657.34334,435.69674L656.14337,433.77632L654.9434,431.61584L
				653.02345,429.2153L652.30346,427.77498L651.58348,426.09461L650.62351,424.17418L649.66353,422.97392L649.18354,421.5336L649.90352,419.85323
				L650.8635,418.41291L650.8635,416.01237L651.34349,414.57205L652.54346,413.13173L653.02345,411.69141L651.82348,408.57072L648.94355,404.96992
				L649.42354,403.28955L651.10349,404.00971L652.78345,403.76965L654.7034,403.28955L654.7034,401.36912L654.46341,399.9288L652.54346,399.44869
				L651.10349,398.72853L651.10349,396.80811L652.30346,395.84789L653.02345,394.40758L653.74343,392.48715L654.46341,390.80678
				L655.18339,389.60651L656.14337,387.92614L657.34334,386.48582L658.54331,385.5256L660.70325,383.60518L664.30316,385.76566L
				665.98312,386.48582L668.14306,386.24576L671.26298,386.24576L671.74297,387.92614L674.6229,386.72587L674.3829,389.1264L674.3829,390.80678
				L674.86289,392.48715L675.10289,393.92747L675.58287,397.04816L677.02284,398.24843L676.54285,399.9288L678.22281,403.04949L
				678.70279,404.48981L680.38275,405.45003L682.5427,405.93013L684.22265,406.17019L684.46265,404.72987L685.90261,403.76965L687.58257,402.80944
				L688.78254,403.5296L690.2225,404.24976L691.18248,405.69008L692.86244,405.93013L694.78239,405.45003L696.46234,405.69008L698.1423,407.1304
				L700.06225,408.57072L700.30225,410.25109L700.06225,411.93147L701.02223,413.13173L702.2222,414.332L702.70219,416.49248L702.94218,418.17285
				L703.18217,419.61317L703.66216,421.05349L703.90216,422.49381L703.66216,424.41424L706.0621,425.37445L706.0621,426.57472L704.38214,428.25509
				L702.2222,427.05482L701.9822,425.1344L700.30225,424.65429L699.82226,424.41424L698.86228,423.21397L696.94233,421.29354L696.70234,419.85323
				L695.02238,419.37312L693.34242,419.85323L692.14245,418.41291L691.42247,416.97259L690.2225,415.77232L688.30255,415.05216L
				688.54255,413.61184L687.34258,413.13173L686.62259,413.61184L683.26268,417.21264L683.74267,421.05349L679.42278,420.81344L
				675.58287,421.05349L673.42293,422.97392L672.70295,425.1344L671.02299,426.57472L671.02299,428.49514z"/>
			<path clip-path="url(#SVG_CP_1)" fill="#CDE9F7" fill-rule="evenodd" stroke="#6E6E6E" stroke-width="0.47999" stroke-miterlimit="10" stroke-linecap="round" stroke-linejoin="round" d="
				M635.2639,316.1502L636.70386,315.43004L638.14382,315.43004L639.58379,315.91015L640.54376,317.35047L640.78376,318.79079L641.74373,320.47116
				L643.1837,319.751L645.34364,318.79079L645.34364,320.47116L645.34364,323.3518L645.34364,325.51228L645.58363,326.9526L646.54361,328.15286
				L647.50359,330.07329L649.42354,330.31334L650.62351,331.51361L652.06347,332.47382L654.22342,331.99372L657.58333,331.75366
				L659.02329,332.71388L660.46326,332.71388L662.14321,333.91414L663.82317,334.39425L663.82317,335.83457L665.50313,336.55473
				L666.94309,337.03484L666.7031,338.47516L666.7031,340.15553L668.38306,340.15553L668.62305,341.59585L670.06301,342.55606L671.50298,343.27622
				L673.42293,344.95659L674.86289,345.4367L676.06286,346.63697L676.06286,348.55739L675.34288,349.99771L674.3829,352.15819L674.86289,353.59851
				L674.86289,356.71921L671.98297,356.95926L670.06301,357.43937L669.34303,359.11974L669.34303,361.52027L667.42308,361.28022
				L666.7031,362.96059L665.26314,362.96059L663.34318,363.92081L662.38321,364.88102L661.18324,364.16086L660.70325,362.48049L
				660.22326,360.32001L659.98327,358.15953L658.30331,357.91947L656.62335,357.67942L654.9434,358.87969L653.26344,358.63963L651.82348,357.43937
				L650.14352,356.95926L648.46356,357.43937L646.7836,357.91947L646.06362,356.2391L646.06362,354.55873L646.06362,352.87835L644.86365,351.91814
				L643.42369,350.71787L642.70371,348.79745L642.22372,346.87702L641.02375,347.83723L639.58379,349.27755L638.62381,351.43803
				L637.18385,352.39825L636.46387,353.83857L635.0239,354.31867L633.82393,355.27889L632.14398,355.27889L631.90398,353.59851L
				630.94401,351.91814L629.74404,350.47782L628.06408,349.99771L626.38412,350.23777L623.2642,350.71787L623.98418,349.27755L623.02421,347.35713
				L621.34425,347.11707L620.14428,345.91681L618.46432,345.67675L617.02436,342.07596L614.86441,340.39558L614.14443,339.19532
				L612.70447,337.51494L610.78452,337.27489L609.10456,336.55473L607.6646,334.87436L607.4246,333.43404L606.94461,331.75366L605.74464,329.35313
				L606.22463,327.91281L607.18461,325.99238L608.38458,324.55206L609.10456,323.11174L609.82454,321.67142L611.2645,321.67142L
				612.22448,322.63164L613.90444,323.11174L615.3444,322.15153L615.3444,320.71121L615.3444,319.27089L617.02436,317.11041L619.90429,316.63031
				L621.10426,315.43004L622.78421,314.46983L624.70416,315.18999L626.14413,315.91015L627.58409,315.91015L628.06408,317.59052
				L628.30407,319.51094L629.74404,320.2311L630.70401,321.43137L632.14398,321.67142L634.06393,321.67142L636.70386,322.63164L
				637.18385,320.95126L637.42384,319.03084L636.46387,317.83057L635.2639,316.1502z"/>
			<path clip-path="url(#SVG_CP_1)" fill="#CDE9F7" fill-rule="evenodd" stroke="#6E6E6E" stroke-width="0.47999" stroke-miterlimit="10" stroke-linecap="round" stroke-linejoin="round" d="
				M552.70599,305.3478L553.90596,306.78812L554.86593,307.98839L555.82591,309.18865L556.54589,311.10908L556.78589,312.30935L
				556.78589,314.46983L557.50587,316.1502L558.94583,316.87036L560.62579,317.83057L560.38579,319.51094L560.38579,320.95126L559.66581,322.39158
				L558.46584,324.07196L557.50587,325.75233L556.54589,327.4327L555.82591,328.87302L554.38595,330.5534L553.18598,332.47382L553.66596,334.1542
				L554.38595,336.07462L556.0659,336.07462L557.02588,335.35446L558.94583,334.39425L560.1458,335.83457L561.58576,334.87436L562.06575,333.43404
				L565.18567,334.6343L567.34562,335.11441L567.58561,336.79478L567.58561,338.47516L567.82561,340.39558L566.86563,342.07596L
				565.66566,343.27622L563.50572,343.03617L561.82576,344.47649L561.58576,346.39691L559.18582,348.55739L557.26587,350.95793L
				555.82591,350.95793L554.86593,352.6383L555.82591,354.07862L556.78589,356.71921L557.50587,358.15953L557.26587,360.07995L556.78589,361.28022
				L557.02588,362.96059L555.10593,363.68075L553.66596,363.20065L551.74601,362.72054L550.30605,361.52027L548.62609,361.04017
				L547.18613,361.04017L547.18613,362.72054L547.42612,365.36113L546.94613,367.52161L546.22615,369.44203L545.50617,370.6423L
				544.06621,372.08262L542.86624,373.52294L541.90626,374.48315L542.62624,376.16352L543.34623,377.36379L545.26618,377.12374L
				546.94613,378.08395L548.62609,378.08395L549.10608,380.24443L549.10608,381.9248L549.34607,383.84523L547.18613,383.36512L545.98616,384.56539
				L545.26618,386.48582L543.34623,388.6463L541.66627,387.92614L540.94629,386.48582L539.50632,385.76566L538.54635,387.68608L
				538.54635,389.36646L537.10638,390.80678L535.66642,390.56672L533.74647,390.08662L532.30651,389.1264L531.10654,388.16619L530.38655,389.36646
				L529.90657,391.04683L528.7066,392.48715L526.78665,392.96726L527.26663,394.40758L526.30666,396.328L525.58668,398.00837L524.86669,399.20864
				L524.6267,401.36912L524.38671,403.76965L522.70675,406.65029L520.06682,406.41024L518.38686,406.89035L517.42688,405.20997L
				515.98692,404.24976L514.30696,403.5296L513.82697,402.08928L512.38701,400.64896L511.66703,398.96859L510.22707,396.328L510.46706,394.64763
				L510.22707,392.48715L509.74708,390.80678L508.7871,389.60651L507.10714,389.1264L505.90718,388.40624L507.58713,387.20598L509.0271,386.24576
				L508.30711,384.56539L507.10714,383.36512L505.66718,382.64496L503.74723,381.9248L501.34729,381.68475L501.34729,380.24443L
				501.82728,378.56406L502.54726,376.40358L501.82728,374.7232L500.8673,373.52294L500.38732,372.08262L504.70721,371.60251L506.62716,372.32267
				L508.7871,372.56272L509.98707,371.84256L511.42704,372.32267L512.14702,373.76299L513.58698,373.28288L515.50693,372.32267L
				517.90687,369.92214L517.90687,368.48182L516.7069,367.52161L516.7069,365.84123L517.18689,364.40091L517.90687,362.96059L519.10684,361.04017
				L519.82682,359.35979L519.82682,357.91947L519.82682,355.75899L518.62685,353.83857L517.42688,352.6383L517.18689,351.19798L
				517.66688,349.51761L518.14687,347.83723L517.90687,346.39691L517.18689,344.71654L517.18689,342.07596L519.10684,340.15553L
				519.10684,338.71521L519.58683,337.03484L520.7868,335.59452L521.26679,334.1542L522.70675,333.91414L523.66673,332.71388L524.14671,331.27356
				L524.6267,328.87302L525.34668,326.71254L525.34668,324.79212L525.34668,323.11174L524.86669,321.43137L524.86669,319.751L524.86669,317.83057
				L525.10669,315.91015L525.34668,314.22977L526.30666,312.30935L527.26663,310.62897L526.78665,308.46849L528.22661,307.74833
				L528.22661,305.58785L528.7066,304.38759L530.14656,303.18732L531.82652,302.70721L533.26648,301.50695L534.70645,301.50695L
				536.3864,301.50695L537.82637,300.30668L538.06636,298.86636L539.02634,297.66609L541.18628,297.66609L542.62624,297.42604L544.5462,297.18599
				L546.94613,297.90615L546.22615,299.34647L545.98616,301.26689L545.74617,302.70721L545.26618,304.14753L546.22615,306.06796
				L546.94613,307.26823L549.58607,306.30801L551.02603,305.82791L552.70599,305.3478z"/>
			<path clip-path="url(#SVG_CP_1)" fill="#CDE9F7" fill-rule="evenodd" stroke="#6E6E6E" stroke-width="0.47999" stroke-miterlimit="10" stroke-linecap="round" stroke-linejoin="round" d="
				M605.74464,329.35313L606.94461,331.75366L607.4246,333.43404L607.6646,334.87436L609.10456,336.55473L610.78452,337.27489L612.70447,337.51494
				L614.14443,339.19532L614.86441,340.39558L617.02436,342.07596L618.46432,345.67675L617.74434,347.59718L617.74434,349.0375L
				618.94431,350.47782L619.4243,351.91814L619.4243,353.59851L618.94431,355.27889L618.46432,356.95926L619.66429,358.63963L617.02436,360.56006
				L615.3444,361.28022L613.66444,361.52027L612.22448,362.24043L611.2645,363.4407L610.30453,364.88102L606.94461,366.08129L605.74464,364.88102
				L604.30468,363.4407L602.62472,363.20065L601.42475,362.24043L600.22478,360.80011L599.02481,359.35979L599.5048,357.67942L599.26481,355.99905
				L599.7448,354.31867L597.58485,354.31867L595.18491,354.07862L593.26496,356.95926L592.30499,358.63963L592.78497,360.80011L
				589.90505,361.52027L588.46508,361.52027L587.02512,362.48049L585.10517,363.20065L581.98525,361.04017L581.74525,359.35979L
				583.18522,358.87969L583.9052,357.67942L583.9052,355.03883L581.50526,354.07862L577.66536,352.15819L574.30544,354.07862L573.82545,355.75899
				L571.9055,356.47915L570.46554,357.91947L569.26557,359.11974L568.54559,357.43937L567.34562,356.47915L565.90565,357.19931L
				564.2257,359.11974L563.74571,361.04017L563.50572,362.96059L565.66566,364.88102L566.38564,366.80145L565.42567,368.24177L563.50572,368.48182
				L562.06575,369.20198L561.82576,371.1224L562.78573,372.32267L563.26572,373.76299L561.82576,375.20331L560.1458,374.7232L558.94583,375.92347
				L558.46584,377.60384L554.86593,376.88368L553.66596,377.60384L552.226,376.64363L550.78604,375.44336L549.10608,376.64363L548.62609,378.08395
				L546.94613,378.08395L545.26618,377.12374L543.34623,377.36379L542.62624,376.16352L541.90626,374.48315L542.86624,373.52294
				L544.06621,372.08262L545.50617,370.6423L546.22615,369.44203L546.94613,367.52161L547.42612,365.36113L547.18613,362.72054L
				547.18613,361.04017L548.62609,361.04017L550.30605,361.52027L551.74601,362.72054L553.66596,363.20065L555.10593,363.68075L
				557.02588,362.96059L556.78589,361.28022L557.26587,360.07995L557.50587,358.15953L556.78589,356.71921L555.82591,354.07862L
				554.86593,352.6383L555.82591,350.95793L557.26587,350.95793L559.18582,348.55739L561.58576,346.39691L561.82576,344.47649L563.50572,343.03617
				L565.66566,343.27622L566.86563,342.07596L569.74556,342.07596L573.34547,341.11574L574.30544,339.67542L575.50541,338.2351L
				577.18537,337.03484L578.62533,336.31468L580.0653,336.79478L580.54528,335.11441L581.50526,333.91414L582.94522,332.95393L584.14519,331.99372
				L585.34516,330.79345L586.78513,329.83324L588.22509,329.11308L590.38503,328.87302L592.54498,329.35313L594.46493,327.19265
				L595.6649,329.83324L595.90489,331.99372L596.14489,333.67409L597.34486,334.6343L599.02481,334.6343L600.70477,334.1542L602.62472,333.19398
				L604.54467,331.99372L605.74464,329.35313z"/>
			<path clip-path="url(#SVG_CP_1)" fill="#CDE9F7" fill-rule="evenodd" stroke="#6E6E6E" stroke-width="0.47999" stroke-miterlimit="10" stroke-linecap="round" stroke-linejoin="round" d="
				M444.94872,215.56787L444.46873,218.20845L445.18871,219.88882L446.86867,221.80925L448.54863,222.0493L450.22859,221.80925L
				450.70857,223.72968L450.22859,225.41005L449.98859,227.09042L450.46858,228.29069L450.70857,230.93128L450.70857,232.61165L
				452.14854,233.33181L453.5885,233.81192L454.30848,235.49229L455.50845,236.69256L457.6684,238.37293L458.86837,239.33314L460.78832,239.09309
				L462.70827,239.09309L463.90824,241.01352L464.14823,243.174L463.42825,244.61431L461.98829,245.57453L461.26831,246.77479L460.54833,247.97506
				L459.34836,248.93527L458.62837,251.33581L460.30833,251.57586L461.5083,252.77613L461.98829,254.21645L462.94826,255.65677L
				464.38823,256.61698L466.06819,257.57719L466.30818,259.73767L466.30818,261.6581L466.30818,263.33847L467.02816,265.01885L467.98814,265.97906
				L469.66809,265.2589L471.58805,264.77879L473.74799,264.29869L474.22798,266.69922L474.22798,268.8597L474.46797,270.30002L475.66794,271.50028
				L477.58789,271.26023L478.78786,272.22044L480.70781,272.4605L482.14778,273.18066L483.82774,272.4605L485.50769,271.98039L487.18765,271.50028
				L488.14763,272.9406L489.82758,272.70055L491.26755,271.74034L492.70751,272.70055L493.42749,274.38092L494.14747,276.0613L495.58744,276.5414
				L497.0274,277.26156L499.42734,277.02151L500.62731,277.98172L501.1073,280.1422L501.58728,282.06263L502.06727,283.50295L503.02725,284.70322
				L504.22722,283.2629L506.14717,283.02284L507.58713,283.743L508.30711,285.90348L508.30711,287.58386L509.26709,289.02418L510.70705,288.30402
				L512.14702,287.10375L513.82697,285.90348L514.06697,288.54407L513.82697,290.22444L514.06697,292.14487L514.78695,293.58519
				L515.26694,295.02551L515.50693,297.18599L515.02694,298.62631L513.58698,298.62631L512.14702,298.1462L510.70705,298.62631L
				509.74708,300.06663L509.50708,301.50695L509.26709,303.66743L508.7871,304.86769L508.06712,307.26823L507.82713,307.98839L509.0271,310.62897
				L510.94705,310.86903L512.38701,312.30935L513.58698,313.26956L515.50693,312.78945L517.42688,312.5494L519.10684,311.58919L
				520.5468,309.90881L521.98677,308.9486L523.42673,308.46849L525.10669,308.70855L526.78665,308.46849L527.26663,310.62897L526.30666,312.30935
				L525.34668,314.22977L525.10669,315.91015L524.86669,317.83057L524.86669,319.751L524.86669,321.43137L525.34668,323.11174L525.34668,324.79212
				L525.34668,326.71254L524.6267,328.87302L524.14671,331.27356L523.66673,332.71388L522.70675,333.91414L521.26679,334.1542L520.7868,335.59452
				L519.58683,337.03484L519.10684,338.71521L519.10684,340.15553L517.18689,342.07596L517.18689,344.71654L517.90687,346.39691
				L518.14687,347.83723L517.66688,349.51761L517.18689,351.19798L517.42688,352.6383L518.62685,353.83857L519.82682,355.75899L
				519.82682,357.91947L519.82682,359.35979L519.10684,361.04017L517.90687,362.96059L517.18689,364.40091L516.7069,365.84123L516.7069,367.52161
				L517.90687,368.48182L517.90687,369.92214L515.50693,372.32267L513.58698,373.28288L512.14702,373.76299L511.42704,372.32267
				L509.98707,371.84256L508.7871,372.56272L506.62716,372.32267L504.70721,371.60251L500.38732,372.08262L500.8673,373.52294L501.82728,374.7232
				L502.54726,376.40358L501.82728,378.56406L501.34729,380.24443L501.34729,381.68475L503.74723,381.9248L505.66718,382.64496L
				507.10714,383.36512L508.30711,384.56539L509.0271,386.24576L507.58713,387.20598L505.90718,388.40624L507.10714,389.1264L508.7871,389.60651
				L509.74708,390.80678L510.22707,392.48715L510.46706,394.64763L510.22707,396.328L508.7871,397.52827L507.58713,398.96859L506.14717,400.16885
				L504.70721,401.84923L503.02725,402.56939L502.06727,404.00971L501.1073,405.69008L501.1073,407.85056L502.30727,409.77099L502.78725,411.93147
				L501.82728,413.37179L500.62731,414.332L499.42734,416.01237L497.98738,417.69275L495.82743,418.17285L494.86746,419.13307L493.1875,419.85323
				L492.46752,420.81344L491.50754,422.49381L491.74753,428.49514L490.30757,430.41557L488.38762,430.41557L486.70766,431.37578
				L485.98768,432.09594L484.06773,431.85589L482.38777,431.85589L481.1878,432.57605L479.74784,433.53626L478.30788,434.01637L
				477.10791,433.53626L476.38792,432.09594L476.14793,430.41557L475.66794,428.49514L475.18795,426.81477L473.74799,424.41424L
				474.22798,422.97392L476.14793,422.73386L478.06788,423.45402L479.50784,424.41424L481.1878,425.37445L482.86776,425.1344L484.06773,424.17418
				L483.58774,422.25376L482.62777,420.81344L481.90778,419.61317L480.70781,418.89301L479.26785,418.41291L477.82789,417.21264
				L476.14793,416.73253L475.66794,415.29221L473.98798,415.77232L472.30803,415.53227L470.86806,414.81211L469.18811,414.09195
				L467.02816,414.09195L465.5882,413.61184L465.82819,411.45136L465.82819,410.01104L465.10821,408.57072L463.90824,407.1304L464.14823,405.45003
				L464.86822,403.76965L465.3482,401.60917L464.62822,399.44869L463.18826,398.00837L463.66825,396.328L463.66825,394.64763L463.18826,392.7272
				L461.98829,391.52694L462.46828,389.60651L461.5083,388.40624L460.30833,387.44603L457.6684,388.40624L456.46843,389.60651L455.02847,391.28688
				L453.34851,392.00704L453.10851,390.32667L452.62853,387.92614L450.46858,388.6463L448.78862,389.60651L446.86867,389.84656L
				445.9087,391.76699L447.34866,392.48715L449.02862,393.68742L448.78862,395.12773L447.34866,395.36779L445.6687,394.16752L443.02877,393.44736
				L440.62883,393.68742L439.66885,394.88768L438.22889,396.80811L436.54893,397.28821L435.10897,396.328L433.66901,397.04816L434.14899,398.48848
				L434.86898,400.40891L435.10897,402.08928L435.82895,404.48981L436.30894,406.41024L435.58896,408.33067L433.909,408.33067L432.94902,409.53093
				L431.02907,409.29088L431.26907,410.97125L432.70903,411.69141L433.18902,413.13173L432.70903,415.29221L434.14899,416.73253
				L432.70903,417.9328L431.98905,419.61317L431.74906,420.81344L430.54909,422.0137L429.34912,423.21397L428.38914,424.65429L427.42916,426.81477
				L426.46919,428.25509L425.9892,429.69541L427.18917,431.13573L427.18917,433.05616L425.50921,434.01637L424.78923,436.17685L
				425.02923,437.85722L425.9892,440.0177L426.70918,442.17818L427.18917,444.33866L427.18917,446.01903L425.74921,446.97925L423.34927,446.73919
				L421.66931,446.97925L419.98935,448.17951L418.3094,449.13973L416.38944,449.13973L415.42947,449.61983L415.42947,449.37978L
				412.78954,446.73919L409.66962,441.93813L409.42962,436.65696L409.66962,436.4169L411.82956,436.4169L413.50952,436.65696L414.46949,434.97658
				L416.14945,432.8161L415.18948,432.09594L415.18948,430.89568L415.66946,430.65562L414.46949,428.25509L414.2295,427.53493L413.26952,427.77498
				L412.54954,427.53493L411.82956,427.05482L412.06955,425.6145L410.1496,423.45402L409.42962,421.5336L408.22965,419.85323L408.22965,418.17285
				L408.22965,417.45269L407.50967,416.25243L407.02968,414.81211L405.82971,412.17152L404.86974,412.65163L402.70979,415.05216
				L401.50982,415.53227L402.2298,413.13173L399.10988,407.61051L397.18993,406.17019L397.90991,403.28955L397.42993,402.08928L
				397.18993,399.9288L395.26998,400.64896L392.15006,403.28955L392.15006,406.17019L391.43008,406.89035L390.4701,407.61051L389.75012,407.85056
				L388.79014,409.29088L387.83017,412.41157L385.91022,414.09195L383.27028,415.77232L381.83032,415.77232L380.15036,416.97259
				L380.39036,419.37312L380.39036,423.21397L379.91037,425.85456L379.91037,428.97525L379.19039,432.57605L377.99042,434.73653
				L377.75042,434.49648L376.55045,433.53626L375.11049,430.89568L372.23056,424.17418L370.7906,418.89301L371.75058,414.81211L
				371.03059,409.77099L369.83062,404.00971L369.83062,398.72853L369.83062,397.28821L370.7906,394.64763L370.55061,392.48715L371.75058,388.40624
				L370.7906,384.32534L370.7906,380.48448L371.27059,378.80411L370.7906,377.36379L369.35064,375.20331L369.11064,374.48315L370.07062,372.56272
				L370.07062,371.60251L369.11064,369.44203L369.83062,367.0415L369.59063,365.84123L369.11064,364.88102L368.63066,362.96059L
				369.11064,362.00038L368.15067,359.11974L367.43069,358.39958L366.47071,356.2391L366.9507,352.15819L367.43069,351.19798L368.63066,349.75766
				L368.87065,348.55739L371.51058,342.55606L371.75058,341.11574L370.31061,332.47382L369.35064,330.5534L369.59063,325.99238L
				368.63066,324.55206L368.63066,323.3518L369.35064,322.15153L369.59063,321.19132L369.35064,320.95126L369.11064,318.07063L369.11064,316.87036
				L369.59063,316.1502L369.11064,313.26956L367.67068,311.10908L368.39066,306.78812L368.15067,305.10775L366.47071,303.18732L
				367.19069,301.26689L367.91067,300.54673L369.59063,299.58652L370.31061,298.62631L370.31061,297.42604L369.11064,295.74567L
				368.15067,294.78545L367.43069,293.82524L366.23072,291.90482L363.59078,289.98439L362.8708,289.26423L363.83078,286.14354L363.83078,284.22311
				L362.8708,282.78279L361.19084,281.82258L360.23087,280.1422L360.23087,279.18199L360.23087,276.78146L356.39097,274.14087L356.39097,272.70055
				L356.63096,271.26023L356.63096,269.81991L357.11095,269.57986L357.35094,267.41938L357.83093,266.45917L358.55091,266.21911
				L360.23087,266.45917L360.95085,267.17933L361.43084,268.13954L363.35079,269.81991L364.55076,269.57986L365.27074,269.3398L
				366.47071,267.17933L368.15067,265.49895L368.15067,264.77879L367.91067,263.09842L367.67068,262.85837L365.75073,260.69789L
				363.59078,258.0573L360.47086,255.65677L359.99087,254.4565L356.87095,251.57586L355.67098,248.93527L355.191,246.53474L353.99103,244.61431
				L351.35109,241.97373L350.15112,241.73368L349.91113,239.09309L348.23117,237.17266L348.23117,235.9724L350.39112,234.77213L
				350.63111,231.41138L350.39112,230.21112L346.31122,225.41005L345.59124,222.0493L342.23132,217.9684L342.71131,211.96707L341.75134,211.00685
				L341.03136,210.52675L340.31137,210.04664L339.59139,209.56653L338.39142,209.56653L336.95146,208.36627L335.99148,207.40605
				L335.03151,206.20579L333.83154,206.20579L333.11156,206.44584L330.95161,205.72568L329.99163,205.24557L327.5917,203.32515L
				326.63172,201.64477L323.5118,200.20445L322.07184,198.76413L319.91189,197.32381L318.71192,196.60365L317.99194,195.40339L317.03196,193.48296
				L315.11201,191.08243L314.15204,190.60232L311.5121,189.64211L309.35216,187.24158L308.63218,186.04131L308.39218,184.36094L
				309.59215,182.92062L308.87217,181.00019L308.39218,180.03998L306.71223,178.83971L309.11216,176.43918L311.27211,175.23891L
				314.15204,175.47896L315.83199,175.71902L316.07199,175.71902L316.07199,174.51875L315.592,173.55854L316.31198,173.31848L316.79197,172.59832
				L316.55198,172.11822L316.07199,171.39806L314.87202,169.95774L315.11201,167.79726L317.03196,166.11689L318.23193,165.15667
				L319.91189,162.99619L321.83184,160.11555L323.75179,157.23491L328.07168,154.59433L326.15173,153.63411L323.27181,152.91395
				L322.55182,151.47363L319.6719,150.99353L317.99194,150.51342L317.03196,145.95241L314.15204,143.79193L315.592,141.3914L314.63202,136.59033
				L313.43205,133.46964L313.91204,132.74948L315.11201,132.50942L315.592,132.50942L319.4319,129.62878L321.11186,129.86884L325.43175,129.62878
				L326.39173,126.9882L327.11171,125.06777L328.55167,124.34761L330.47162,125.78793L331.91159,126.26804L331.67159,128.18846L
				331.4316,131.30916L334.07153,132.02932L336.47147,130.589L338.39142,129.38873L341.99133,128.90862L346.55122,128.66857L351.35109,129.62878
				L352.79106,131.78926L352.55106,134.1898L354.23102,134.42985L356.15097,133.94974L356.87095,135.39006L357.83093,135.15001L
				359.99087,134.90996L362.15082,136.11022L363.83078,139.23092L366.47071,142.59166L367.91067,144.51209L366.7107,146.67257L368.15067,149.79326
				L368.87065,152.6739L369.59063,155.07443L370.55061,157.23491L371.75058,163.4763L370.31061,165.15667L373.43053,169.23758L372.95055,171.158
				L376.55045,173.79859L379.67038,177.39939L380.39036,177.15934L381.59033,176.43918L383.51028,177.39939L386.6302,178.83971L
				390.23011,182.20046L391.19008,185.0811L391.67007,186.52142L392.87004,188.44184L394.78999,188.20179L395.26998,189.162L395.98996,190.60232
				L397.42993,194.20312L401.02983,196.84371L402.2298,197.56387L404.38975,197.56387L405.82971,198.76413L406.54969,198.52408L
				406.54969,196.3636L408.70964,195.40339L409.90961,198.04397L412.78954,200.92461L415.18948,200.68456L416.62944,199.48429L416.14945,196.12355
				L417.58941,192.04264L421.9093,191.32248L422.1493,190.84238L423.58926,187.96174L425.50921,187.96174L424.54924,190.12222L425.9892,191.32248
				L427.18917,191.32248L427.42916,193.00286L428.14915,195.88349L428.62913,198.52408L427.18917,200.92461L428.86913,204.76547
				L431.26907,205.24557L432.22904,204.52541L432.22904,202.60499L433.66901,199.9644L434.38899,198.04397L437.50891,199.24424L
				440.62883,198.28403L443.98875,201.40472L445.6687,205.00552L446.86867,206.92595L444.22874,210.04664L441.8288,213.16733L443.98875,215.56787
				L444.94872,215.56787z"/>
			<path clip-path="url(#SVG_CP_1)" fill="#CDE9F7" fill-rule="evenodd" stroke="#6E6E6E" stroke-width="0.47999" stroke-miterlimit="10" stroke-linecap="round" stroke-linejoin="round" d="
				M713.50191,205.72568L713.74191,208.12621L714.22189,209.56653L714.22189,211.00685L713.74191,212.68723L713.26192,214.3676L
				714.46189,215.56787L715.90185,217.00819L716.14185,218.68856L715.90185,220.84904L715.66186,222.28936L716.14185,223.72968L
				717.58181,224.92994L719.26177,225.89016L717.8218,226.85037L716.86183,228.05064L715.18187,229.2509L713.9819,230.21112L712.78193,230.69122
				L711.10197,231.41138L710.142,232.8517L710.38199,234.53208L711.34197,236.21245L710.62199,237.65277L709.18202,238.61298L708.22205,239.81325
				L707.98205,241.25357L707.74206,242.69389L706.3021,242.93394L705.58211,246.05463L704.86213,247.49495L704.14215,249.41538L
				703.90216,251.09575L701.74221,251.09575L700.06225,251.81591L698.62229,253.01618L697.66231,253.97639L695.74236,254.21645L
				694.54239,252.05597L691.66247,253.25623L691.90246,254.93661L690.94248,256.61698L689.50252,258.0573L688.30255,259.25757L686.86259,259.49762
				L685.42262,260.21778L683.74267,261.41805L682.3027,262.13821L680.38275,261.89815L680.14276,263.57853L678.4628,262.61831L677.50283,261.17799
				L677.02284,259.25757L676.78284,257.57719L674.86289,256.61698L674.3829,258.0573L673.90292,260.45783L673.42293,262.13821L673.42293,263.57853
				L671.02299,263.33847L669.34303,265.97906L667.42308,265.2589L665.74312,265.73901L664.30316,265.2589L663.10319,266.21911L662.14321,267.41938
				L660.46326,266.45917L659.98327,265.01885L658.7833,264.05863L657.58333,262.13821L657.34334,260.45783L657.34334,258.77746L
				655.66338,258.53741L654.46341,257.57719L655.18339,256.13687L655.42338,254.21645L653.50343,253.73634L653.02345,252.53607L
				652.06347,251.09575L651.82348,249.41538L651.10349,248.21511L651.10349,246.53474L650.62351,244.85437L650.14352,242.69389L
				651.58348,241.49362L653.50343,241.25357L653.50343,239.33314L654.46341,236.69256L655.42338,235.73234L653.50343,234.77213L
				653.98342,232.61165L653.74343,230.93128L653.74343,229.2509L653.02345,227.81058L652.54346,226.37026L649.42354,226.61032L647.98357,226.61032
				L646.30362,227.09042L645.10365,228.05064L643.1837,229.01085L641.26374,229.73101L641.02375,227.81058L639.82378,225.89016L
				638.62381,224.68989L636.46387,223.72968L634.78391,223.96973L633.34394,223.24957L631.90398,222.0493L631.42399,220.12888L631.66399,217.9684
				L631.66399,216.28803L630.70401,214.84771L629.26405,213.88749L628.06408,213.16733L626.86411,212.44717L626.14413,210.7668L
				626.62412,207.88616L627.3441,207.88616L630.46402,210.04664L635.2639,209.32648L638.38382,212.44717L643.66368,209.80659L644.14367,210.52675
				L646.54361,211.72701L650.62351,209.08643L653.74343,209.80659L654.9434,209.80659L657.34334,207.40605L661.42323,204.28536L
				662.38321,203.32515L660.70325,202.60499L659.98327,202.84504L659.26329,199.48429L659.50328,198.76413L660.70325,196.12355L
				663.34318,195.64344L663.82317,195.88349L663.58318,198.76413L663.82317,201.16467L665.02314,203.08509L666.94309,206.20579L
				668.62305,205.96573L669.82302,205.72568L671.02299,205.24557L674.14291,204.28536L676.30286,203.5652L677.98281,201.40472L677.74282,199.9644
				L678.70279,199.9644L681.10273,200.20445L683.50267,199.9644L686.62259,199.24424L688.54255,198.76413L689.98251,200.68456L689.26253,202.36493
				L689.02253,203.32515L691.66247,205.24557L695.74236,207.40605L699.10228,207.64611L699.58227,207.64611L703.42217,210.04664
				L706.0621,209.08643L707.02208,207.64611L710.142,207.166L710.38199,207.166L713.26192,205.96573L713.50191,205.72568z"/>
			<path clip-path="url(#SVG_CP_1)" fill="#CDE9F7" fill-rule="evenodd" stroke="#6E6E6E" stroke-width="0.47999" stroke-miterlimit="10" stroke-linecap="round" stroke-linejoin="round" d="
				M744.94112,213.64744L747.34105,213.40739L748.30103,215.08776L747.34105,218.68856L748.06104,220.36893L749.501,221.08909L754.30088,219.88882
				L758.62077,220.60898L761.2607,223.24957L761.98068,224.20978L761.02071,227.33048L761.02071,229.2509L760.54072,230.93128L759.10076,231.17133
				L757.4208,231.89149L758.14078,233.81192L759.34075,235.01218L760.78071,235.73234L762.22068,236.21245L763.66064,237.41272L
				762.70067,238.85304L761.02071,240.29336L758.86076,240.77346L756.94081,241.25357L755.50085,241.73368L755.02086,243.174L754.78087,244.85437
				L754.30088,246.53474L753.10091,247.2549L752.14093,248.69522L754.78087,250.13554L755.02086,252.05597L754.54087,253.25623L
				753.10091,254.69655L752.38093,256.61698L753.3409,258.29735L754.06088,259.49762L752.62092,260.93794L750.94096,262.61831L749.501,263.81858
				L748.06104,265.01885L746.38108,266.69922L745.18111,268.37959L743.74115,269.09975L742.78117,270.54007L741.34121,271.02018
				L739.42126,271.74034L738.46128,273.18066L737.5013,275.10108L736.06134,276.5414L734.62138,275.58119L733.18141,276.30135L732.46143,278.22178
				L730.78147,280.1422L729.34151,277.98172L729.10152,276.5414L727.66155,275.58119L726.94157,274.38092L725.7416,273.42071L725.50161,271.74034
				L725.26161,270.30002L724.30164,268.61965L723.82165,266.69922L722.14169,266.45917L720.70173,265.97906L719.02177,265.01885
				L717.34182,265.01885L715.66186,264.05863L714.94188,265.73901L715.42186,267.17933L714.46189,268.37959L713.02192,268.13954
				L711.82196,267.17933L710.62199,265.97906L708.94203,265.49895L707.26207,264.05863L706.78208,262.61831L705.58211,261.89815
				L704.62214,260.45783L703.42217,259.25757L703.42217,257.57719L704.38214,256.13687L704.14215,254.21645L703.90216,251.09575
				L704.14215,249.41538L704.86213,247.49495L705.58211,246.05463L706.3021,242.93394L707.74206,242.69389L707.98205,241.25357L
				708.22205,239.81325L709.18202,238.61298L710.62199,237.65277L711.34197,236.21245L710.38199,234.53208L710.142,232.8517L711.10197,231.41138
				L712.78193,230.69122L713.9819,230.21112L715.18187,229.2509L716.86183,228.05064L717.8218,226.85037L719.26177,225.89016L717.58181,224.92994
				L716.14185,223.72968L715.66186,222.28936L715.90185,220.84904L716.14185,218.68856L715.90185,217.00819L714.46189,215.56787
				L713.26192,214.3676L713.74191,212.68723L714.22189,211.00685L714.22189,209.56653L713.74191,208.12621L713.50191,205.72568L
				717.58181,204.28536L719.26177,205.24557L721.18172,205.96573L722.62168,205.72568L732.22144,204.76547L733.42141,208.12621L
				731.98144,210.7668L731.74145,214.60765L731.74145,216.04797L734.62138,216.04797L735.58135,215.80792L735.58135,218.4485L739.90124,220.12888
				L740.62123,219.40872L741.5812,217.00819L742.78117,214.3676L744.94112,213.64744z"/>
			<path clip-path="url(#SVG_CP_1)" fill="#CDE9F7" fill-rule="evenodd" stroke="#6E6E6E" stroke-width="0.47999" stroke-miterlimit="10" stroke-linecap="round" stroke-linejoin="round" d="
				M703.90216,251.09575L704.14215,254.21645L704.38214,256.13687L703.42217,257.57719L703.42217,259.25757L704.62214,260.45783
				L705.58211,261.89815L706.78208,262.61831L707.26207,264.05863L708.94203,265.49895L710.62199,265.97906L711.82196,267.17933
				L713.02192,268.13954L714.46189,268.37959L715.42186,267.17933L714.94188,265.73901L715.66186,264.05863L717.34182,265.01885
				L719.02177,265.01885L720.70173,265.97906L722.14169,266.45917L723.82165,266.69922L724.30164,268.61965L725.26161,270.30002
				L725.50161,271.74034L725.7416,273.42071L726.94157,274.38092L727.66155,275.58119L729.10152,276.5414L729.34151,277.98172L730.78147,280.1422
				L729.34151,282.54274L729.34151,284.70322L729.58151,286.38359L728.62153,287.82391L727.18157,289.02418L726.22159,290.22444
				L724.78163,291.90482L724.06164,293.58519L723.34166,295.50561L721.9017,296.22577L720.22174,296.70588L719.98175,298.62631L
				718.0618,299.34647L717.8218,301.02684L717.58181,302.94727L715.66186,302.70721L714.46189,303.42737L715.18187,305.10775L714.22189,306.78812
				L713.26192,307.74833L711.58196,308.9486L710.142,307.74833L707.98205,307.98839L706.78208,309.90881L704.86213,310.86903L703.18217,310.14887
				L701.74221,311.34913L700.30225,310.62897L698.62229,311.34913L696.70234,310.62897L695.50237,312.06929L695.50237,314.22977
				L694.78239,316.39025L694.06241,317.83057L693.10243,319.27089L690.70249,320.2311L689.26253,321.67142L687.58257,321.67142L
				685.42262,321.91148L683.74267,322.15153L680.62275,322.63164L680.86274,320.95126L681.58272,319.27089L680.62275,317.59052L
				681.34273,316.1502L680.14276,314.70988L678.70279,314.46983L678.4628,312.78945L678.22281,311.34913L677.98281,309.66876L677.50283,307.50828
				L677.50283,306.06796L676.54285,304.38759L675.58287,302.94727L675.58287,300.54673L671.26298,299.82657L671.02299,298.1462L
				670.06301,296.94593L671.02299,295.50561L672.70295,295.02551L674.3829,293.82524L674.6229,291.90482L674.14291,289.74434L674.3829,288.06396
				L673.42293,286.8637L672.46295,285.42338L672.22296,283.02284L671.26298,281.82258L670.30301,280.62231L668.86304,279.18199L
				670.06301,277.98172L671.02299,276.5414L670.543,274.86103L669.10304,275.10108L667.18309,275.58119L665.74312,275.34114L665.02314,273.90082
				L664.54315,272.22044L662.14321,268.8597L662.14321,267.41938L663.10319,266.21911L664.30316,265.2589L665.74312,265.73901L667.42308,265.2589
				L669.34303,265.97906L671.02299,263.33847L673.42293,263.57853L673.42293,262.13821L673.90292,260.45783L674.3829,258.0573L674.86289,256.61698
				L676.78284,257.57719L677.02284,259.25757L677.50283,261.17799L678.4628,262.61831L680.14276,263.57853L680.38275,261.89815L
				682.3027,262.13821L683.74267,261.41805L685.42262,260.21778L686.86259,259.49762L688.30255,259.25757L689.50252,258.0573L690.94248,256.61698
				L691.90246,254.93661L691.66247,253.25623L694.54239,252.05597L695.74236,254.21645L697.66231,253.97639L698.62229,253.01618
				L700.06225,251.81591L701.74221,251.09575L703.90216,251.09575z"/>
			<path clip-path="url(#SVG_CP_1)" fill="#CDE9F7" fill-rule="evenodd" stroke="#6E6E6E" stroke-width="0.47999" stroke-miterlimit="10" stroke-linecap="round" stroke-linejoin="round" d="
				M610.78452,196.60365L611.5045,199.48429L616.06438,202.36493L619.1843,204.28536L623.50419,205.24557L625.42415,206.44584L626.62412,207.88616
				L626.14413,210.7668L626.86411,212.44717L628.06408,213.16733L629.26405,213.88749L630.70401,214.84771L631.66399,216.28803L
				631.66399,217.9684L631.42399,220.12888L631.90398,222.0493L633.34394,223.24957L634.78391,223.96973L636.46387,223.72968L638.62381,224.68989
				L639.82378,225.89016L641.02375,227.81058L641.26374,229.73101L643.1837,229.01085L645.10365,228.05064L646.30362,227.09042L
				647.98357,226.61032L649.42354,226.61032L652.54346,226.37026L653.02345,227.81058L653.74343,229.2509L653.74343,230.93128L653.98342,232.61165
				L653.50343,234.77213L655.42338,235.73234L654.46341,236.69256L653.50343,239.33314L653.50343,241.25357L651.58348,241.49362
				L650.14352,242.69389L650.62351,244.85437L651.10349,246.53474L651.10349,248.21511L651.82348,249.41538L652.06347,251.09575
				L653.02345,252.53607L653.50343,253.73634L655.42338,254.21645L655.18339,256.13687L654.46341,257.57719L655.66338,258.53741
				L657.34334,258.77746L657.34334,260.45783L657.58333,262.13821L658.7833,264.05863L659.98327,265.01885L660.46326,266.45917L
				662.14321,267.41938L662.14321,268.8597L664.54315,272.22044L665.02314,273.90082L665.74312,275.34114L667.18309,275.58119L669.10304,275.10108
				L670.543,274.86103L671.02299,276.5414L670.06301,277.98172L668.86304,279.18199L670.30301,280.62231L671.26298,281.82258L672.22296,283.02284
				L672.46295,285.42338L673.42293,286.8637L674.3829,288.06396L674.14291,289.74434L674.6229,291.90482L674.3829,293.82524L672.70295,295.02551
				L671.02299,295.50561L669.34303,295.26556L667.66307,295.02551L666.22311,293.82524L664.78315,292.62498L663.34318,291.90482
				L661.42323,291.42471L660.22326,290.22444L659.50328,288.78412L658.7833,287.3438L656.86335,287.3438L654.9434,288.06396L655.18339,289.74434
				L653.02345,290.22444L651.34349,290.9446L650.38351,292.62498L650.38351,294.30535L650.8635,296.22577L651.10349,297.90615L650.8635,300.78679
				L651.82348,301.98705L652.78345,303.42737L653.50343,304.86769L654.46341,306.78812L654.46341,308.46849L653.26344,309.42871
				L651.58348,309.66876L650.14352,309.18865L647.98357,308.22844L646.54361,307.74833L644.86365,307.50828L642.9437,306.78812L
				642.22372,305.3478L642.22372,303.66743L641.74373,302.22711L640.30377,301.747L639.82378,300.30668L639.34379,298.62631L637.90383,297.90615
				L636.22387,297.42604L635.0239,295.98572L634.30392,294.5454L633.82393,293.34514L632.62396,291.42471L631.90398,289.74434L632.14398,288.06396
				L631.184,286.62364L629.98403,285.42338L629.74404,283.2629L628.78406,281.58252L627.3441,280.62231L627.1041,278.70188L626.14413,277.50162
				L624.70416,277.02151L623.98418,275.58119L623.2642,274.38092L621.82424,273.42071L620.38427,271.74034L619.1843,274.62098L617.74434,275.58119
				L615.82439,275.58119L614.38443,275.82124L612.94446,274.86103L611.98449,273.42071L610.78452,272.4605L609.10456,271.26023L
				607.4246,269.81991L606.22463,268.8597L604.78467,267.41938L604.06469,266.21911L603.82469,264.77879L603.34471,263.33847L602.62472,260.69789
				L602.38473,258.77746L604.06469,257.57719L605.02466,256.61698L604.78467,254.69655L603.10471,253.49629L602.38473,252.05597
				L600.46478,251.57586L599.02481,251.09575L597.10486,250.13554L595.6649,249.41538L595.42491,247.73501L594.70492,246.29469L
				592.78497,246.29469L591.10502,246.53474L589.66505,246.05463L587.98509,246.05463L586.54513,245.09442L586.30514,243.41405L
				587.26511,241.97373L588.46508,240.77346L589.90505,239.81325L589.90505,237.65277L589.18506,235.73234L591.10502,235.49229L
				592.06499,234.29202L594.46493,234.53208L595.90489,234.77213L597.58485,235.49229L598.78482,236.21245L600.46478,235.73234L
				602.14474,236.21245L603.82469,235.25224L605.26466,234.53208L605.74464,232.8517L606.94461,232.13154L608.62457,231.65144L607.90459,229.97106
				L607.18461,228.7708L607.18461,227.33048L605.50465,227.57053L604.78467,229.01085L604.30468,230.45117L602.86472,231.17133L
				600.94477,230.93128L599.26481,229.73101L598.30483,228.7708L597.34486,227.33048L595.6649,226.61032L594.22494,225.6501L593.50495,224.44984
				L593.50495,222.28936L593.98494,220.12888L593.98494,218.20845L593.74495,216.76813L593.02497,215.32781L592.06499,213.88749
				L591.10502,212.92728L591.10502,211.00685L593.02497,209.80659L595.18491,209.32648L596.62488,209.08643L598.30483,208.84637
				L599.7448,209.32648L600.94477,211.00685L601.42475,212.20712L602.38473,213.88749L603.10471,215.08776L603.34471,217.00819L
				602.38473,218.4485L604.78467,218.68856L605.26466,217.24824L605.50465,214.84771L605.50465,213.40739L605.50465,211.48696L605.50465,210.28669
				L605.74464,208.60632L605.02466,206.68589L603.82469,205.00552L604.30468,203.5652L604.06469,201.40472L602.62472,200.20445L
				602.14474,199.00419L600.46478,199.00419L599.26481,199.9644L597.58485,200.44451L596.38488,199.48429L597.58485,197.80392L596.86487,196.60365
				L596.62488,193.96307L597.10486,192.04264L597.34486,190.60232L597.10486,188.92195L598.78482,188.6819L599.98479,189.88216L
				601.42475,190.36227L602.86472,190.84238L604.54467,192.7628L605.50465,193.96307L607.18461,195.40339L608.62457,196.3636L610.78452,196.60365
				z"/>
			<path clip-path="url(#SVG_CP_1)" fill="#CDE9F7" fill-rule="evenodd" stroke="#6E6E6E" stroke-width="0.47999" stroke-miterlimit="10" stroke-linecap="round" stroke-linejoin="round" d="
				M650.14352,309.18865L649.90352,310.86903L649.66353,312.5494L648.94355,313.74967L647.74358,315.18999L647.26359,316.63031L
				646.54361,318.07063L645.34364,318.79079L643.1837,319.751L641.74373,320.47116L640.78376,318.79079L640.54376,317.35047L639.58379,315.91015
				L638.14382,315.43004L636.70386,315.43004L635.2639,316.1502L633.82393,316.63031L633.58394,314.94993L633.82393,312.5494L632.38397,310.86903
				L631.184,309.18865L630.22402,307.74833L629.02405,306.30801L628.06408,305.10775L626.62412,304.14753L624.94416,302.94727L623.02421,302.22711
				L621.34425,301.50695L620.62427,300.06663L619.1843,298.38625L617.02436,298.62631L615.10441,298.62631L613.90444,299.10641L
				612.22448,300.06663L610.06453,300.54673L608.38458,300.78679L606.46463,300.78679L604.78467,300.54673L604.06469,299.10641L
				604.54467,297.18599L604.30468,295.50561L602.14474,292.86503L600.94477,291.90482L599.5048,290.70455L598.54483,289.02418L598.06484,286.8637
				L597.34486,285.18332L595.6649,284.94327L594.46493,284.22311L593.98494,282.78279L593.26496,281.34247L592.78497,279.90215L
				593.26496,277.98172L593.74495,276.30135L593.50495,274.86103L592.54498,273.90082L590.38503,273.42071L588.94507,272.70055L
				588.22509,270.78012L588.70508,269.3398L589.66505,268.13954L590.86502,265.49895L592.30499,263.57853L594.22494,262.13821L595.42491,260.93794
				L597.34486,259.49762L598.78482,259.01751L600.22478,258.77746L602.38473,258.77746L602.62472,260.69789L603.34471,263.33847
				L603.82469,264.77879L604.06469,266.21911L604.78467,267.41938L606.22463,268.8597L607.4246,269.81991L609.10456,271.26023L610.78452,272.4605
				L611.98449,273.42071L612.94446,274.86103L614.38443,275.82124L615.82439,275.58119L617.74434,275.58119L619.1843,274.62098L
				620.38427,271.74034L621.82424,273.42071L623.2642,274.38092L623.98418,275.58119L624.70416,277.02151L626.14413,277.50162L627.1041,278.70188
				L627.3441,280.62231L628.78406,281.58252L629.74404,283.2629L629.98403,285.42338L631.184,286.62364L632.14398,288.06396L631.90398,289.74434
				L632.62396,291.42471L633.82393,293.34514L634.30392,294.5454L635.0239,295.98572L636.22387,297.42604L637.90383,297.90615L639.34379,298.62631
				L639.82378,300.30668L640.30377,301.747L641.74373,302.22711L642.22372,303.66743L642.22372,305.3478L642.9437,306.78812L644.86365,307.50828
				L646.54361,307.74833L647.98357,308.22844L650.14352,309.18865z"/>
			<path clip-path="url(#SVG_CP_1)" fill="#CDE9F7" fill-rule="evenodd" stroke="#6E6E6E" stroke-width="0.47999" stroke-miterlimit="10" stroke-linecap="round" stroke-linejoin="round" d="
				M635.2639,316.1502L636.46387,317.83057L637.42384,319.03084L637.18385,320.95126L636.70386,322.63164L634.06393,321.67142L632.14398,321.67142
				L630.70401,321.43137L629.74404,320.2311L628.30407,319.51094L628.06408,317.59052L627.58409,315.91015L626.14413,315.91015L
				624.70416,315.18999L622.78421,314.46983L621.10426,315.43004L619.90429,316.63031L617.02436,317.11041L615.3444,319.27089L615.3444,320.71121
				L615.3444,322.15153L613.90444,323.11174L612.22448,322.63164L611.2645,321.67142L609.82454,321.67142L609.10456,323.11174L608.38458,324.55206
				L607.18461,325.99238L606.22463,327.91281L605.74464,329.35313L604.54467,331.99372L602.62472,333.19398L600.70477,334.1542L
				599.02481,334.6343L597.34486,334.6343L596.14489,333.67409L595.90489,331.99372L595.6649,329.83324L594.46493,327.19265L592.54498,329.35313
				L590.38503,328.87302L588.22509,329.11308L586.78513,329.83324L585.34516,330.79345L584.14519,331.99372L582.94522,332.95393
				L581.50526,333.91414L580.54528,335.11441L580.0653,336.79478L578.62533,336.31468L577.18537,337.03484L575.50541,338.2351L574.30544,339.67542
				L573.34547,341.11574L569.74556,342.07596L566.86563,342.07596L567.82561,340.39558L567.58561,338.47516L567.58561,336.79478
				L567.34562,335.11441L565.18567,334.6343L562.06575,333.43404L561.58576,334.87436L560.1458,335.83457L558.94583,334.39425L557.02588,335.35446
				L556.0659,336.07462L554.38595,336.07462L553.66596,334.1542L553.18598,332.47382L554.38595,330.5534L555.82591,328.87302L556.54589,327.4327
				L557.50587,325.75233L558.46584,324.07196L559.66581,322.39158L560.38579,320.95126L560.38579,319.51094L560.62579,317.83057
				L558.94583,316.87036L557.50587,316.1502L556.78589,314.46983L556.78589,312.30935L556.54589,311.10908L555.82591,309.18865L
				554.86593,307.98839L553.90596,306.78812L552.70599,305.3478L553.90596,304.14753L555.34592,304.14753L557.02588,304.62764L558.22585,303.66743
				L559.66581,302.70721L561.82576,302.94727L563.50572,303.42737L565.18567,303.90748L567.10562,302.70721L568.78558,301.98705
				L570.46554,301.50695L571.9055,299.58652L572.86548,298.1462L574.54544,296.22577L575.26542,294.5454L575.02542,293.10508L575.50541,291.66476
				L575.9854,290.4645L576.70538,288.78412L577.42536,287.58386L577.90535,285.42338L578.38534,283.743L577.66536,281.82258L578.14534,280.1422
				L577.90535,278.46183L577.66536,276.78146L579.34531,276.30135L581.26526,276.30135L585.58516,273.90082L588.22509,270.78012
				L588.94507,272.70055L590.38503,273.42071L592.54498,273.90082L593.50495,274.86103L593.74495,276.30135L593.26496,277.98172
				L592.78497,279.90215L593.26496,281.34247L593.98494,282.78279L594.46493,284.22311L595.6649,284.94327L597.34486,285.18332L
				598.06484,286.8637L598.54483,289.02418L599.5048,290.70455L600.94477,291.90482L602.14474,292.86503L604.30468,295.50561L604.54467,297.18599
				L604.06469,299.10641L604.78467,300.54673L606.46463,300.78679L608.38458,300.78679L610.06453,300.54673L612.22448,300.06663
				L613.90444,299.10641L615.10441,298.62631L617.02436,298.62631L619.1843,298.38625L620.62427,300.06663L621.34425,301.50695L
				623.02421,302.22711L624.94416,302.94727L626.62412,304.14753L628.06408,305.10775L629.02405,306.30801L630.22402,307.74833L
				631.184,309.18865L632.38397,310.86903L633.82393,312.5494L633.58394,314.94993L633.82393,316.63031L635.2639,316.1502z"/>
			<path clip-path="url(#SVG_CP_1)" fill="#CDE9F7" fill-rule="evenodd" stroke="#6E6E6E" stroke-width="0.47999" stroke-miterlimit="10" stroke-linecap="round" stroke-linejoin="round" d="
				M610.78452,196.60365L608.62457,196.3636L607.18461,195.40339L605.50465,193.96307L604.54467,192.7628L602.86472,190.84238L601.42475,190.36227
				L599.98479,189.88216L598.78482,188.6819L597.10486,188.92195L597.34486,190.60232L597.10486,192.04264L596.62488,193.96307L
				596.86487,196.60365L597.58485,197.80392L596.38488,199.48429L597.58485,200.44451L599.26481,199.9644L600.46478,199.00419L602.14474,199.00419
				L602.62472,200.20445L604.06469,201.40472L604.30468,203.5652L603.82469,205.00552L605.02466,206.68589L605.74464,208.60632L
				605.50465,210.28669L605.50465,211.48696L605.50465,213.40739L605.50465,214.84771L605.26466,217.24824L604.78467,218.68856L
				602.38473,218.4485L603.34471,217.00819L603.10471,215.08776L602.38473,213.88749L601.42475,212.20712L600.94477,211.00685L599.7448,209.32648
				L598.30483,208.84637L596.62488,209.08643L595.18491,209.32648L593.02497,209.80659L591.10502,211.00685L591.10502,212.92728
				L592.06499,213.88749L593.02497,215.32781L593.74495,216.76813L593.98494,218.20845L593.98494,220.12888L593.50495,222.28936
				L593.50495,224.44984L594.22494,225.6501L595.6649,226.61032L597.34486,227.33048L598.30483,228.7708L599.26481,229.73101L600.94477,230.93128
				L602.86472,231.17133L604.30468,230.45117L604.78467,229.01085L605.50465,227.57053L607.18461,227.33048L607.18461,228.7708L
				607.90459,229.97106L608.62457,231.65144L606.94461,232.13154L605.74464,232.8517L605.26466,234.53208L603.82469,235.25224L602.14474,236.21245
				L600.46478,235.73234L598.78482,236.21245L597.58485,235.49229L595.90489,234.77213L594.46493,234.53208L592.06499,234.29202
				L591.10502,235.49229L589.18506,235.73234L589.90505,237.65277L589.90505,239.81325L588.46508,240.77346L587.26511,241.97373
				L586.30514,243.41405L586.54513,245.09442L587.98509,246.05463L589.66505,246.05463L591.10502,246.53474L592.78497,246.29469
				L594.70492,246.29469L595.42491,247.73501L595.6649,249.41538L597.10486,250.13554L599.02481,251.09575L600.46478,251.57586L
				602.38473,252.05597L603.10471,253.49629L604.78467,254.69655L605.02466,256.61698L604.06469,257.57719L602.38473,258.77746L
				600.22478,258.77746L598.78482,259.01751L597.34486,259.49762L595.42491,260.93794L594.22494,262.13821L592.30499,263.57853L
				590.86502,265.49895L589.66505,268.13954L588.70508,269.3398L588.22509,270.78012L585.58516,273.90082L581.26526,276.30135L579.34531,276.30135
				L577.66536,276.78146L577.90535,278.46183L578.14534,280.1422L577.66536,281.82258L578.38534,283.743L577.90535,285.42338L577.42536,287.58386
				L576.70538,288.78412L575.9854,290.4645L575.50541,291.66476L575.02542,293.10508L575.26542,294.5454L574.54544,296.22577L572.86548,298.1462
				L571.9055,299.58652L570.46554,301.50695L568.78558,301.98705L567.10562,302.70721L565.18567,303.90748L563.50572,303.42737L
				561.82576,302.94727L559.66581,302.70721L558.22585,303.66743L557.02588,304.62764L555.34592,304.14753L553.90596,304.14753L
				552.70599,305.3478L551.02603,305.82791L549.58607,306.30801L546.94613,307.26823L546.22615,306.06796L545.26618,304.14753L545.74617,302.70721
				L545.98616,301.26689L546.22615,299.34647L546.94613,297.90615L544.5462,297.18599L542.62624,297.42604L541.18628,297.66609L
				539.02634,297.66609L538.06636,298.86636L537.82637,300.30668L536.3864,301.50695L534.70645,301.50695L533.26648,301.50695L531.82652,302.70721
				L530.14656,303.18732L528.7066,304.38759L528.22661,305.58785L528.22661,307.74833L526.78665,308.46849L525.10669,308.70855L
				523.42673,308.46849L521.98677,308.9486L520.5468,309.90881L519.10684,311.58919L517.42688,312.5494L515.50693,312.78945L513.58698,313.26956
				L512.38701,312.30935L510.94705,310.86903L509.0271,310.62897L507.82713,307.98839L508.06712,307.26823L508.7871,304.86769L509.26709,303.66743
				L509.50708,301.50695L509.74708,300.06663L510.70705,298.62631L512.14702,298.1462L513.58698,298.62631L515.02694,298.62631L
				515.50693,297.18599L515.26694,295.02551L514.78695,293.58519L514.06697,292.14487L513.82697,290.22444L514.06697,288.54407L
				513.82697,285.90348L512.14702,287.10375L510.70705,288.30402L509.26709,289.02418L508.30711,287.58386L508.30711,285.90348L
				507.58713,283.743L506.14717,283.02284L504.22722,283.2629L503.02725,284.70322L502.06727,283.50295L501.58728,282.06263L501.1073,280.1422
				L500.62731,277.98172L499.42734,277.02151L497.0274,277.26156L495.58744,276.5414L494.14747,276.0613L493.42749,274.38092L492.70751,272.70055
				L491.26755,271.74034L489.82758,272.70055L488.14763,272.9406L487.18765,271.50028L485.50769,271.98039L483.82774,272.4605L482.14778,273.18066
				L480.70781,272.4605L478.78786,272.22044L477.58789,271.26023L475.66794,271.50028L474.46797,270.30002L474.22798,268.8597L474.22798,266.69922
				L473.74799,264.29869L471.58805,264.77879L469.66809,265.2589L467.98814,265.97906L467.02816,265.01885L466.30818,263.33847L
				466.30818,261.6581L466.30818,259.73767L466.06819,257.57719L464.38823,256.61698L462.94826,255.65677L461.98829,254.21645L461.5083,252.77613
				L460.30833,251.57586L458.62837,251.33581L459.34836,248.93527L460.54833,247.97506L461.26831,246.77479L461.98829,245.57453
				L463.42825,244.61431L464.14823,243.174L463.90824,241.01352L462.70827,239.09309L460.78832,239.09309L458.86837,239.33314L457.6684,238.37293
				L455.50845,236.69256L454.30848,235.49229L453.5885,233.81192L452.14854,233.33181L450.70857,232.61165L450.70857,230.93128L
				450.46858,228.29069L449.98859,227.09042L450.22859,225.41005L450.70857,223.72968L450.22859,221.80925L448.54863,222.0493L446.86867,221.80925
				L445.18871,219.88882L444.46873,218.20845L444.94872,215.56787L446.38868,216.04797L448.30864,214.12755L449.98859,211.72701
				L450.70857,209.80659L450.94857,206.44584L453.8285,205.96573L453.5885,204.52541L454.06849,203.08509L459.10836,204.52541L461.26831,205.24557
				L463.18826,206.92595L464.14823,206.92595L466.78817,205.24557L470.86806,203.32515L471.34805,204.76547L471.82804,204.52541
				L475.18795,203.5652L477.82789,199.72435L476.14793,195.64344L471.34805,191.08243L472.54802,184.84104L474.22798,181.4803L476.14793,178.59966
				L476.62792,177.8795L479.02786,177.15934L483.58774,179.31982L484.78771,179.55987L486.46767,175.95907L489.3476,176.43918L491.26755,180.28003
				L494.38747,181.4803L495.34744,180.76014L496.06742,180.28003L499.66733,174.99886L497.0274,171.87816L496.78741,170.6779L499.18735,166.11689
				L502.54726,163.95641L502.54726,160.83571L503.02725,158.43518L503.98722,156.2747L504.9472,155.31449L505.66718,156.2747L507.10714,157.47497
				L507.82713,159.63545L508.06712,162.99619L508.7871,165.39673L508.7871,166.11689L509.0271,169.47763L508.06712,171.39806L506.86715,174.03864
				L504.22722,175.23891L503.26724,175.47896L503.26724,176.43918L504.9472,178.3596L506.38716,180.76014L507.58713,181.72035L508.7871,182.20046
				L510.22707,181.4803L511.42704,178.59966L513.34699,177.63944L515.02694,177.63944L515.98692,175.23891L516.7069,173.55854L517.66688,173.31848
				L518.38686,174.03864L519.58683,176.19912L520.30681,176.19912L520.7868,174.7588L521.02679,173.07843L521.74677,170.91795L522.46676,169.23758
				L524.6267,168.03731L525.58668,168.03731L527.26663,168.99752L528.22661,168.99752L530.38655,166.83705L531.82652,166.11689L
				532.06651,165.63678L531.58652,163.23625L532.5465,161.79593L532.5465,161.07577L528.7066,158.91529L527.74662,157.71502L527.02664,156.51475
				L526.54665,152.19379L525.58668,152.43385L524.38671,151.95374L524.38671,151.23358L525.34668,149.31315L524.86669,148.59299
				L523.66673,148.11289L523.66673,146.91262L523.42673,145.4723L523.42673,144.75214L522.46676,144.51209L521.74677,143.79193L
				520.30681,141.63145L518.86685,140.19113L518.86685,139.71102L520.06682,138.75081L520.7868,138.51076L523.66673,137.07044L525.58668,137.07044
				L526.78665,136.35028L528.22661,135.63012L530.14656,133.70969L532.30651,132.74948L532.78649,133.22958L534.70645,134.6699L
				537.34638,132.98953L540.94629,133.70969L540.94629,132.26937L539.26633,130.589L544.06621,126.74814L544.5462,125.54788L545.98616,123.8675
				L546.46615,123.3874L550.54604,124.82772L551.50602,123.62745L551.74601,122.42718L553.18598,122.66724L554.14595,123.8675L555.10593,124.82772
				L555.82591,128.18846L557.98586,129.14868L559.42582,129.14868L561.82576,130.589L563.50572,134.1898L562.06575,136.11022L562.54574,137.07044
				L560.62579,140.19113L563.74571,142.59166L563.50572,145.4723L563.02573,147.87283L563.50572,149.79326L569.26557,150.75347L
				572.1455,151.71369L574.78543,149.79326L575.9854,147.63278L577.66536,147.39273L577.18537,152.91395L578.38534,155.31449L578.62533,155.31449
				L582.22524,154.35427L585.58516,155.31449L588.94507,156.03465L591.585,155.07443L594.22494,155.31449L598.54483,155.55454L599.26481,155.07443
				L600.70477,155.31449L600.70477,155.55454L606.22463,161.07577L606.46463,163.95641L606.94461,167.55721L608.14458,170.19779
				L610.30453,171.63811L612.46447,173.79859L614.62442,173.79859L617.26435,174.7588L616.54437,175.95907L613.18446,175.47896L
				612.22448,176.19912L613.66444,181.24024L614.86441,185.32115L613.42445,187.96174L614.14443,188.6819L616.06438,189.64211L616.54437,191.56254
				L615.10441,193.96307L613.90444,193.24291L610.54452,195.64344L610.78452,196.60365z"/>
		</g>
	</g>
</svg>
